<?xml version="1.0" encoding="UTF-8" standalone="no"?>
<svg
   xmlns:dc="http://purl.org/dc/elements/1.1/"
   xmlns:cc="http://creativecommons.org/ns#"
   xmlns:rdf="http://www.w3.org/1999/02/22-rdf-syntax-ns#"
   xmlns:svg="http://www.w3.org/2000/svg"
   xmlns="http://www.w3.org/2000/svg"
   xmlns:sodipodi="http://sodipodi.sourceforge.net/DTD/sodipodi-0.dtd"
   xmlns:inkscape="http://www.inkscape.org/namespaces/inkscape"
   viewBox="0 0 200.00001 199.99999"
   id="svg7478"
   version="1.1"
   inkscape:version="0.91pre1 r13432"
   sodipodi:docname="git.svg"
   width="200"
   height="200">
  <metadata
     id="metadata7492">
    <rdf:RDF>
      <cc:Work
         rdf:about="">
        <dc:format>image/svg+xml</dc:format>
        <dc:type
           rdf:resource="http://purl.org/dc/dcmitype/StillImage" />
        <dc:title></dc:title>
      </cc:Work>
    </rdf:RDF>
  </metadata>
  <defs
     id="defs7490" />
  <sodipodi:namedview
     pagecolor="#ffffff"
     bordercolor="#666666"
     borderopacity="1"
     objecttolerance="10"
     gridtolerance="10"
     guidetolerance="10"
     inkscape:pageopacity="0"
     inkscape:pageshadow="2"
     inkscape:window-width="1598"
     inkscape:window-height="879"
     id="namedview7488"
     showgrid="false"
     inkscape:zoom="0.96511839"
     inkscape:cx="-48.559924"
     inkscape:cy="-15.910165"
     inkscape:window-x="0"
     inkscape:window-y="19"
     inkscape:window-maximized="0"
     inkscape:current-layer="svg7478" />
  <path
     d="M 194.30461,91.27049 108.72397,5.7003528 c -4.92409,-4.928564 -12.917,-4.928564 -17.847285,0 L 73.10681,23.471948 95.647318,46.012447 c 5.240122,-1.769246 11.246332,-0.583005 15.421372,3.592856 4.19671,4.201872 5.37449,10.259354 3.56086,15.517028 l 21.72504,21.725045 c 5.25595,-1.811224 11.32014,-0.641051 15.51703,3.563265 5.86755,5.86583 5.86755,15.370799 0,21.238179 -5.86841,5.86927 -15.37338,5.86927 -21.24506,0 -4.41193,-4.41538 -5.50317,-10.89779 -3.26856,-16.333701 l -20.261,-20.260995 -0.002,53.316506 c 1.43051,0.70816 2.78049,1.65329 3.97255,2.84019 5.86583,5.86514 5.86583,15.36838 0,21.24333 -5.86755,5.86497 -15.376814,5.86497 -21.238172,0 -5.866691,-5.87443 -5.866691,-15.37767 0,-21.24333 1.449856,-1.44728 3.127491,-2.54273 4.917553,-3.277 l 0,-53.811973 C 92.956289,73.390682 91.280632,72.303398 89.828626,70.84451 85.384867,66.404191 84.314614,59.882205 86.59361,54.42531 L 64.373095,32.201354 5.6975831,90.875145 c -4.93011245,4.932349 -4.93011245,12.925265 0,17.854175 l 85.5754789,85.57032 c 4.926844,4.92856 12.917008,4.92856 17.850728,0 l 85.17979,-85.16603 c 4.92857,-4.93097 4.92857,-12.926298 0,-17.855894"
     id="path7486"
     inkscape:connector-curvature="0"
     style="fill:#ffffff" />
</svg>
