<?xml version="1.0" encoding="UTF-8" standalone="no"?>
<!-- Created with Inkscape (http://www.inkscape.org/) -->

<svg
   xmlns:dc="http://purl.org/dc/elements/1.1/"
   xmlns:cc="http://creativecommons.org/ns#"
   xmlns:rdf="http://www.w3.org/1999/02/22-rdf-syntax-ns#"
   xmlns:svg="http://www.w3.org/2000/svg"
   xmlns="http://www.w3.org/2000/svg"
   xmlns:sodipodi="http://sodipodi.sourceforge.net/DTD/sodipodi-0.dtd"
   xmlns:inkscape="http://www.inkscape.org/namespaces/inkscape"
   width="78.87973"
   height="22.29867"
   id="svg2"
   sodipodi:version="0.32"
   inkscape:version="0.91pre1 r13432"
   sodipodi:docname="gpl.svg"
   inkscape:output_extension="org.inkscape.output.svg.inkscape"
   version="1.1"
   viewBox="0 0 78.879729 22.29867">
  <defs
     id="defs4" />
  <sodipodi:namedview
     id="base"
     pagecolor="#ffffff"
     bordercolor="#666666"
     borderopacity="1.0"
     inkscape:pageopacity="0.0"
     inkscape:pageshadow="2"
     inkscape:zoom="3.7008305"
     inkscape:cx="33.401662"
     inkscape:cy="26.255695"
     inkscape:document-units="px"
     inkscape:current-layer="layer1"
     inkscape:window-width="1598"
     inkscape:window-height="879"
     inkscape:window-x="0"
     inkscape:window-y="19"
     showgrid="false"
     fit-margin-top="0"
     fit-margin-left="0"
     fit-margin-right="0"
     fit-margin-bottom="0"
     inkscape:window-maximized="0" />
  <metadata
     id="metadata7">
    <rdf:RDF>
      <cc:Work
         rdf:about="">
        <dc:format>image/svg+xml</dc:format>
        <dc:type
           rdf:resource="http://purl.org/dc/dcmitype/StillImage" />
        <dc:title></dc:title>
      </cc:Work>
    </rdf:RDF>
  </metadata>
  <g
     inkscape:label="Capa 1"
     inkscape:groupmode="layer"
     id="layer1"
     transform="translate(-463.55807,-484.1724)">
    <g
       id="g4255">
      <path
         sodipodi:nodetypes="cccccccccscccccccccsccssscscscs"
         inkscape:connector-curvature="0"
         id="rect3749"
         d="m 463.55807,484.1724 0,0.74105 0,21.55762 78.87973,0 0,-22.29867 z m 2.06109,1.92453 11.64366,0 c -0.99647,0.48231 -1.92018,1.11998 -2.76571,1.92635 -2.15727,2.07371 -3.23911,4.529 -3.23911,7.36309 0,2.83479 1.08184,5.26765 3.23911,7.30665 0.87796,0.83002 1.82599,1.48517 2.84036,1.97733 l -11.71831,0 z m 21.57765,0 53.17808,0 0,18.57342 -53.26366,0 c 1.04368,-0.49764 2.02515,-1.15837 2.93322,-2.00282 2.08409,-1.95269 3.1244,-4.37757 3.1244,-7.28116 0,-2.90294 -1.06034,-5.3589 -3.18084,-7.36309 -0.85243,-0.80596 -1.78524,-1.44441 -2.7912,-1.92635 z m -4.96153,0.78474 c 2.48736,0 4.60243,0.82548 6.34893,2.47622 1.74686,1.65104 2.62006,3.66043 2.62006,6.02848 -2e-5,2.38606 -0.85887,4.3657 -2.57818,5.93927 -1.81081,1.69413 -3.93986,2.53994 -6.39081,2.53994 -2.45096,0 -4.56544,-0.83728 -6.33984,-2.51445 -1.77407,-1.67637 -2.66193,-3.66557 -2.66193,-5.96476 0,-2.29984 0.89828,-4.30247 2.69106,-6.01392 1.71894,-1.65942 3.82332,-2.49078 6.31071,-2.49078 z"
         style="color:#000000;font-style:normal;font-variant:normal;font-weight:normal;font-stretch:normal;font-size:medium;line-height:normal;font-family:sans-serif;text-indent:0;text-align:start;text-decoration:none;text-decoration-line:none;text-decoration-style:solid;text-decoration-color:#000000;letter-spacing:normal;word-spacing:normal;text-transform:none;direction:ltr;block-progression:tb;writing-mode:lr-tb;baseline-shift:baseline;text-anchor:start;clip-rule:nonzero;display:inline;overflow:visible;visibility:visible;opacity:1;isolation:auto;color-interpolation:sRGB;color-interpolation-filters:linearRGB;fill:#666666;fill-opacity:1;fill-rule:nonzero;stroke:none;stroke-width:0.24186611;stroke-linecap:butt;stroke-linejoin:miter;stroke-miterlimit:4;stroke-dasharray:none;stroke-dashoffset:0;stroke-opacity:1;color-rendering:auto;image-rendering:auto;shape-rendering:auto;text-rendering:auto;enable-background:accumulate" />
      <path
         d="m 484.8194,493.25333 q 0,0.75233 -0.4558,1.27952 -0.45579,0.52719 -1.27952,0.72488 l 0,0.033 q 0.972,0.12081 1.47173,0.59308 0.49972,0.46678 0.49972,1.26305 0,1.15871 -0.8402,1.80671 -0.8402,0.64251 -2.39979,0.64251 -1.30698,0 -2.31742,-0.43383 l 0,-1.44427 q 0.46678,0.23613 1.02691,0.38441 0.56014,0.14827 1.10929,0.14827 0.8402,0 1.24108,-0.28556 0.40088,-0.28556 0.40088,-0.91709 0,-0.56562 -0.46128,-0.80176 -0.46129,-0.23613 -1.47173,-0.23613 l -0.60956,0 0,-1.30149 0.62054,0 q 0.93356,0 1.3619,-0.24163 0.43383,-0.24712 0.43383,-0.8402 0,-0.91159 -1.14224,-0.91159 -0.39539,0 -0.80725,0.13179 -0.40637,0.1318 -0.9061,0.4558 l -0.78529,-1.16969 q 1.09831,-0.79078 2.61946,-0.79078 1.24657,0 1.96596,0.50522 0.72488,0.50522 0.72488,1.40583 z"
         style="color:#000000;font-style:normal;font-variant:normal;font-weight:bold;font-stretch:normal;font-size:11.24662495px;line-height:125%;font-family:'Noto Sans';-inkscape-font-specification:'Noto Sans, Bold';text-indent:0;text-align:start;text-decoration:none;text-decoration-line:none;letter-spacing:0px;word-spacing:0px;text-transform:none;direction:ltr;block-progression:tb;writing-mode:lr-tb;baseline-shift:baseline;text-anchor:start;visibility:visible;fill:#666666;fill-opacity:1;fill-rule:nonzero;stroke:none;stroke-width:1px;stroke-linecap:butt;stroke-linejoin:miter;stroke-opacity:1;marker:none"
         id="path4217"
         inkscape:connector-curvature="0" />
      <g
         style="fill:#666666;fill-opacity:1"
         transform="matrix(1.131564,0,0,1,-72.097676,56.25223)"
         id="g4229">
        <path
           inkscape:connector-curvature="0"
           id="path4219"
           style="color:#000000;font-style:normal;font-variant:normal;font-weight:bold;font-stretch:normal;font-size:11.24662495px;line-height:125%;font-family:'Noto Sans';-inkscape-font-specification:'Noto Sans, Bold';text-indent:0;text-align:start;text-decoration:none;text-decoration-line:none;letter-spacing:0px;word-spacing:0px;text-transform:none;direction:ltr;block-progression:tb;writing-mode:lr-tb;baseline-shift:baseline;text-anchor:start;visibility:visible;fill:#666666;fill-opacity:1;fill-rule:nonzero;stroke:none;stroke-width:1px;stroke-linecap:butt;stroke-linejoin:miter;stroke-opacity:1;marker:none"
           d="m 508.27912,438.57801 3.18508,0 0,4.16257 q -0.77431,0.25261 -1.46075,0.35146 -0.68095,0.10434 -1.39484,0.10434 -1.81769,0 -2.77871,-1.06536 -0.95552,-1.07084 -0.95552,-3.06975 0,-1.944 1.10928,-3.03132 1.11478,-1.08732 3.08623,-1.08732 1.2356,0 2.38332,0.49424 l -0.56562,1.36189 q -0.87865,-0.43932 -1.82868,-0.43932 -1.10379,0 -1.76827,0.74136 -0.66447,0.74135 -0.66447,1.99342 0,1.30698 0.53268,1.99891 0.53817,0.68644 1.55959,0.68644 0.53267,0 1.08183,-0.10983 l 0,-1.67492 -1.52115,0 0,-1.41681 z" />
        <path
           inkscape:connector-curvature="0"
           id="path4221"
           style="color:#000000;font-style:normal;font-variant:normal;font-weight:bold;font-stretch:normal;font-size:11.24662495px;line-height:125%;font-family:'Noto Sans';-inkscape-font-specification:'Noto Sans, Bold';text-indent:0;text-align:start;text-decoration:none;text-decoration-line:none;letter-spacing:0px;word-spacing:0px;text-transform:none;direction:ltr;block-progression:tb;writing-mode:lr-tb;baseline-shift:baseline;text-anchor:start;visibility:visible;fill:#666666;fill-opacity:1;fill-rule:nonzero;stroke:none;stroke-width:1px;stroke-linecap:butt;stroke-linejoin:miter;stroke-opacity:1;marker:none"
           d="m 515.08311,438.83611 0.56013,0 q 0.78529,0 1.17518,-0.30752 0.3899,-0.31302 0.3899,-0.9061 0,-0.59858 -0.32949,-0.88413 -0.324,-0.28556 -1.02142,-0.28556 l -0.7743,0 0,2.38331 z m 3.84406,-1.27403 q 0,1.296 -0.81275,1.98244 -0.80725,0.68644 -2.30094,0.68644 l -0.73037,0 0,2.85559 -1.70237,0 0,-8.0286 2.56453,0 q 1.46075,0 2.21858,0.63153 0.76332,0.62603 0.76332,1.8726 z" />
        <path
           inkscape:connector-curvature="0"
           id="path4223"
           style="color:#000000;font-style:normal;font-variant:normal;font-weight:bold;font-stretch:normal;font-size:11.24662495px;line-height:125%;font-family:'Noto Sans';-inkscape-font-specification:'Noto Sans, Bold';text-indent:0;text-align:start;text-decoration:none;text-decoration-line:none;letter-spacing:0px;word-spacing:0px;text-transform:none;direction:ltr;block-progression:tb;writing-mode:lr-tb;baseline-shift:baseline;text-anchor:start;visibility:visible;fill:#666666;fill-opacity:1;fill-rule:nonzero;stroke:none;stroke-width:1px;stroke-linecap:butt;stroke-linejoin:miter;stroke-opacity:1;marker:none"
           d="m 520.45381,443.08655 0,-8.0286 1.70237,0 0,6.62277 3.25647,0 0,1.40583 -4.95884,0 z" />
      </g>
    </g>
  </g>
</svg>
