<?xml version="1.0" encoding="UTF-8" standalone="no"?>
<!-- Created with Inkscape (http://www.inkscape.org/) -->

<svg
   xmlns:dc="http://purl.org/dc/elements/1.1/"
   xmlns:cc="http://creativecommons.org/ns#"
   xmlns:rdf="http://www.w3.org/1999/02/22-rdf-syntax-ns#"
   xmlns:svg="http://www.w3.org/2000/svg"
   xmlns="http://www.w3.org/2000/svg"
   xmlns:sodipodi="http://sodipodi.sourceforge.net/DTD/sodipodi-0.dtd"
   xmlns:inkscape="http://www.inkscape.org/namespaces/inkscape"
   width="703.55176"
   height="95.548767"
   id="svg2"
   sodipodi:version="0.32"
   inkscape:version="0.91pre1 r13432"
   sodipodi:docname="iunelab.svg"
   inkscape:output_extension="org.inkscape.output.svg.inkscape"
   version="1.1"
   viewBox="0 0 703.55174 95.548769">
  <defs
     id="defs4" />
  <sodipodi:namedview
     id="base"
     pagecolor="#ffffff"
     bordercolor="#666666"
     borderopacity="1.0"
     inkscape:pageopacity="0.0"
     inkscape:pageshadow="2"
     inkscape:zoom="0.92520762"
     inkscape:cx="412.3951"
     inkscape:cy="38.917747"
     inkscape:document-units="px"
     inkscape:current-layer="layer1"
     inkscape:window-width="1598"
     inkscape:window-height="879"
     inkscape:window-x="0"
     inkscape:window-y="19"
     showgrid="false"
     fit-margin-top="0"
     fit-margin-left="0"
     fit-margin-right="0"
     fit-margin-bottom="0"
     inkscape:window-maximized="0" />
  <metadata
     id="metadata7">
    <rdf:RDF>
      <cc:Work
         rdf:about="">
        <dc:format>image/svg+xml</dc:format>
        <dc:type
           rdf:resource="http://purl.org/dc/dcmitype/StillImage" />
        <dc:title></dc:title>
      </cc:Work>
    </rdf:RDF>
  </metadata>
  <g
     inkscape:label="Capa 1"
     inkscape:groupmode="layer"
     id="layer1"
     transform="translate(-153.57895,-261.93046)">
    <g
       id="g5770"
       transform="matrix(1.5445997,0,0,1.5445997,-267.99884,207.37003)">
      <g
         transform="matrix(0.67534521,0,0,0.67534521,-13.198777,-269.04824)"
         id="g5732">
        <g
           id="text4134"
           style="color:#000000;font-style:normal;font-variant:normal;font-weight:normal;font-stretch:normal;font-size:49.84892654px;line-height:125%;font-family:Lato;-inkscape-font-specification:Lato;text-indent:0;text-align:start;text-decoration:none;text-decoration-line:none;letter-spacing:0px;word-spacing:0px;text-transform:none;direction:ltr;block-progression:tb;writing-mode:lr-tb;baseline-shift:baseline;text-anchor:start;display:inline;overflow:visible;visibility:visible;fill:#000000;fill-opacity:1;fill-rule:nonzero;stroke:none;stroke-width:1px;stroke-linecap:butt;stroke-linejoin:miter;stroke-opacity:1;marker:none;enable-background:accumulate">
          <path
             inkscape:connector-curvature="0"
             id="path8073"
             style="font-style:normal;font-variant:normal;font-weight:normal;font-stretch:normal;font-size:186.93345642px;line-height:125%;font-family:'Notera Personal Use Only';-inkscape-font-specification:'Notera Personal Use Only, Normal';text-align:start;writing-mode:lr-tb;text-anchor:start;fill:#000000;stroke:none"
             d="m 767.96878,520.97736 q 1.30854,-0.74774 4.67334,-2.61707 3.55174,-2.05627 7.66427,-4.11254 4.29947,-2.05627 8.59894,-3.73867 4.29947,-1.86933 7.47734,-2.05627 1.1216,-0.37386 2.2432,0.18694 1.30854,0.37386 1.86934,1.1216 1.1216,1.86933 0.18693,2.99093 -0.93467,0.93467 -2.43014,1.6824 -1.49546,0.74774 -3.3648,1.30854 -1.6824,0.37387 -2.2432,1.1216 -0.93467,1.1216 0.37387,2.05627 1.49547,0.93466 3.55173,1.49547 2.05627,0.5608 4.11254,1.1216 2.05627,0.37386 2.61707,0.74773 3.73867,2.05627 4.29947,4.4864 0.74773,2.2432 -0.74774,4.67334 l 5.04721,-2.61707 14.95467,-7.8512 q 1.30854,-0.74774 2.2432,0 1.12161,0.5608 1.12161,2.05626 0,1.49547 -1.68241,2.2432 -1.49546,0.56081 -2.804,1.12161 -4.4864,2.05626 -9.15974,4.4864 -4.4864,2.2432 -8.9728,4.67334 -5.42107,2.61706 -10.46828,4.67333 -4.86027,2.05627 -10.0944,2.05627 -3.73867,0 -6.72961,-2.61707 -2.804,-2.61707 -2.804,-5.98187 -0.18693,-1.6824 0.74773,-2.61707 0.93467,-1.1216 2.24321,-1.30853 1.30853,-0.37387 2.2432,0.37386 1.1216,0.74774 1.30853,2.43014 0.37387,3.73867 3.17787,4.29947 2.99094,0.74773 6.91654,-0.18693 2.61707,-0.93467 4.67333,-2.24321 2.24321,-1.49546 3.17787,-2.804 2.43014,-2.61707 1.30854,-4.11253 -1.1216,-1.49547 -3.9256,-2.43014 -2.61707,-0.93467 -5.60801,-1.49547 -2.99093,-0.74773 -4.11253,-1.6824 -1.68241,-1.49546 -2.05627,-2.99093 -0.18694,-1.49547 0.18693,-2.99094 -2.804,1.1216 -5.608,2.43014 -2.61707,1.1216 -4.86027,2.05627 -1.6824,0.93466 -4.11254,2.804 -2.2432,1.6824 -4.11253,1.6824 -0.93467,0.18693 -1.49547,-0.18694 -0.74774,-0.5608 -0.74774,-1.1216 -0.18693,-0.74773 0.18694,-1.49546 0.18693,-0.74774 0.93466,-1.1216 z" />
          <path
             inkscape:connector-curvature="0"
             id="path8075"
             style="font-style:normal;font-variant:normal;font-weight:normal;font-stretch:normal;font-size:186.93345642px;line-height:125%;font-family:'Notera Personal Use Only';-inkscape-font-specification:'Notera Personal Use Only, Normal';text-align:start;writing-mode:lr-tb;text-anchor:start;fill:#000000;stroke:none"
             d="m 882.62033,520.79042 q 5.79494,-2.61707 11.21601,-5.79494 5.42107,-3.17786 10.84214,-6.91653 2.61707,-5.23414 5.79494,-10.09441 3.17786,-4.86027 6.1688,-9.53361 3.17787,-4.29947 6.35574,-8.59893 3.17787,-4.48641 6.54267,-8.78588 2.804,-3.73867 5.98187,-7.47734 3.3648,-3.9256 7.66427,-6.35573 2.05627,-1.1216 5.0472,-1.49547 2.99094,-0.5608 4.11254,2.61707 0.74773,2.05627 0,4.11253 -0.5608,1.86934 -1.86933,3.92561 -1.30854,1.86933 -2.80401,3.73867 -1.49546,1.6824 -2.43013,2.99093 -7.47734,10.65521 -16.82401,20.00188 -9.15974,9.15974 -19.81495,17.01094 -0.93467,2.24321 -2.2432,4.86027 -1.1216,2.43014 -2.05627,5.23414 -0.93467,2.804 -1.30853,5.60801 -0.37387,2.61706 0.18693,5.0472 2.05627,-0.37387 3.73867,-0.5608 1.49547,-0.18694 2.804,-0.18694 1.30854,-0.18693 1.6824,-0.37386 5.60801,-1.1216 11.02908,-2.99094 5.42107,-1.86933 10.6552,-4.11253 1.49547,-0.37387 3.55174,-1.49547 2.05627,-1.1216 3.55174,-0.18693 2.05626,1.49546 0.5608,2.804 -1.49547,1.1216 -2.80401,1.6824 l -21.68428,8.03814 q -3.17787,1.1216 -6.1688,2.43013 -2.99094,1.1216 -6.16881,1.30854 -2.804,0.37386 -4.4864,-0.74774 -1.6824,-1.30853 -2.43013,-3.17787 -0.5608,-2.05626 -0.37387,-4.29947 0.18693,-2.43013 0.74773,-4.4864 1.30854,-4.4864 3.36481,-8.9728 -7.66428,5.0472 -16.07628,9.15973 -1.86934,0.37387 -2.99094,-1.1216 -1.30853,-1.6824 0.93467,-2.804 z m 37.94749,-25.60988 q 8.78587,-8.22507 16.07628,-17.75868 3.3648,-3.9256 6.35574,-8.97281 0.37386,-0.93466 1.1216,-2.2432 0.74773,-1.49546 1.30853,-2.99093 -2.61707,1.30853 -5.0472,3.55173 -2.2432,2.2432 -3.73867,3.73867 -4.29947,4.29947 -8.03814,9.15974 -3.73867,4.67334 -7.47734,9.72054 -2.05627,2.99094 -3.9256,5.98187 -1.86933,2.804 -3.55174,5.79494 1.68241,-1.30854 3.36481,-2.804 1.86933,-1.6824 3.55173,-3.17787 z" />
          <path
             inkscape:connector-curvature="0"
             id="path8077"
             style="font-style:normal;font-variant:normal;font-weight:normal;font-stretch:normal;font-size:186.93345642px;line-height:125%;font-family:'Notera Personal Use Only';-inkscape-font-specification:'Notera Personal Use Only, Normal';text-align:start;writing-mode:lr-tb;text-anchor:start;fill:#000000;stroke:none"
             d="m 937.56417,520.97736 q 2.2432,-1.12161 5.608,-2.80401 3.55173,-1.86933 7.47734,-3.55173 3.9256,-1.6824 7.47734,-3.17787 3.73866,-1.49547 6.1688,-2.43014 1.30853,-0.5608 4.67334,-1.6824 3.3648,-1.1216 7.10347,-2.05626 3.73867,-0.93467 6.91654,-1.30854 3.3648,-0.37387 4.86026,0.5608 2.24321,2.05627 0.74774,3.73867 -1.30854,1.6824 -3.3648,2.05627 l -8.41201,0.93467 q -2.61707,0.74773 -4.4864,1.86933 -1.6824,0.93467 -3.9256,2.43014 -0.93467,0.74773 -3.36481,3.17786 -2.2432,2.24321 -4.4864,5.04721 -2.2432,2.61707 -3.55174,5.23413 -1.30853,2.43014 0,3.55174 1.12161,0.93467 3.55174,0.37387 2.61707,-0.5608 5.23414,-1.6824 2.61707,-1.12161 4.86027,-2.24321 2.2432,-1.30853 2.99093,-1.86933 5.42107,-3.3648 8.78587,-7.10347 1.68241,-1.86934 3.55174,-0.37387 2.05627,1.30854 1.30853,3.73867 -0.37386,1.30853 -1.30853,2.2432 -0.93467,0.93467 -1.86933,1.86934 -0.74774,0.74773 -1.30854,2.2432 -0.74773,1.30853 -0.37387,2.05627 0.37387,0.5608 1.30854,0.74773 2.61707,0.37387 6.54267,-0.37387 3.9256,-0.74773 8.03814,-2.05627 4.29946,-1.30853 8.41196,-2.99093 4.1126,-1.86934 7.1035,-3.3648 0.7477,-0.18694 2.0563,-0.93467 1.3085,-0.93467 2.6171,-1.49547 1.4954,-0.5608 2.804,-0.5608 1.3085,0 1.8693,1.1216 0.7477,1.1216 -0.1869,2.05627 -0.7478,0.93467 -2.2432,1.6824 -1.4955,0.5608 -2.991,1.1216 -1.4954,0.5608 -2.2432,0.93467 -3.1779,1.49547 -6.3557,2.99094 -3.1779,1.30853 -6.5427,2.804 -2.2432,0.93466 -4.86026,2.2432 -2.61707,1.30853 -5.42107,2.2432 -2.804,0.93467 -5.79494,1.30853 -2.804,0.37387 -5.23414,-0.5608 -3.17786,-1.30853 -3.73867,-3.55173 -0.5608,-2.43014 0.18694,-5.04721 l -5.04721,2.99094 q -3.17786,1.86933 -6.7296,3.73867 -3.3648,2.05627 -7.10347,2.43013 -3.3648,0.18694 -5.98187,-1.49546 -2.61707,-1.6824 -2.804,-5.23414 0,-1.86933 1.49546,-4.67334 1.49547,-2.99093 3.73867,-5.98187 2.43014,-3.17787 5.23414,-5.79493 2.804,-2.61707 5.23414,-3.92561 -1.30854,0.37387 -4.29947,1.6824 -2.804,1.30854 -6.54267,3.17787 -3.55174,1.86934 -7.66428,3.92561 -3.9256,1.86933 -7.2904,3.55173 -0.93467,0.5608 -1.86933,0.37387 -0.93467,-0.37387 -1.30854,-0.93467 -0.5608,-0.74773 -0.37387,-1.49547 0,-0.93466 1.12161,-1.49546 z" />
          <path
             inkscape:connector-curvature="0"
             id="path8079"
             style="font-style:normal;font-variant:normal;font-weight:normal;font-stretch:normal;font-size:186.93345642px;line-height:125%;font-family:'Notera Personal Use Only';-inkscape-font-specification:'Notera Personal Use Only, Normal';text-align:start;writing-mode:lr-tb;text-anchor:start;fill:#000000;stroke:none"
             d="m 1020.2734,520.79042 q 9.3467,-4.11253 17.9457,-9.72054 8.5989,-5.608 16.4501,-12.15067 2.6171,-4.86027 5.4211,-9.53361 2.9909,-4.86027 5.9818,-9.72054 5.2342,-8.59894 11.7769,-16.82401 2.617,-3.3648 5.9818,-7.10347 3.3648,-3.73867 7.6643,-4.86027 1.6824,-0.37387 3.3648,0 1.6824,0.37387 2.6171,2.05627 0.9346,1.6824 0.5608,3.55173 -0.3739,1.6824 -1.3086,3.55174 -0.9346,1.6824 -2.2432,3.3648 -1.1216,1.49547 -2.0562,2.804 -8.2251,9.53361 -16.6371,18.50641 -8.2251,8.78588 -17.7587,16.63708 l -3.7387,8.41201 q -0.5608,1.30853 -2.0562,4.86027 -1.3086,3.3648 -2.4302,7.10347 -1.1216,3.73867 -1.3085,7.10347 -0.1869,3.17787 1.6824,3.9256 4.1125,0 7.4773,-2.05626 3.3648,-2.24321 5.9819,-5.23414 0.1869,-0.37387 0.7477,-0.93467 0.5608,-0.5608 1.1216,-1.49547 -1.4954,-3.3648 -0.9346,-7.47733 0.7477,-4.11254 3.1778,-6.91654 2.2432,-2.99094 5.0473,-2.43014 2.9909,0.37387 2.9909,4.67334 0,3.17787 -1.4955,6.54267 -1.4954,3.17787 -3.5517,5.98187 0.3738,0.37387 0.7477,0.74773 0.3739,0.18694 0.9347,0.37387 2.0563,0.93467 4.2995,0.93467 2.4301,-0.18694 4.4864,-0.93467 2.2432,-0.5608 5.0472,-2.2432 2.9909,-1.86933 5.2341,-1.86933 1.8693,0 2.0563,1.86933 0.3738,1.6824 -1.1216,2.43013 -4.4864,2.05627 -8.599,3.36481 -3.9256,1.30853 -8.225,1.49546 -4.2995,0 -7.4774,-2.61706 -2.804,3.55173 -6.5427,7.10347 -3.7386,3.3648 -8.0381,4.86027 -3.1779,0.93466 -6.1688,0 -2.9909,-0.74774 -4.2995,-4.11254 -1.4954,-4.29947 0,-8.9728 1.6824,-4.86027 3.3648,-8.78588 0.9347,-2.2432 1.8694,-4.67333 1.1216,-2.43014 2.2432,-4.86027 -3.7387,2.61706 -7.6643,5.23413 -3.9256,2.61707 -7.6643,5.04721 l -11.5898,6.35573 q -0.9347,0.37387 -1.8694,0.93467 -0.7477,0.37387 -1.6824,-0.37387 -1.1216,-0.74773 -0.9347,-2.05626 0,-1.30854 1.1216,-1.86934 z m 60.0057,-46.73336 q 2.9909,-3.55174 5.7949,-7.29041 2.991,-3.9256 4.4864,-8.412 -1.4954,0.93466 -2.9909,2.43013 -1.4955,1.30854 -2.6171,2.2432 -3.1778,3.17787 -6.1688,6.54267 -2.804,3.36481 -5.421,6.91654 -2.8041,3.73867 -5.2342,7.47734 -2.2432,3.73867 -4.6733,7.66427 4.2994,-4.11253 8.412,-8.59894 4.2995,-4.4864 8.412,-8.9728 z" />
        </g>
        <path
           sodipodi:nodetypes="cccccccc"
           inkscape:connector-curvature="0"
           id="path4438-9-8-2-7"
           d="m 696.20311,452.49581 c -11.29041,3.62243 -9.63673,22.09845 1.98244,23.82826 10.44402,2.78224 20.50419,-11.0061 13.24102,-19.45292 -3.24659,-4.5848 -9.90797,-6.63941 -15.22346,-4.37534 z m 1.54122,2.34654 c 7.34426,-2.79378 15.49873,5.5554 11.81474,12.57372 -2.62166,7.86347 -15.63682,7.73519 -17.89167,-0.2166 -1.91756,-4.82636 0.90728,-10.86308 6.07693,-12.357 z"
           style="color:#000000;font-style:normal;font-variant:normal;font-weight:normal;font-stretch:normal;font-size:medium;line-height:125%;font-family:Aquino;-inkscape-font-specification:Aquino;text-indent:0;text-align:start;text-decoration:none;text-decoration-line:none;letter-spacing:0px;word-spacing:0px;text-transform:none;direction:ltr;block-progression:tb;writing-mode:lr-tb;baseline-shift:baseline;text-anchor:start;visibility:visible;opacity:0.98999999;fill:#d40000;fill-opacity:1;fill-rule:nonzero;stroke:none;stroke-width:1px;stroke-linecap:butt;stroke-linejoin:miter;stroke-opacity:1;marker:none" />
        <g
           inkscape:label="Capa 1"
           id="layer1-3-3-8-9-5"
           transform="matrix(3.6015719,0,0,3.6015719,126.06241,-888.05181)"
           style="opacity:0.98999999;fill:#000000">
          <g
             transform="matrix(0.89009352,0,0,0.89009352,177.89333,107.80395)"
             id="layer1-1-3-5-0-0"
             inkscape:label="Capa 1"
             style="fill:#000000">
            <g
               transform="matrix(1.2227287,0,0,1.2227287,-106.1243,-131.23709)"
               id="text33400-8-0-4-7-8-1"
               style="color:#000000;font-style:normal;font-variant:normal;font-weight:normal;font-stretch:normal;font-size:174.5438385px;line-height:125%;font-family:Lato;-inkscape-font-specification:Lato;text-indent:0;text-align:start;text-decoration:none;text-decoration-line:none;letter-spacing:0px;word-spacing:0px;text-transform:none;direction:ltr;block-progression:tb;writing-mode:lr-tb;baseline-shift:baseline;text-anchor:start;display:inline;overflow:visible;visibility:visible;fill:#000000;fill-opacity:1;fill-rule:nonzero;stroke:none;stroke-width:1px;stroke-linecap:butt;stroke-linejoin:miter;stroke-opacity:1;marker:none;enable-background:accumulate">
              <path
                 sodipodi:nodetypes="ccsccccccccscccsccsccsscccccccccccc"
                 inkscape:connector-curvature="0"
                 id="path20973-4-5-7-8-1"
                 style="font-style:normal;font-variant:normal;font-weight:normal;font-stretch:normal;font-family:'Notera Personal Use Only';-inkscape-font-specification:'Notera Personal Use Only';fill:#000000"
                 d="m 4.568698,366.3481 c 0.1313604,-0.0657 0.4269233,-0.19704 0.886683,-0.39408 0.492602,-0.19704 0.9687843,-0.34482 1.428544,-0.44334 0.4597626,-0.0985 0.8538436,-0.0985 1.1822431,0 0.3284022,0.0657 0.4433429,0.36124 0.3448219,0.88668 -0.065682,0.29556 -0.2134616,0.59112 -0.4433401,0.88668 -0.1970419,0.29557 -0.3448219,0.59113 -0.4433429,0.88669 -0.1970391,0.42692 -0.394081,0.95236 -0.5911201,1.57632 -0.1641997,0.62397 -0.098521,1.13299 0.1970391,1.52707 0.5582836,0.0657 1.1658234,0 1.822625,-0.19704 0.6896411,-0.19704 1.313603,-0.39408 1.871887,-0.59113 0.1642,-0.0657 0.476182,-0.22987 0.935942,-0.4926 0.459763,-0.26272 0.935945,-0.50902 1.428544,-0.7389 0.525441,-0.26272 1.001624,-0.44334 1.428544,-0.54186 0.42692,-0.13136 0.689644,-0.0985 0.788165,0.0985 0.13136,0.22988 0.04926,0.47618 -0.246301,0.7389 -0.295563,0.26272 -0.673224,0.50902 -1.132984,0.7389 -0.42692,0.19704 -0.870263,0.39409 -1.330026,0.59112 -0.45976,0.1642 -0.75532,0.27915 -0.88668,0.34483 -0.722483,0.36124 -1.461386,0.72248 -2.216709,1.08372 -0.7224804,0.3284 -1.477803,0.55828 -2.2659651,0.68964 -0.689641,0.0985 -1.1658233,-0.0493 -1.4285468,-0.44334 -0.2627207,-0.39408 -0.394081,-0.88668 -0.394081,-1.4778 0,-0.62397 0.082101,-1.28077 0.246301,-1.97041 0.1970419,-0.72248 0.3940838,-1.37928 0.5911229,-1.97041 -0.7553226,0.29557 -1.4942256,0.57471 -2.216706,0.83743 -0.7224833,0.22988 -1.4285469,0.50902 -2.1181879,0.83742 -0.591123,0.26272 -1.18224306,0.55828 -1.77336598,0.88668 -0.36124163,0.0985 -0.640382,0.0164 -0.83742109,-0.2463 -0.22988129,-0.29556 -0.14778003,-0.54186 0.24630098,-0.7389 z m 5.763438,-9.95055 c 0.1642,-0.42692 0.410501,-0.78816 0.738903,-1.08372 1.540665,-0.63147 0.931514,2.86842 -0.394081,2.06892 -0.361242,-0.26272 -0.476182,-0.59112 -0.344822,-0.9852 z" />
              <path
                 inkscape:connector-curvature="0"
                 id="path20975-4-3-5-8-1"
                 style="font-style:normal;font-variant:normal;font-weight:normal;font-stretch:normal;font-family:'Notera Personal Use Only';-inkscape-font-specification:'Notera Personal Use Only';fill:#000000"
                 d="m 14.651635,368.71259 q 1.280764,-0.39408 2.512269,-0.93594 1.231502,-0.59112 2.463007,-1.13299 0.29556,-0.14778 0.886683,-0.54186 0.640382,-0.44334 1.280764,-0.78816 0.640382,-0.34482 1.182243,-0.44334 0.591123,-0.14778 0.886683,0.29556 0.246301,0.39408 0.04926,0.78816 -0.14778,0.34482 -0.492602,0.7389 -0.344819,0.34483 -0.7389,0.68964 -0.394081,0.29557 -0.591123,0.49261 -0.738903,0.7389 -1.428544,1.62558 -0.689641,0.88669 -0.689641,1.87189 0.88668,0 1.871884,-0.44334 0.985204,-0.44335 1.724107,-0.73891 2.364486,-1.08372 4.679713,-2.463 1.280764,-0.78817 2.315227,-1.57633 0.443342,-0.29556 0.886683,0 0.492602,0.29556 0.394081,0.88669 -0.09852,0.44334 -0.443341,0.88668 -0.295562,0.39408 -0.541863,0.83742 -0.246301,0.39408 -0.4926,1.08372 -0.197041,0.68965 0,1.23151 0.541862,0.29556 1.330024,0.0985 0.788162,-0.2463 1.280764,-0.39408 2.118185,-0.73891 3.940812,-1.67485 0.34482,-0.14778 0.837422,-0.39408 0.541861,-0.29556 0.788162,0.19704 0.246301,0.44334 -0.09852,0.68964 -0.295562,0.19704 -0.640382,0.34482 l -3.251171,1.52707 q -1.034463,0.44334 -2.265966,1.03446 -1.231504,0.54186 -2.463009,0.2463 -0.886683,-0.2463 -1.034463,-0.9852 -0.09852,-0.78816 0.14778,-1.47781 l 0.738903,-1.77336 q -1.280764,0.59112 -2.512266,1.2315 -1.182246,0.64039 -2.46301,1.18225 -0.541861,0.29556 -1.280764,0.7389 -0.7389,0.39408 -1.576324,0.78816 -0.788162,0.34482 -1.576324,0.4926 -0.788162,0.19704 -1.379285,-0.0493 -0.59112,-0.19704 -0.640382,-0.7389 0,-0.59112 0.29556,-1.33002 0.295563,-0.73891 0.837424,-1.57633 0.541861,-0.83742 1.132984,-1.62558 l -1.182243,0.54186 q -2.019667,0.7389 -2.90635,1.13298 -0.886683,0.39408 -1.379285,0.4926 -0.29556,0.0985 -0.44334,-0.0493 -0.197042,-0.14778 -0.246301,-0.34482 -0.09852,-0.19704 0,-0.39408 0.04926,-0.19704 0.29556,-0.29556 z" />
              <path
                 inkscape:connector-curvature="0"
                 id="path20977-2-6-7-0-9"
                 style="font-style:normal;font-variant:normal;font-weight:normal;font-stretch:normal;font-family:'Notera Personal Use Only';-inkscape-font-specification:'Notera Personal Use Only';fill:#000000"
                 d="m 37.740024,368.76185 q 0.541861,-0.29556 1.871887,-0.9852 1.330023,-0.7389 2.709308,-1.37929 1.428544,-0.64038 2.610787,-0.88668 1.182243,-0.2463 1.477805,0.39408 0.19704,0.4926 -0.147782,0.9852 -0.29556,0.44335 -0.44334,0.83743 l -0.591123,1.37928 q 0.640382,-0.39408 1.280764,-0.68964 0.640382,-0.29556 1.280764,-0.59112 1.576326,-0.83743 3.251171,-1.77337 1.674845,-0.93594 3.398949,-1.42854 0.640382,-0.14778 1.132984,0 0.492602,0.0985 0.738903,0.44334 0.29556,0.29556 0.29556,0.83742 0,0.4926 -0.394081,1.08372 -0.44334,0.68965 -0.985203,1.23151 -0.492602,0.54186 -1.034463,1.18224 -0.09852,0.14778 -0.34482,0.39408 -0.246301,0.2463 -0.541863,0.59113 -0.246301,0.29556 -0.492602,0.64038 -0.19704,0.29556 -0.246299,0.54186 0.34482,0.0985 0.837421,0 0.541862,-0.0985 1.034463,-0.2463 0.541862,-0.19704 0.985204,-0.39408 0.492602,-0.19705 0.738903,-0.29556 l 2.019664,-0.88669 q 0.197042,-0.0985 0.492602,-0.29556 0.344822,-0.19704 0.689644,-0.34482 0.344819,-0.19704 0.640382,-0.34482 0.344819,-0.14778 0.541861,-0.14778 0.44334,0 0.44334,0.44334 0,0.44334 -0.394081,0.68964 -0.44334,0.2463 -0.935942,0.4926 -0.492602,0.19704 -1.034463,0.44335 -0.689643,0.39408 -1.330025,0.68964 -0.640382,0.29556 -1.330024,0.64038 -0.394081,0.19704 -1.280764,0.59112 -0.837421,0.34482 -1.724104,0.4926 -0.837424,0.19704 -1.477805,-0.0493 -0.640382,-0.19704 -0.640382,-1.18224 0,-0.4926 0.2463,-0.88668 0.246301,-0.39409 0.541862,-0.73891 0.344821,-0.39408 0.689643,-0.7389 0.394081,-0.34482 0.689641,-0.64038 0.295561,-0.2463 0.985204,-1.03446 0.689641,-0.78816 0.886683,-1.47781 -1.330025,0.14778 -2.70931,0.68965 -1.330023,0.54186 -2.463007,1.13298 -1.428544,0.68964 -2.955609,1.57632 -1.527065,0.83742 -2.660047,2.01967 -0.246301,0.19704 -0.541863,0.2463 -0.246301,0 -0.492602,-0.0985 -0.246299,-0.14778 -0.394081,-0.39408 -0.09852,-0.2463 0,-0.64039 0.147782,-0.44334 0.738903,-0.78816 0.246301,-0.39408 0.492602,-0.88668 0.246301,-0.54186 0.344821,-0.64038 0.09852,-0.34482 0.19704,-0.68964 0.09852,-0.39408 0.14778,-0.78817 -0.541861,0.14778 -1.083722,0.34483 -0.541862,0.19704 -0.837424,0.29556 -0.689641,0.29556 -1.379283,0.59112 -0.689643,0.2463 -1.379284,0.59112 -0.394081,0.19704 -0.738903,0.39408 -0.29556,0.19704 -0.689641,0.34482 -0.295563,0.14778 -0.591123,0.0985 -0.246301,-0.0985 -0.394081,-0.2463 -0.14778,-0.14778 -0.09852,-0.34482 0,-0.2463 0.344822,-0.39408 z" />
              <path
                 inkscape:connector-curvature="0"
                 id="path20979-3-04-7-8-0"
                 style="font-style:normal;font-variant:normal;font-weight:normal;font-stretch:normal;font-family:'Notera Personal Use Only';-inkscape-font-specification:'Notera Personal Use Only';fill:#000000"
                 d="m 60.25807,368.71259 q 0.886683,-0.44334 1.822627,-0.9852 0.985202,-0.54186 1.970405,-0.93595 0.640382,-1.13298 1.822625,-1.82262 1.182244,-0.7389 2.512269,-0.9852 0.689641,-0.0985 1.576324,0 0.935942,0.0985 1.428544,0.7389 0.344822,0.39408 0.14778,0.83742 -0.14778,0.44334 -0.59112,0.83742 -0.394081,0.39408 -0.935944,0.7389 -0.4926,0.29557 -0.738901,0.44335 -0.886683,0.54186 -1.970407,0.83742 -1.034463,0.2463 -2.118186,0.14778 l -0.197041,0 q 0.197041,1.08372 0.886682,1.67484 0.689644,0.59113 1.625586,0.88669 0.935942,0.2463 1.921146,0.19704 1.034463,-0.0493 1.871884,-0.19704 1.182246,-0.24631 2.31523,-0.59112 1.132981,-0.39409 2.216706,-0.88669 0.492602,-0.2463 0.985201,-0.44334 0.541864,-0.2463 0.985204,-0.4926 0.344822,-0.0985 0.689644,0.0985 0.394081,0.19704 0.09852,0.64038 -0.246301,0.39408 -0.689641,0.54186 -0.443343,0.14778 -0.788162,0.29556 l -2.463007,1.08373 q -2.265968,0.88668 -4.482674,1.4778 -0.985204,0.19704 -2.019667,0.0985 -0.985204,-0.0493 -1.871886,-0.39408 -0.837422,-0.39408 -1.527065,-1.08372 -0.689642,-0.68964 -0.985202,-1.77337 -0.09852,-0.39408 -0.197041,-0.78816 -0.04926,-0.39408 0.04926,-0.7389 -0.541863,0.2463 -1.083724,0.59112 -0.492602,0.29556 -0.886683,0.54186 -0.246301,0.0985 -0.640382,0.39408 -0.394081,0.2463 -0.788162,0 -0.295561,-0.19704 -0.246301,-0.54186 0,-0.34482 0.29556,-0.44334 z m 5.024537,-1.37928 q 1.182243,-0.0493 2.265965,-0.59113 1.132984,-0.54186 1.970408,-1.37928 -0.689644,-0.2463 -1.379285,-0.14778 -0.640382,0.0985 -1.231504,0.39408 -0.541862,0.29556 -0.985202,0.78816 -0.443343,0.44334 -0.640382,0.93595 z" />
            </g>
          </g>
        </g>
        <path
           inkscape:connector-curvature="0"
           id="path4438-8-8-7-9-5"
           d="m 739.44186,475.32005 c -12.28894,-0.0605 -21.59256,12.66915 -18.75061,24.41453 2.59144,14.96407 23.69572,19.63999 33.66375,9.04479 9.1132,-8.778 7.67852,-26.79442 -4.8122,-31.60705 -3.18339,-1.3448 -6.63974,-2.04531 -10.10094,-1.85227 z m 0.32558,4.41919 c 9.9552,-0.17014 18.36133,10.9536 13.94041,20.28914 -4.03369,10.66428 -20.98571,13.0501 -26.75114,2.64632 -5.91212,-8.54616 -0.0785,-21.51402 10.2597,-22.73495 0.84158,-0.14638 1.69698,-0.21174 2.55103,-0.20039 z"
           style="color:#000000;font-style:normal;font-variant:normal;font-weight:normal;font-stretch:normal;font-size:medium;line-height:125%;font-family:Aquino;-inkscape-font-specification:Aquino;text-indent:0;text-align:start;text-decoration:none;text-decoration-line:none;letter-spacing:0px;word-spacing:0px;text-transform:none;direction:ltr;block-progression:tb;writing-mode:lr-tb;baseline-shift:baseline;text-anchor:start;visibility:visible;opacity:0.98999999;fill:#d40000;fill-opacity:1;fill-rule:nonzero;stroke:none;stroke-width:1px;stroke-linecap:butt;stroke-linejoin:miter;stroke-opacity:1;marker:none" />
      </g>
    </g>
  </g>
</svg>
