<?xml version="1.0" encoding="UTF-8" standalone="no"?>
<!-- Created with Inkscape (http://www.inkscape.org/) -->

<svg
   xmlns:dc="http://purl.org/dc/elements/1.1/"
   xmlns:cc="http://creativecommons.org/ns#"
   xmlns:rdf="http://www.w3.org/1999/02/22-rdf-syntax-ns#"
   xmlns:svg="http://www.w3.org/2000/svg"
   xmlns="http://www.w3.org/2000/svg"
   xmlns:xlink="http://www.w3.org/1999/xlink"
   xmlns:sodipodi="http://sodipodi.sourceforge.net/DTD/sodipodi-0.dtd"
   xmlns:inkscape="http://www.inkscape.org/namespaces/inkscape"
   width="512"
   height="512"
   id="svg2"
   version="1.1"
   inkscape:version="0.91pre1 r13432"
   sodipodi:docname="darktable.svg"
   inkscape:export-filename="/Users/claytonwalker/Desktop/Darktable Icon 2/512.png"
   inkscape:export-xdpi="90"
   inkscape:export-ydpi="90">
  <defs
     id="defs4">
    <linearGradient
       id="linearGradient4206">
      <stop
         style="stop-color:#ffffff;stop-opacity:1;"
         offset="0"
         id="stop4208" />
      <stop
         style="stop-color:#b0b0b0;stop-opacity:1;"
         offset="1"
         id="stop4210" />
    </linearGradient>
    <linearGradient
       id="linearGradient4209">
      <stop
         style="stop-color:#ffffff;stop-opacity:1;"
         offset="0"
         id="stop4211" />
      <stop
         style="stop-color:#ffffff;stop-opacity:0;"
         offset="1"
         id="stop4213" />
    </linearGradient>
    <linearGradient
       id="linearGradient4163">
      <stop
         style="stop-color:#ff7004;stop-opacity:1;"
         offset="0"
         id="stop4165" />
      <stop
         style="stop-color:#ba4704;stop-opacity:1;"
         offset="1"
         id="stop4167" />
    </linearGradient>
    <linearGradient
       id="linearGradient4153">
      <stop
         style="stop-color:#d70016;stop-opacity:1;"
         offset="0"
         id="stop4155" />
      <stop
         style="stop-color:#8d0016;stop-opacity:1;"
         offset="1"
         id="stop4157" />
    </linearGradient>
    <linearGradient
       id="linearGradient4143">
      <stop
         style="stop-color:#d000d0;stop-opacity:1;"
         offset="0"
         id="stop4145" />
      <stop
         style="stop-color:#760076;stop-opacity:1;"
         offset="1"
         id="stop4147" />
    </linearGradient>
    <linearGradient
       id="linearGradient4133">
      <stop
         style="stop-color:#1476e6;stop-opacity:1;"
         offset="0"
         id="stop4135" />
      <stop
         style="stop-color:#143e9a;stop-opacity:1;"
         offset="1"
         id="stop4137" />
    </linearGradient>
    <linearGradient
       id="linearGradient4123">
      <stop
         style="stop-color:#17b414;stop-opacity:1;"
         offset="0"
         id="stop4125" />
      <stop
         style="stop-color:#176314;stop-opacity:1;"
         offset="1"
         id="stop4127" />
    </linearGradient>
    <linearGradient
       id="linearGradient4105">
      <stop
         style="stop-color:#f7f10e;stop-opacity:1;"
         offset="0"
         id="stop4107" />
      <stop
         style="stop-color:#c58907;stop-opacity:1;"
         offset="1"
         id="stop4109" />
    </linearGradient>
    <filter
       inkscape:collect="always"
       id="filter3873"
       color-interpolation-filters="sRGB">
      <feGaussianBlur
         inkscape:collect="always"
         stdDeviation="11.391797"
         id="feGaussianBlur3875" />
    </filter>
    <filter
       inkscape:collect="always"
       id="filter3936">
      <feGaussianBlur
         inkscape:collect="always"
         stdDeviation="4.8215625"
         id="feGaussianBlur3938" />
    </filter>
    <filter
       inkscape:collect="always"
       id="filter3968">
      <feGaussianBlur
         inkscape:collect="always"
         stdDeviation="4.6120313"
         id="feGaussianBlur3970" />
    </filter>
    <filter
       inkscape:collect="always"
       id="filter3992">
      <feGaussianBlur
         inkscape:collect="always"
         stdDeviation="4.71727"
         id="feGaussianBlur3994" />
    </filter>
    <filter
       inkscape:collect="always"
       id="filter4032">
      <feGaussianBlur
         inkscape:collect="always"
         stdDeviation="5.0653132"
         id="feGaussianBlur4034" />
    </filter>
    <filter
       inkscape:collect="always"
       id="filter4056">
      <feGaussianBlur
         inkscape:collect="always"
         stdDeviation="4.7662508"
         id="feGaussianBlur4058" />
    </filter>
    <filter
       inkscape:collect="always"
       id="filter4092">
      <feGaussianBlur
         inkscape:collect="always"
         stdDeviation="4.7195842"
         id="feGaussianBlur4094" />
    </filter>
    <radialGradient
       inkscape:collect="always"
       xlink:href="#linearGradient4209"
       id="radialGradient4217"
       cx="385.3465"
       cy="495.54282"
       fx="385.3465"
       fy="495.54282"
       r="205.64062"
       gradientTransform="matrix(-1.7174909,-0.22708156,0.17381835,-1.314644,961.04115,1140.4252)"
       gradientUnits="userSpaceOnUse" />
    <filter
       inkscape:collect="always"
       id="filter4226"
       x="-0.3"
       width="1.6"
       y="-0.3"
       height="1.6">
      <feGaussianBlur
         inkscape:collect="always"
         stdDeviation="25.864128"
         id="feGaussianBlur4228" />
    </filter>
    <filter
       inkscape:collect="always"
       id="filter4230"
       x="-0.6"
       width="2.2"
       y="-0.6"
       height="2.2">
      <feGaussianBlur
         inkscape:collect="always"
         stdDeviation="12"
         id="feGaussianBlur4232" />
    </filter>
    <linearGradient
       inkscape:collect="always"
       xlink:href="#linearGradient4163"
       id="linearGradient3885"
       gradientUnits="userSpaceOnUse"
       x1="372.85916"
       y1="593.388"
       x2="318.29666"
       y2="726.388"
       gradientTransform="translate(1.8752155,-533.76621)" />
    <linearGradient
       inkscape:collect="always"
       xlink:href="#linearGradient4153"
       id="linearGradient3888"
       gradientUnits="userSpaceOnUse"
       x1="179.04666"
       y1="580.05994"
       x2="180.17166"
       y2="752.05994"
       gradientTransform="translate(1.8752155,-533.76621)" />
    <linearGradient
       inkscape:collect="always"
       xlink:href="#linearGradient4143"
       id="linearGradient3891"
       gradientUnits="userSpaceOnUse"
       x1="108.79666"
       y1="721.60675"
       x2="54.765411"
       y2="857.60675"
       gradientTransform="translate(1.8752155,-533.76621)" />
    <linearGradient
       inkscape:collect="always"
       xlink:href="#linearGradient4133"
       id="linearGradient3894"
       gradientUnits="userSpaceOnUse"
       x1="186.76541"
       y1="873.54425"
       x2="170.54666"
       y2="997.54425"
       gradientTransform="translate(1.8752155,-533.76621)" />
    <linearGradient
       inkscape:collect="always"
       xlink:href="#linearGradient4123"
       id="linearGradient3897"
       gradientUnits="userSpaceOnUse"
       x1="317.07449"
       y1="815.92249"
       x2="343.89041"
       y2="1000.9225"
       gradientTransform="translate(1.8752155,-533.76621)" />
    <linearGradient
       inkscape:collect="always"
       xlink:href="#linearGradient4105"
       id="linearGradient3900"
       gradientUnits="userSpaceOnUse"
       x1="393.14041"
       y1="738.91925"
       x2="444.45291"
       y2="904.91925"
       gradientTransform="translate(1.8752155,-533.76621)" />
    <linearGradient
       inkscape:collect="always"
       xlink:href="#linearGradient4105"
       id="linearGradient3939"
       gradientUnits="userSpaceOnUse"
       gradientTransform="translate(518.20335,-554.74741)"
       x1="393.14041"
       y1="738.91925"
       x2="444.45291"
       y2="904.91925" />
    <linearGradient
       inkscape:collect="always"
       xlink:href="#linearGradient4123"
       id="linearGradient3941"
       gradientUnits="userSpaceOnUse"
       gradientTransform="translate(518.20335,-554.74741)"
       x1="317.07449"
       y1="815.92249"
       x2="343.89041"
       y2="1000.9225" />
    <linearGradient
       inkscape:collect="always"
       xlink:href="#linearGradient4133"
       id="linearGradient3943"
       gradientUnits="userSpaceOnUse"
       gradientTransform="translate(518.20335,-554.74741)"
       x1="186.76541"
       y1="873.54425"
       x2="170.54666"
       y2="997.54425" />
    <linearGradient
       inkscape:collect="always"
       xlink:href="#linearGradient4143"
       id="linearGradient3945"
       gradientUnits="userSpaceOnUse"
       gradientTransform="translate(518.20335,-554.74741)"
       x1="108.79666"
       y1="721.60675"
       x2="54.765411"
       y2="857.60675" />
    <linearGradient
       inkscape:collect="always"
       xlink:href="#linearGradient4153"
       id="linearGradient3947"
       gradientUnits="userSpaceOnUse"
       gradientTransform="translate(518.20335,-554.74741)"
       x1="179.04666"
       y1="580.05994"
       x2="180.17166"
       y2="752.05994" />
    <linearGradient
       inkscape:collect="always"
       xlink:href="#linearGradient4163"
       id="linearGradient3949"
       gradientUnits="userSpaceOnUse"
       gradientTransform="translate(518.20335,-554.74741)"
       x1="372.85916"
       y1="593.388"
       x2="318.29666"
       y2="726.388" />
  </defs>
  <sodipodi:namedview
     id="base"
     pagecolor="#ffffff"
     bordercolor="#666666"
     borderopacity="1.0"
     inkscape:pageopacity="0.0"
     inkscape:pageshadow="2"
     inkscape:zoom="0.77074639"
     inkscape:cx="323.43526"
     inkscape:cy="172.42246"
     inkscape:document-units="px"
     inkscape:current-layer="layer3"
     showgrid="false"
     inkscape:window-width="1598"
     inkscape:window-height="879"
     inkscape:window-x="0"
     inkscape:window-y="19"
     inkscape:window-maximized="1"
     showguides="false"
     inkscape:guide-bbox="true">
    <inkscape:grid
       type="xygrid"
       id="grid3906"
       empspacing="4"
       visible="true"
       enabled="true"
       snapvisiblegridlinesonly="true" />
    <sodipodi:guide
       orientation="1,0"
       position="256,512"
       id="guide4171" />
    <sodipodi:guide
       orientation="0,1"
       position="0,256"
       id="guide4173" />
  </sodipodi:namedview>
  <metadata
     id="metadata7">
    <rdf:RDF>
      <cc:Work
         rdf:about="">
        <dc:format>image/svg+xml</dc:format>
        <dc:type
           rdf:resource="http://purl.org/dc/dcmitype/StillImage" />
        <dc:title></dc:title>
      </cc:Work>
    </rdf:RDF>
  </metadata>
  <g
     inkscape:groupmode="layer"
     id="layer3"
     inkscape:label="Backdrop"
     style="display:inline">
    <path
       style="display:inline;opacity:0.95;fill:#ffffff;fill-opacity:1;stroke:none"
       d="M 259.45703 20.199219 C 193.29269 21.060703 128.90701 49.881798 84.294922 101.82617 L 82.896484 103.45508 L 84.294922 105.08398 L 93.308594 115.58398 A 215 215 0 0 0 76.324219 137.97461 L 62.166016 120.83008 L 60.318359 123.73047 C 22.279064 183.45526 12.437863 258.70068 36.628906 327.61523 L 37.339844 329.64062 L 39.449219 329.24414 L 51.925781 326.89844 A 215 215 0 0 0 62.855469 352.77539 L 42.023438 356.2793 L 43.611328 359.33008 C 76.314876 422.13548 136.55671 468.28185 208.33398 481.78906 L 210.44336 482.18555 L 211.15625 480.16016 L 215.43945 467.9668 A 215 215 0 0 0 243.26758 471.57812 L 235.85742 491.44922 L 239.29102 491.59961 C 310.03385 494.6802 380.11885 465.58116 427.70508 410.17383 L 429.10352 408.54492 L 427.70508 406.91602 L 418.44922 396.13477 A 215 215 0 0 0 435.4082 373.70117 L 449.83398 391.16992 L 451.68164 388.26953 C 489.72093 328.54474 499.56214 253.29932 475.37109 184.38477 L 474.66016 182.35938 L 472.55078 182.75586 L 457.42383 185.59961 A 215 215 0 0 0 446.44531 159.67969 L 469.97656 155.7207 L 468.38867 152.66992 C 435.68512 89.864538 375.44329 43.718154 303.66602 30.210938 L 301.55664 29.814453 L 300.84375 31.839844 L 295.83398 46.103516 A 215 215 0 0 0 267.88867 42.685547 L 276.14258 20.550781 L 272.70898 20.400391 C 268.28756 20.207853 263.86799 20.141786 259.45703 20.199219 z M 259.52344 25.199219 C 262.68485 25.158039 265.85193 25.253919 269.01953 25.34375 L 194.3457 225.60352 L 89.527344 103.50391 C 133.12662 53.691651 195.46207 26.033579 259.52344 25.199219 z M 304.83008 35.582031 C 372.972 49.068518 430.24087 92.662494 462.26367 151.94727 L 251.49805 187.40625 L 304.83008 35.582031 z M 62.755859 129.39648 L 198.84766 294.19727 L 40.699219 323.92188 C 18.307255 258.16539 27.424579 186.77191 62.755859 129.39648 z M 471.30078 188.07812 C 493.69274 253.83462 484.57542 325.22809 449.24414 382.60352 L 313.15234 217.80273 L 471.30078 188.07812 z M 256 224 A 32 32 0 0 1 288 256 A 32 32 0 0 1 256 288 A 32 32 0 0 1 224 256 A 32 32 0 0 1 256 224 z M 317.6543 286.39648 L 422.47266 408.49609 C 376.72176 460.76656 310.33489 488.56644 242.98047 486.65625 L 317.6543 286.39648 z M 260.50195 324.59375 L 207.16992 476.41797 C 139.028 462.93148 81.759127 419.33751 49.736328 360.05273 L 260.50195 324.59375 z "
       id="path3021" />
  </g>
  <g
     inkscape:groupmode="layer"
     id="layer7"
     inkscape:label="Backdrop Shine"
     style="display:none">
    <path
       style="opacity:0.58928576;fill:url(#radialGradient4217);fill-opacity:1;stroke:none;display:inline"
       d="M 255,42 C 136.25878,42 40,138.25878 40,257 c 0,25.08697 4.289884,49.17838 12.1875,71.5625 C 122.3704,318.91834 200.68367,333.17332 256,256 303.72594,189.41624 387.01333,177.08933 451.28125,169.1875 417.58022,93.90764 342.0506,42 255,42 z"
       id="path4203"
       inkscape:connector-curvature="0" />
  </g>
  <g
     inkscape:label="Blades Shadows"
     inkscape:groupmode="layer"
     id="layer1"
     transform="translate(0,-540.36218)"
     style="display:none">
    <g
       id="g3737"
       transform="translate(-709.12708,129.29952)">
      <path
         id="path3735"
         d="m 963.22148,446.72694 c -69.853,0 -132.4779,30.83086 -175.0625,79.625 l 108.3125,127.6875 72.8125,-207.21875 c -2.016,-0.0517 -4.0341,-0.0937 -6.0625,-0.0937 z"
         style="opacity:0.7;fill:#000000;fill-opacity:1;stroke:none;filter:url(#filter3873)"
         inkscape:connector-curvature="0" />
      <path
         id="path3733"
         d="m 1006.4402,450.75819 -55.46872,157.90625 218.43752,-36.75 c -32.3544,-62.13479 -91.9588,-107.79342 -162.9688,-121.15625 z"
         style="opacity:0.7;fill:#000000;fill-opacity:1;stroke:none;filter:url(#filter3873)"
         inkscape:connector-curvature="0" />
      <path
         id="path3731"
         d="m 765.94018,548.35194 c -22.19716,35.61583 -35.03124,77.66073 -35.03124,122.71875 0,25.29181 4.06058,49.64346 11.53125,72.4375 l 165.43749,-27.8125 -141.9375,-167.34375 z"
         style="opacity:0.7;fill:#000000;fill-opacity:1;stroke:none;filter:url(#filter3873)"
         inkscape:connector-curvature="0" />
      <path
         id="path3729"
         d="m 1175.9402,606.35194 -164.6875,27.71875 141.0625,168.0625 c 22.3348,-35.68919 35.25,-77.85866 35.25,-123.0625 0,-25.40267 -4.0896,-49.83849 -11.625,-72.71875 z"
         style="opacity:0.7;fill:#000000;fill-opacity:1;stroke:none;filter:url(#filter3873)"
         inkscape:connector-curvature="0" />
      <path
         id="path3727"
         d="m 1021.659,693.03944 -0.25,0.6875 0.4687,0.1875 -13.9062,36.625 0.2812,1.8125 -1.0312,0.1875 -64.03132,168.56256 c 3.989,0.2037 7.9916,0.3125 12.0313,0.3125 69.68722,0 132.19432,-30.68816 174.78122,-79.28131 L 1021.659,693.03944 z"
         style="opacity:0.7;fill:#000000;fill-opacity:1;stroke:none;filter:url(#filter3873)"
         inkscape:connector-curvature="0" />
      <path
         id="path3714-9"
         d="m 971.65898,739.50819 -216.7813,36.4375 c 31.4241,60.56799 88.738,105.54541 157.2813,120.28131 l 59.5,-156.71881 z"
         style="opacity:0.7;fill:#000000;fill-opacity:1;stroke:none;filter:url(#filter3873)"
         inkscape:connector-curvature="0" />
    </g>
  </g>
  <g
     inkscape:groupmode="layer"
     id="layer9"
     inkscape:label="Blades Shadows New"
     style="display:inline" />
  <g
     inkscape:groupmode="layer"
     id="layer5"
     inkscape:label="Blades"
     style="display:none">
    <path
       inkscape:connector-curvature="0"
       id="path4103"
       d="m 472.70313,188.26245 -164.6875,27.71875 141.0625,168.0625 c 22.3348,-35.68919 35.25,-77.85866 35.25,-123.0625 0,-25.40267 -4.0896,-49.83849 -11.625,-72.71875 z"
       style="fill:url(#linearGradient3900);fill-opacity:1;fill-rule:nonzero;stroke:none;display:inline;filter:url(#filter3915)" />
    <path
       sodipodi:nodetypes="ccccscscc"
       inkscape:connector-curvature="0"
       id="path4121"
       d="m 318.42188,274.94995 -0.25,0.6875 0.46875,0.1875 -13.90625,36.625 c -6.27935,17.39953 14.75924,-37.8342 14.25,-36.5 l -79.03125,207.06244 c -0.19468,0.5101 7.99158,0.3125 12.03125,0.3125 69.6872,0 132.19435,-30.68804 174.78125,-79.28119 z"
       style="fill:url(#linearGradient3897);fill-opacity:1;fill-rule:nonzero;stroke:none;display:inline;filter:url(#filter3927)" />
    <path
       inkscape:connector-curvature="0"
       id="path4131"
       d="M 268.42188,321.4187 51.640625,357.8562 c 31.424104,60.56799 88.737945,105.54537 157.281255,120.28119 l 59.5,-156.71869 z"
       style="fill:url(#linearGradient3894);fill-opacity:1;fill-rule:nonzero;stroke:none;display:inline;filter:url(#filter3865)" />
    <path
       inkscape:connector-curvature="0"
       id="path4141"
       d="m 62.703125,130.26245 c -22.197173,35.61583 -35.031251,77.66073 -35.031251,122.71875 0,25.29181 4.060577,49.64346 11.531251,72.4375 L 204.64063,297.6062 62.703125,130.26245 z"
       style="fill:url(#linearGradient3891);fill-opacity:1;fill-rule:nonzero;stroke:none;display:inline;filter:url(#filter3878)" />
    <path
       inkscape:connector-curvature="0"
       id="path4151"
       d="m 259.98438,28.63745 c -69.85301,0 -132.47785,30.83086 -175.062501,79.625 L 193.23438,235.94995 266.04688,28.7312 c -2.01599,-0.0517 -4.03403,-0.0937 -6.0625,-0.0937 z"
       style="fill:url(#linearGradient3888);fill-opacity:1;fill-rule:nonzero;stroke:none;display:inline;filter:url(#filter3891)" />
    <path
       inkscape:connector-curvature="0"
       id="path4161"
       d="m 303.20313,32.6687 -55.46875,157.90625 218.4375,-36.75 C 433.81752,91.69016 374.21313,46.03153 303.20313,32.6687 z"
       style="fill:url(#linearGradient3885);fill-opacity:1;fill-rule:nonzero;stroke:none;display:inline;filter:url(#filter3903)" />
    <path
       style="fill:url(#linearGradient3939);fill-opacity:1;fill-rule:nonzero;stroke:none;display:inline;filter:url(#filter3915)"
       d="M 989.03126,167.28125 824.34376,195 965.40626,363.0625 c 22.3348,-35.68919 35.25004,-77.85866 35.25004,-123.0625 0,-25.40267 -4.08964,-49.83849 -11.62504,-72.71875 z"
       id="path3927"
       inkscape:connector-curvature="0" />
    <path
       style="fill:url(#linearGradient3941);fill-opacity:1;fill-rule:nonzero;stroke:none;display:inline;filter:url(#filter3927)"
       d="m 834.75001,253.96875 -0.25,0.6875 0.46875,0.1875 -13.90625,36.625 c -6.27935,17.39953 14.75924,-37.8342 14.25,-36.5 l -79.03125,207.06244 c -0.19468,0.5101 7.99158,0.3125 12.03125,0.3125 69.6872,0 132.19435,-30.68804 174.78125,-79.28119 z"
       id="path3929"
       inkscape:connector-curvature="0"
       sodipodi:nodetypes="ccccscscc" />
    <path
       style="fill:url(#linearGradient3943);fill-opacity:1;fill-rule:nonzero;stroke:none;display:inline;filter:url(#filter3865)"
       d="M 784.75001,300.4375 567.96876,336.875 c 31.4241,60.56799 88.73794,105.54537 157.28125,120.28119 l 59.5,-156.71869 z"
       id="path3931"
       inkscape:connector-curvature="0" />
    <path
       style="fill:url(#linearGradient3945);fill-opacity:1;fill-rule:nonzero;stroke:none;display:inline;filter:url(#filter3878)"
       d="M 579.03126,109.28125 C 556.83408,144.89708 544,186.94198 544,232 c 0,25.29181 4.06058,49.64346 11.53126,72.4375 L 720.96876,276.625 579.03126,109.28125 z"
       id="path3933"
       inkscape:connector-curvature="0" />
    <path
       style="fill:url(#linearGradient3947);fill-opacity:1;fill-rule:nonzero;stroke:none;display:inline;filter:url(#filter3891)"
       d="m 776.31251,7.65625 c -69.85301,0 -132.47785,30.83086 -175.0625,79.625 L 709.56251,214.96875 782.37501,7.75 c -2.01599,-0.0517 -4.03403,-0.0937 -6.0625,-0.0937 z"
       id="path3935"
       inkscape:connector-curvature="0" />
    <path
       style="fill:url(#linearGradient3949);fill-opacity:1;fill-rule:nonzero;stroke:none;display:inline;filter:url(#filter3903)"
       d="m 819.53126,11.6875 -55.46875,157.90625 218.43755,-36.75 C 950.14566,70.70896 890.54126,25.05033 819.53126,11.6875 z"
       id="path3937"
       inkscape:connector-curvature="0" />
  </g>
  <g
     inkscape:groupmode="layer"
     id="layer2"
     inkscape:label="Blades New"
     style="display:inline" />
  <g
     inkscape:groupmode="layer"
     id="layer4"
     inkscape:label="Blades Blur"
     style="opacity:0.5;display:none">
    <path
       transform="translate(0,-540.36218)"
       style="opacity:0.15;fill:#ffffff;fill-opacity:1;fill-rule:nonzero;stroke:none;filter:url(#filter3968)"
       d="m 241.71875,576.96875 c -52.52125,3.75711 -103.53072,27.61218 -140,65.46875 28.19792,33.23958 56.39583,66.47917 84.59375,99.71875 19.0376,-55.18211 39.26783,-109.92889 57.5625,-165.3125 -0.71875,0.0417 -1.4375,0.0833 -2.15625,0.125 z"
       id="path3804"
       inkscape:connector-curvature="0" />
    <path
       transform="translate(0,-540.36218)"
       style="opacity:0.15;fill:#ffffff;fill-opacity:1;fill-rule:nonzero;stroke:none;filter:url(#filter3936)"
       d="M 260.84375,711.6875 C 323.42534,701.10489 386.12162,690.78497 448.625,680 417.94636,628.8856 365.85318,590.96186 307.75,578.03125 292.11458,622.58333 276.47917,667.13542 260.84375,711.6875 z"
       id="path3820"
       inkscape:connector-curvature="0" />
    <path
       transform="translate(0,-540.36218)"
       style="opacity:0.25;fill:#ffffff;fill-opacity:1;fill-rule:nonzero;stroke:none;filter:url(#filter3992)"
       d="m 325.03125,756.6875 c 40.2416,47.92028 80.24387,96.04285 120.8125,143.6875 27.54874,-50.45306 33.91929,-111.9497 18,-167.09375 -46.27083,7.80208 -92.54167,15.60417 -138.8125,23.40625 z"
       id="path3832"
       inkscape:connector-curvature="0" />
    <path
       transform="translate(0,-540.36218)"
       style="opacity:0.15;fill:#ffffff;fill-opacity:1;fill-rule:nonzero;stroke:none;filter:url(#filter4032)"
       d="m 319.75,829.90625 c -21.90667,59.29712 -44.86143,118.21427 -67.3125,177.31255 59.62754,-0.5724 118.60085,-26.21162 159.15625,-69.7188 -30.45833,-36.27083 -60.91667,-72.54167 -91.375,-108.8125 l -0.35898,0.93335 -0.10977,0.2854 z"
       id="path3844"
       inkscape:connector-curvature="0" />
    <path
       transform="translate(0,-540.36218)"
       style="opacity:0.15;fill:#ffffff;fill-opacity:1;fill-rule:nonzero;stroke:none;filter:url(#filter4056)"
       d="m 65.375,899.125 c 29.625481,49.62579 79.45041,86.81104 135.375,101.0938 C 217.46875,956.14583 234.1875,912.07292 250.90625,868 189.0625,878.375 127.21875,888.75 65.375,899.125 z"
       id="path3856"
       inkscape:connector-curvature="0" />
    <path
       transform="translate(0,-540.36218)"
       style="opacity:0.25;fill:#ffffff;fill-opacity:1;fill-rule:nonzero;stroke:none;filter:url(#filter4092)"
       d="M 61.71875,682.40625 C 34.783622,732.5226 28.680134,793.27881 44.28125,847.90625 90.802083,840.10417 137.32292,832.30208 183.84375,824.5 143.33333,776.76042 102.82292,729.02083 62.3125,681.28125 l -0.466759,0.88438 -0.126991,0.24062 z"
       id="path3880"
       inkscape:connector-curvature="0" />
  </g>
  <g
     inkscape:groupmode="layer"
     id="layer6"
     inkscape:label="Blades Blur New"
     style="display:inline;opacity:0.5" />
  <g
     inkscape:groupmode="layer"
     id="layer8"
     inkscape:label="Center Shine"
     style="display:none">
    <path
       sodipodi:type="arc"
       style="opacity:0.58928576;fill:#ffffff;fill-opacity:1;stroke:none;filter:url(#filter4226)"
       id="path4222"
       sodipodi:cx="256"
       sodipodi:cy="256"
       sodipodi:rx="103.45651"
       sodipodi:ry="103.45651"
       d="m 359.45651,256 a 103.45651,103.45651 0 1 1 -0.19818,-6.40055"
       sodipodi:start="0"
       sodipodi:end="6.2212787"
       sodipodi:open="true" />
    <path
       sodipodi:type="arc"
       style="opacity:0.58928576;fill:#ffffff;fill-opacity:1;stroke:none;filter:url(#filter4230)"
       id="path4220"
       sodipodi:cx="256"
       sodipodi:cy="256"
       sodipodi:rx="24"
       sodipodi:ry="24"
       d="m 280,256 a 24,24 0 1 1 -0.046,-1.48481"
       sodipodi:start="0"
       sodipodi:end="6.2212787"
       sodipodi:open="true" />
    <path
       sodipodi:open="true"
       sodipodi:end="6.2212787"
       sodipodi:start="0"
       d="m 280,256 a 24,24 0 1 1 -0.046,-1.48481"
       sodipodi:ry="24"
       sodipodi:rx="24"
       sodipodi:cy="256"
       sodipodi:cx="256"
       id="path4234"
       style="opacity:0.58928576;fill:#ffffff;fill-opacity:1;stroke:none;filter:url(#filter4230)"
       sodipodi:type="arc" />
  </g>
</svg>
