<?xml version="1.0" encoding="UTF-8" standalone="no"?>
<svg
   xmlns:sketch="http://www.bohemiancoding.com/sketch/ns"
   xmlns:dc="http://purl.org/dc/elements/1.1/"
   xmlns:cc="http://creativecommons.org/ns#"
   xmlns:rdf="http://www.w3.org/1999/02/22-rdf-syntax-ns#"
   xmlns:svg="http://www.w3.org/2000/svg"
   xmlns="http://www.w3.org/2000/svg"
   xmlns:sodipodi="http://sodipodi.sourceforge.net/DTD/sodipodi-0.dtd"
   xmlns:inkscape="http://www.inkscape.org/namespaces/inkscape"
   width="104"
   height="104"
   viewBox="0 0 104 104"
   version="1.1"
   id="svg4983"
   inkscape:version="0.91pre1 r13432"
   sodipodi:docname="django.svg">
  <metadata
     id="metadata4994">
    <rdf:RDF>
      <cc:Work
         rdf:about="">
        <dc:format>image/svg+xml</dc:format>
        <dc:type
           rdf:resource="http://purl.org/dc/dcmitype/StillImage" />
        <dc:title>logo-django</dc:title>
      </cc:Work>
    </rdf:RDF>
  </metadata>
  <sodipodi:namedview
     pagecolor="#ffffff"
     bordercolor="#666666"
     borderopacity="1"
     objecttolerance="10"
     gridtolerance="10"
     guidetolerance="10"
     inkscape:pageopacity="0"
     inkscape:pageshadow="2"
     inkscape:window-width="1598"
     inkscape:window-height="879"
     id="namedview4992"
     showgrid="false"
     borderlayer="true"
     inkscape:zoom="3.5822942"
     inkscape:cx="48.048268"
     inkscape:cy="-2.6200593"
     inkscape:window-x="0"
     inkscape:window-y="19"
     inkscape:window-maximized="0"
     inkscape:current-layer="svg4983" />
  <title
     id="title4985">logo-django</title>
  <description>Created with Sketch (http://www.bohemiancoding.com/sketch)</description>
  <defs
     id="defs4987" />
  <g
     id="Page-1"
     sketch:type="MSPage"
     transform="matrix(0.97793039,0,0,0.97793039,1.1476197,34.397253)"
     style="fill:none;fill-rule:evenodd;stroke:none;stroke-width:1">
    <g
       id="logo-django"
       sketch:type="MSArtboardGroup"
       transform="translate(-8,-5)"
       style="fill:#ffffff">
      <path
         d="m 20.260282,5 5.690704,0 0,26.082425 c -2.91493,0.551379 -5.060845,0.768303 -7.382535,0.768303 C 11.618028,31.843474 8,28.738337 8,22.774732 c 0,-5.745954 3.837747,-9.47502 9.784789,-9.47502 0.922817,0 1.625915,0.07255 2.475493,0.290199 l 0,-8.589911 0,0 z m 0,13.124282 c -0.666479,-0.21765 -1.215775,-0.2902 -1.918874,-0.2902 -2.878309,0 -4.540845,1.755709 -4.540845,4.832551 0,2.995587 1.589296,4.649725 4.504226,4.649725 0.629859,0 1.142535,-0.03555 1.955493,-0.144374 l 0,-9.047702 0,0 z m 14.735774,-4.425546 0,13.058987 c 0,4.497371 -0.336901,6.660084 -1.325634,8.524617 -0.922816,1.792709 -2.138591,2.923037 -4.650704,4.171621 l -5.280563,-2.488462 c 2.512113,-1.167329 3.727887,-2.198989 4.504225,-3.773322 0.812958,-1.609883 1.069296,-3.474416 1.069296,-8.378792 l 0,-11.114649 5.68338,0 z m -5.68338,-8.669716 5.690704,0 0,5.782229 -5.690704,0 0,-5.782229 z m 9.117577,9.95385 c 2.512846,-1.168054 4.915099,-1.683158 7.537071,-1.683158 2.922254,0 4.840394,0.769029 5.690704,2.270813 0.476056,0.841579 0.629859,1.937083 0.629859,4.280445 l 0,11.448379 c -2.548,0.36275 -5.763943,0.623204 -8.122986,0.623204 -4.767887,0 -6.906478,-1.646883 -6.906478,-5.302674 0,-3.953971 2.842422,-5.78223 9.821408,-6.363355 l 0,-1.240603 c 0,-1.022954 -0.52,-1.392959 -1.955493,-1.392959 -2.101972,0 -4.467606,0.587654 -6.68676,1.719433 l -0.0073,-4.359525 z m 8.905916,8.959191 c -3.764507,0.362749 -4.987606,0.951129 -4.987606,2.415912 0,1.096955 0.703099,1.611334 2.255775,1.611334 0.849577,0 1.625916,-0.07255 2.731099,-0.253924 l 0,-3.773322 7.32e-4,0 z m 7.720169,-9.36547 c 3.36169,-0.877855 6.129408,-1.276879 8.934479,-1.276879 2.91493,0 5.024958,0.660204 6.27662,1.937083 1.178422,1.204329 1.553408,2.524737 1.553408,5.339675 l 0,11.049354 -5.691437,0 0,-10.82445 c 0,-2.161987 -0.739718,-2.967292 -2.767718,-2.967292 -0.77707,0 -1.479437,0.07255 -2.621972,0.40628 l 0,13.386187 -5.68338,0 0,-17.049958 z m 18.976338,20.124624 c 1.99138,1.022954 3.984225,1.495254 6.093521,1.495254 3.727887,0 5.317183,-1.501783 5.317183,-5.08575 l 0,-0.108825 c -1.105915,0.544125 -2.219887,0.769755 -3.692,0.769755 -4.986873,0 -8.158141,-3.257492 -8.158141,-8.415792 0,-6.406158 4.694648,-10.0264 13,-10.0264 2.438874,0 4.694648,0.253925 7.425747,0.805305 l -1.948169,4.062795 c -1.514592,-0.290199 -0.124507,-0.04353 -1.26631,-0.152354 l 0,0.587654 0.07324,2.379638 0.03589,3.076117 c 0.03735,0.769754 0.03735,1.537333 0.0747,2.307087 l 0,1.537333 c 0,4.831826 -0.410873,7.096109 -1.626648,8.967897 C 87.589296,39.642591 84.521296,41 80.162085,41 77.943662,41 76.024056,40.6728 74.032676,39.903045 l 0,-5.20183 0,0 z m 11.300845,-16.830858 -0.183098,0 -0.410874,0 c -1.105915,-0.03627 -2.401521,0.253925 -3.28845,0.805304 -1.361521,0.76903 -2.063888,2.161988 -2.063888,4.135346 0,2.814212 1.406197,4.425546 3.91831,4.425546 0.775606,0 1.406197,-0.144374 2.138592,-0.36275 l 0,-0.407005 0,-1.537333 c 0,-0.660204 -0.03735,-1.392958 -0.03735,-2.161988 l -0.03589,-2.597287 -0.03735,-1.864533 0,-0.4353 z m 17.511549,-4.643195 c 5.68338,0 9.15493,3.547691 9.15493,9.293646 0,5.891054 -3.6173,9.58312 -9.3827,9.58312 -5.690709,0 -9.19961,-3.546966 -9.19961,-9.25592 0.0095,-5.928055 3.626817,-9.620846 9.42738,-9.620846 z m -0.11718,14.33514 c 2.18253,0 3.47155,-1.791258 3.47155,-4.903649 0,-3.076117 -1.25313,-4.904376 -3.4342,-4.904376 -2.25577,0 -3.546254,1.791984 -3.546254,4.904376 0,3.112391 1.297074,4.903649 3.508904,4.903649 l 0,0 z m 0,0"
         id="Shape"
         sketch:type="MSShapeGroup"
         inkscape:connector-curvature="0" />
    </g>
  </g>
</svg>
