<?xml version="1.0" encoding="UTF-8" standalone="no"?>
<!-- Created with Inkscape (http://www.inkscape.org/) -->

<svg
   xmlns:dc="http://purl.org/dc/elements/1.1/"
   xmlns:cc="http://creativecommons.org/ns#"
   xmlns:rdf="http://www.w3.org/1999/02/22-rdf-syntax-ns#"
   xmlns:svg="http://www.w3.org/2000/svg"
   xmlns="http://www.w3.org/2000/svg"
   xmlns:sodipodi="http://sodipodi.sourceforge.net/DTD/sodipodi-0.dtd"
   xmlns:inkscape="http://www.inkscape.org/namespaces/inkscape"
   width="30"
   height="30"
   id="svg2"
   sodipodi:version="0.32"
   inkscape:version="0.91pre1 r13432"
   sodipodi:docname="gimp.svg"
   inkscape:output_extension="org.inkscape.output.svg.inkscape"
   version="1.1">
  <defs
     id="defs4">
    <clipPath
       clipPathUnits="userSpaceOnUse"
       id="clipPath17670-8">
      <path
         inkscape:connector-curvature="0"
         d="m 0,288.75 201.25,0 L 201.25,0 0,0 0,288.75 z"
         id="path17672-4" />
    </clipPath>
    <clipPath
       clipPathUnits="userSpaceOnUse"
       id="clipPath18098-9">
      <path
         inkscape:connector-curvature="0"
         d="m 0,288.75 201.25,0 L 201.25,0 0,0 0,288.75 z"
         id="path18100-2" />
    </clipPath>
    <clipPath
       clipPathUnits="userSpaceOnUse"
       id="clipPath17356-3">
      <path
         inkscape:connector-curvature="0"
         d="m 0,288.75 201.25,0 L 201.25,0 0,0 0,288.75 z"
         id="path17358-6" />
    </clipPath>
    <clipPath
       clipPathUnits="userSpaceOnUse"
       id="clipPath18256-8">
      <path
         inkscape:connector-curvature="0"
         d="m 0,288.75 201.25,0 L 201.25,0 0,0 0,288.75 z"
         id="path18258-5" />
    </clipPath>
    <clipPath
       clipPathUnits="userSpaceOnUse"
       id="clipPath17038-7">
      <path
         inkscape:connector-curvature="0"
         d="m 0,288.75 201.25,0 L 201.25,0 0,0 0,288.75 z"
         id="path17040-4" />
    </clipPath>
  </defs>
  <sodipodi:namedview
     id="base"
     pagecolor="#ffffff"
     bordercolor="#666666"
     borderopacity="1.0"
     inkscape:pageopacity="0.0"
     inkscape:pageshadow="2"
     inkscape:zoom="9.860825"
     inkscape:cx="-4.0221329"
     inkscape:cy="2.4702296"
     inkscape:document-units="px"
     inkscape:current-layer="layer1"
     inkscape:window-width="1598"
     inkscape:window-height="879"
     inkscape:window-x="0"
     inkscape:window-y="19"
     showgrid="false"
     inkscape:window-maximized="0" />
  <metadata
     id="metadata7">
    <rdf:RDF>
      <cc:Work
         rdf:about="">
        <dc:format>image/svg+xml</dc:format>
        <dc:type
           rdf:resource="http://purl.org/dc/dcmitype/StillImage" />
        <dc:title></dc:title>
      </cc:Work>
    </rdf:RDF>
  </metadata>
  <g
     inkscape:label="Capa 1"
     inkscape:groupmode="layer"
     id="layer1"
     transform="translate(0,-1022.3622)">
    <path
       sodipodi:type="arc"
       style="color:#000000;fill:#1a1a1a;stroke:#d4d4d4;stroke-width:1.02777779;stroke-opacity:1;marker:none;visibility:visible;display:inline;overflow:visible;enable-background:accumulate"
       id="path16617-6-6"
       sodipodi:cx="15.16226"
       sodipodi:cy="16.56851"
       sodipodi:rx="14.008413"
       sodipodi:ry="14.008413"
       d="M 29.170673,16.56851 A 14.008413,14.008413 0 0 1 15.16226,30.576923 14.008413,14.008413 0 0 1 1.1538467,16.56851 14.008413,14.008413 0 0 1 15.16226,2.5600967 14.008413,14.008413 0 0 1 29.170673,16.56851 Z"
       transform="matrix(0.97297297,0,0,0.97297297,330.50795,953.63241)" />
    <path
       style="fill:#1a1a1a;stroke:#d4d4d4;stroke-width:1px;stroke-linecap:butt;stroke-linejoin:miter;stroke-opacity:1"
       d="m 345.29648,957.89011 0,11.863 0,0"
       id="path16623-6-2"
       inkscape:connector-curvature="0"
       inkscape:transform-center-y="-5.9314904" />
    <path
       style="fill:#1a1a1a;stroke:#d4d4d4;stroke-width:1px;stroke-linecap:butt;stroke-linejoin:miter;stroke-opacity:1"
       d="m 357.15947,969.75311 -1.70877,0 0,0"
       id="path16623-4-2-0"
       inkscape:connector-curvature="0"
       inkscape:transform-center-x="-0.854382" />
    <path
       style="fill:#1a1a1a;stroke:#d4d4d4;stroke-width:0.99999994px;stroke-linecap:butt;stroke-linejoin:miter;stroke-opacity:1"
       d="m 345.29648,981.61611 0,-2.0181 0,0"
       id="path16623-4-3-9-0"
       inkscape:connector-curvature="0"
       inkscape:transform-center-y="1.0091015" />
    <path
       style="fill:#1a1a1a;stroke:#d4d4d4;stroke-width:1px;stroke-linecap:butt;stroke-linejoin:miter;stroke-opacity:1"
       d="m 333.43348,969.75311 11.863,0 0,0"
       id="path16623-4-3-4-1-0"
       inkscape:connector-curvature="0"
       inkscape:transform-center-x="5.9315" />
    <path
       inkscape:connector-curvature="0"
       sodipodi:nodetypes="cccccccccccccc"
       id="path9518-0-7"
       d="m 14.999994,1025.9915 -11.2422196,9.9235 2.2484301,0 0,12.8177 6.7453475,0 0,-7.5644 4.651059,0 1.3e-5,7.5644 6.591159,0 0,-12.8177 2.248444,0 -11.242237,-9.9235 0,0 0,0 z"
       style="font-size:12px;fill:none;stroke:none" />
    <g
       transform="matrix(1.1002444,0,0,1.1002444,-449.19385,669.71535)"
       id="g11391"
       style="fill:#ffffff">
      <path
         id="path4323-9"
         d="m 429.8127,324.3966 c -0.0339,-0.0113 -0.0714,-1.1e-4 -0.1084,0.0181 -0.0887,0.0436 -0.19435,0.18557 -0.27099,0.41552 -0.17847,0.53536 -1.2907,3.84056 -6.99169,4.80565 -0.46496,-0.32733 -1.01297,-0.54199 -1.58984,-0.54199 -0.70925,0 -1.37985,0.30501 -1.89696,0.77686 -3.38562,-0.29618 -4.84179,-3.30615 -4.84179,-3.30615 l -0.0903,3.90234 a 2.350572,2.350572 0 0 0 -0.36133,1.26464 2.350572,2.350572 0 0 0 0.1626,0.88525 c -0.37372,0.66199 -1.19556,1.39246 -2.98095,1.91504 0.50071,2.74519 10.07816,8.27407 15.59127,4.44432 0.80579,0.44533 1.68957,0.86391 2.51122,1.13818 1.7e-4,0.054 0.004,0.0975 0.0181,0.14453 l 0.19873,-0.0723 c 0.0352,0.0107 0.0735,0.0261 0.1084,0.0361 l 0.0542,0.0723 1.84277,0.66845 c -0.0695,0.64097 0.28258,1.37354 1.08398,1.68017 1.45377,0.55627 2.80028,1.26465 2.80028,1.26465 -0.69346,-2.35395 -0.93383,-4.23126 -2.74608,-4.06493 -0.32454,0.0298 -0.58924,0.15816 -0.77686,0.34326 l -1.28271,-0.81299 a 0.41021922,0.41021922 0 0 0 -0.32519,-0.21679 l -0.0361,-0.0181 -0.14453,-0.0181 c -0.013,-0.009 -0.0229,-0.0268 -0.0361,-0.0361 l -0.0723,-0.19873 c -0.033,0.0207 -0.0732,0.0592 -0.1084,0.0903 -0.57025,-0.38198 -1.22057,-0.73994 -1.89697,-1.04785 2.01897,-2.24011 3.14808,-6.29733 2.40283,-13.06198 -0.0339,-0.26557 -0.11514,-0.43591 -0.2168,-0.46972 z"
         style="color:#000000;display:inline;overflow:visible;visibility:visible;fill:#ffffff;fill-opacity:1;fill-rule:evenodd;stroke:none;stroke-width:0.40000001;marker:none"
         inkscape:connector-curvature="0" />
      <path
         id="path5198-4"
         style="color:#000000;display:inline;overflow:visible;visibility:visible;fill:#ffffff;fill-opacity:1;fill-rule:evenodd;marker:none"
         d="m 413.67105,332.61029 a 3.5258587,2.5038707 54.192151 1 1 -4.06119,2.92987 3.5258587,2.5038707 54.192151 0 1 4.06119,-2.92987 z"
         inkscape:connector-curvature="0" />
    </g>
  </g>
</svg>
