<?xml version="1.0" encoding="UTF-8" standalone="no"?>
<!-- Generator: Adobe Illustrator 17.1.0, SVG Export Plug-In . SVG Version: 6.00 Build 0)  -->

<svg
   xmlns:dc="http://purl.org/dc/elements/1.1/"
   xmlns:cc="http://creativecommons.org/ns#"
   xmlns:rdf="http://www.w3.org/1999/02/22-rdf-syntax-ns#"
   xmlns:svg="http://www.w3.org/2000/svg"
   xmlns="http://www.w3.org/2000/svg"
   xmlns:sodipodi="http://sodipodi.sourceforge.net/DTD/sodipodi-0.dtd"
   xmlns:inkscape="http://www.inkscape.org/namespaces/inkscape"
   version="1.1"
   id="Layer_1"
   x="0px"
   y="0px"
   viewBox="0 0 300.00001 300"
   enable-background="new 0 0 547.8 410.6"
   xml:space="preserve"
   inkscape:version="0.91pre1 r13432"
   sodipodi:docname="sass.svg"
   width="300"
   height="300"><metadata
     id="metadata6864"><rdf:RDF><cc:Work
         rdf:about=""><dc:format>image/svg+xml</dc:format><dc:type
           rdf:resource="http://purl.org/dc/dcmitype/StillImage" /><dc:title></dc:title></cc:Work></rdf:RDF></metadata><defs
     id="defs6862" /><sodipodi:namedview
     pagecolor="#ffffff"
     bordercolor="#666666"
     borderopacity="1"
     objecttolerance="10"
     gridtolerance="10"
     guidetolerance="10"
     inkscape:pageopacity="0"
     inkscape:pageshadow="2"
     inkscape:window-width="1598"
     inkscape:window-height="879"
     id="namedview6860"
     showgrid="false"
     inkscape:zoom="0.55565616"
     inkscape:cx="190.13859"
     inkscape:cy="113.12745"
     inkscape:window-x="0"
     inkscape:window-y="19"
     inkscape:window-maximized="0"
     inkscape:current-layer="Layer_1" /><path
     d="m 257.60137,166.73008 c -10.3963,0.0544 -19.43182,2.55826 -26.99771,6.25955 -2.77597,-5.49751 -5.55195,-10.39629 -6.04182,-13.98873 -0.54431,-4.19117 -1.19748,-6.74942 -0.54431,-11.75706 0.65317,-5.00764 3.59243,-12.13809 3.538,-12.68239 -0.0544,-0.54431 -0.65317,-3.10256 -6.64056,-3.15699 -5.9874,-0.0544 -11.15833,1.14304 -11.75707,2.72154 -0.59874,1.57849 -1.74178,5.17093 -2.50382,8.87223 -1.03418,5.44309 -11.97479,24.8749 -18.23434,35.05347 -2.01394,-3.97345 -3.75572,-7.45702 -4.13674,-10.233 -0.54431,-4.19117 -1.19748,-6.74942 -0.54431,-11.75706 0.65317,-5.00764 3.59244,-12.13809 3.53801,-12.68239 -0.0544,-0.54431 -0.65317,-3.10256 -6.64057,-3.15699 -5.98739,-0.0544 -11.15832,1.14304 -11.75706,2.72154 -0.59874,1.57849 -1.25191,5.27979 -2.50382,8.87223 -1.25191,3.59244 -15.78495,36.03323 -19.59511,44.41558 -1.95951,4.30004 -3.64687,7.72918 -4.84435,10.06971 0,0 0,0 0,0 0,0 -0.0544,0.16329 -0.21772,0.43545 -1.03419,2.01394 -1.63293,3.10256 -1.63293,3.10256 0,0 0,0 0,0.0544 -0.81646,1.46963 -1.68736,2.8304 -2.1228,2.8304 -0.32659,0 -0.92533,-3.91902 0.10886,-9.25324 2.17723,-11.26719 7.34816,-28.79393 7.29373,-29.39267 0,-0.32658 0.97976,-3.37471 -3.37471,-4.95321 -4.24561,-1.57849 -5.76967,1.03419 -6.15069,1.03419 -0.38101,0 -0.65317,0.92532 -0.65317,0.92532 0,0 4.73549,-19.70397 -9.03552,-19.70397 -8.60008,0 -20.466,9.41654 -26.344543,17.90776 -3.701299,2.01394 -11.593773,6.31398 -20.030557,10.9406 -3.211421,1.79622 -6.531703,3.59244 -9.634262,5.27979 -0.217724,-0.21772 -0.435447,-0.48988 -0.65317,-0.7076 -16.655844,-17.79889 -47.463711,-30.37242 -46.15737,-54.26757 0.489878,-8.70894 3.483575,-31.569898 59.166345,-59.329638 45.830787,-22.588802 82.299467,-16.329253 88.613447,-2.44938 9.03552,19.81283 -19.54068,56.608088 -66.89553,61.942318 -18.071049,2.01394 -27.542019,-4.95321 -29.936977,-7.56589 -2.503819,-2.72155 -2.884835,-2.88484 -3.81016,-2.34053 -1.524064,0.81646 -0.544309,3.26585 0,4.68105 1.415202,3.7013 7.239305,10.233 17.09129,13.44443 8.708938,2.8304 29.882547,4.40889 55.519487,-5.49752 28.68506,-11.1039 51.11058,-41.966198 44.52444,-67.820848 C 181.01715,39.361873 137.47246,30.707366 96.268291,45.349268 71.774404,54.058206 45.212144,67.774782 26.106912,85.628102 3.4092429,106.85614 -0.18319391,125.3082 1.2864393,133.03738 c 5.2797935,27.43316 43.1092417,45.28648 58.2410207,58.51318 -0.762032,0.43544 -1.469633,0.81646 -2.068373,1.14305 -7.565889,3.75572 -36.414245,18.83307 -43.599119,34.78132 -8.164629,18.07104 1.306341,31.02559 7.56589,32.76737 19.431817,5.38866 39.407943,-4.30003 50.130822,-20.30271 10.72288,-16.00267 9.416539,-36.79526 4.463331,-46.32066 -0.05443,-0.10886 -0.108862,-0.21772 -0.217724,-0.32659 1.959511,-1.14304 3.973453,-2.34052 5.932964,-3.48357 3.864591,-2.2861 7.674752,-4.4089 10.940603,-6.15069 -1.850649,5.06207 -3.211421,11.1039 -3.864591,19.81284 -0.816463,10.233 3.374713,23.51413 8.87223,28.73949 2.449387,2.2861 5.334227,2.34053 7.184877,2.34053 6.42285,0 9.30768,-5.33423 12.5191,-11.64821 3.91902,-7.72918 7.45703,-16.71027 7.45703,-16.71027 0,0 -4.4089,24.27616 7.56589,24.27616 4.35447,0 8.76337,-5.66081 10.72288,-8.54564 0,0.0544 0,0.0544 0,0.0544 0,0 0.10886,-0.16329 0.32658,-0.54431 0.43545,-0.7076 0.70761,-1.14305 0.70761,-1.14305 0,0 0,-0.0544 0,-0.10886 1.74178,-3.04813 5.6608,-9.96085 11.48491,-21.44576 7.51146,-14.80519 14.75076,-33.31169 14.75076,-33.31169 0,0 0.65317,4.51777 2.88484,12.02922 1.30634,4.4089 4.02788,9.25325 6.20511,13.9343 -1.74178,2.44939 -2.8304,3.81016 -2.8304,3.81016 0,0 0,0 0.0544,0.0544 -1.4152,1.85064 -2.93927,3.86459 -4.62662,5.8241 -5.93297,7.07601 -13.00898,15.18621 -13.98873,17.52673 -1.14305,2.77598 -0.8709,4.78992 1.30634,6.42285 1.57849,1.19748 4.4089,1.36077 7.29373,1.19748 5.33423,-0.38102 9.08996,-1.68736 10.9406,-2.50382 2.88484,-1.03419 6.25955,-2.61269 9.41654,-4.95321 5.82411,-4.30004 9.36211,-10.45073 9.03553,-18.56093 -0.1633,-4.46333 -1.63293,-8.92666 -3.42915,-13.11783 0.54431,-0.76204 1.03419,-1.52407 1.5785,-2.2861 9.19881,-13.44442 16.32925,-28.19519 16.32925,-28.19519 0,0 0.65318,4.51777 2.88484,12.02922 1.08862,3.81017 3.32028,7.94691 5.27979,11.97479 -8.6545,7.02159 -13.98873,15.18621 -15.89381,20.52044 -3.42914,9.90642 -0.76203,14.36975 4.30004,15.40393 2.2861,0.48988 5.55195,-0.59874 7.94691,-1.63292 3.04812,-0.97976 6.64056,-2.66712 10.06971,-5.17094 5.8241,-4.30003 11.43048,-10.28743 11.10389,-18.39763 -0.16329,-3.70129 -1.14305,-7.34816 -2.50382,-10.88617 7.34817,-3.04813 16.81914,-4.73548 28.90279,-3.32028 25.90909,3.04813 31.02559,19.21409 30.04583,26.01795 -0.97975,6.80386 -6.42284,10.50516 -8.21906,11.6482 -1.79621,1.14305 -2.39495,1.52407 -2.23166,2.34053 0.21772,1.19748 1.08862,1.14305 2.61268,0.92533 2.1228,-0.38102 13.60771,-5.49752 14.09759,-18.01662 0.81647,-16.00267 -14.42418,-33.47498 -41.36745,-33.31169 z M 57.731242,234.11549 c -8.600076,9.36211 -20.574866,12.90011 -25.745797,9.90642 -5.551948,-3.21142 -3.374714,-17.03686 7.184873,-26.94328 6.422842,-6.04182 14.696333,-11.6482 20.19385,-15.07735 1.251909,-0.76203 3.102559,-1.85065 5.334224,-3.21142 0.381016,-0.21772 0.598739,-0.32658 0.598739,-0.32658 l 0,0 c 0.435447,-0.27216 0.870894,-0.54431 1.306341,-0.81647 3.864591,14.15203 0.163293,26.61669 -8.87223,36.46868 z m 62.595498,-42.56493 c -2.9937,7.29373 -9.25325,25.96352 -13.06341,24.92933 -3.26585,-0.87089 -5.27979,-15.02292 -0.65317,-29.01165 2.34053,-7.02158 7.29374,-15.40393 10.17857,-18.66978 4.68106,-5.22537 9.85199,-6.96715 11.1039,-4.84435 1.57849,2.77597 -5.71524,23.02425 -7.56589,27.59645 z m 51.65488,24.71161 c -1.2519,0.65317 -2.44938,1.08862 -2.99369,0.76203 -0.38102,-0.21772 0.54431,-1.08862 0.54431,-1.08862 0,0 6.47727,-6.96715 9.03552,-10.12414 1.46963,-1.85065 3.21142,-4.02788 5.06207,-6.47727 0,0.21772 0,0.48988 0,0.7076 0,8.32792 -8.05577,13.9343 -11.64821,16.2204 z m 39.84339,-9.08996 c -0.92532,-0.65317 -0.76203,-2.8304 2.34053,-9.63426 1.19748,-2.66711 4.02789,-7.13044 8.87223,-11.43048 0.54431,1.74179 0.92533,3.42915 0.8709,5.00764 -0.0544,10.50516 -7.56589,14.42418 -12.08366,16.0571 z"
     id="path6846"
     inkscape:connector-curvature="0"
     style="fill:#ffffff" /><g
     id="g6848"
     transform="translate(0,-110.60001)" /><g
     id="g6850"
     transform="translate(0,-110.60001)" /><g
     id="g6852"
     transform="translate(0,-110.60001)" /><g
     id="g6854"
     transform="translate(0,-110.60001)" /><g
     id="g6856"
     transform="translate(0,-110.60001)" /><g
     id="g6858"
     transform="translate(0,-110.60001)" /></svg>