<?xml version="1.0" encoding="UTF-8" standalone="no"?>
<!-- Created with Inkscape (http://www.inkscape.org/) -->

<svg
   xmlns:dc="http://purl.org/dc/elements/1.1/"
   xmlns:cc="http://creativecommons.org/ns#"
   xmlns:rdf="http://www.w3.org/1999/02/22-rdf-syntax-ns#"
   xmlns:svg="http://www.w3.org/2000/svg"
   xmlns="http://www.w3.org/2000/svg"
   xmlns:sodipodi="http://sodipodi.sourceforge.net/DTD/sodipodi-0.dtd"
   xmlns:inkscape="http://www.inkscape.org/namespaces/inkscape"
   width="128.44972"
   height="24.073389"
   id="svg2"
   sodipodi:version="0.32"
   inkscape:version="0.91pre1 r13432"
   sodipodi:docname="cc-by-sa.svg"
   inkscape:output_extension="org.inkscape.output.svg.inkscape"
   version="1.1"
   viewBox="0 0 128.44972 24.073389">
  <defs
     id="defs4" />
  <sodipodi:namedview
     id="base"
     pagecolor="#ffffff"
     bordercolor="#666666"
     borderopacity="1.0"
     inkscape:pageopacity="0.0"
     inkscape:pageshadow="2"
     inkscape:zoom="3.7008305"
     inkscape:cx="67.373784"
     inkscape:cy="27.143054"
     inkscape:document-units="px"
     inkscape:current-layer="layer1"
     inkscape:window-width="1598"
     inkscape:window-height="879"
     inkscape:window-x="0"
     inkscape:window-y="19"
     showgrid="false"
     fit-margin-top="0"
     fit-margin-left="0"
     fit-margin-right="0"
     fit-margin-bottom="0"
     inkscape:window-maximized="0" />
  <metadata
     id="metadata7">
    <rdf:RDF>
      <cc:Work
         rdf:about="">
        <dc:format>image/svg+xml</dc:format>
        <dc:type
           rdf:resource="http://purl.org/dc/dcmitype/StillImage" />
        <dc:title></dc:title>
      </cc:Work>
    </rdf:RDF>
  </metadata>
  <g
     inkscape:label="Capa 1"
     inkscape:groupmode="layer"
     id="layer1"
     transform="translate(-457.14733,-483.28504)">
    <path
       style="color:#000000;font-style:normal;font-variant:normal;font-weight:normal;font-stretch:normal;font-size:medium;line-height:normal;font-family:sans-serif;text-indent:0;text-align:start;text-decoration:none;text-decoration-line:none;text-decoration-style:solid;text-decoration-color:#000000;letter-spacing:normal;word-spacing:normal;text-transform:none;direction:ltr;block-progression:tb;writing-mode:lr-tb;baseline-shift:baseline;text-anchor:start;clip-rule:nonzero;display:inline;overflow:visible;visibility:visible;opacity:1;isolation:auto;color-interpolation:sRGB;color-interpolation-filters:linearRGB;fill:#666666;fill-opacity:1;fill-rule:nonzero;stroke:none;stroke-width:0.24186611;stroke-linecap:butt;stroke-linejoin:miter;stroke-miterlimit:4;stroke-dasharray:none;stroke-dashoffset:0;stroke-opacity:1;color-rendering:auto;image-rendering:auto;shape-rendering:auto;text-rendering:auto;enable-background:accumulate"
       d="m 463.55807,484.1724 0,0.74105 0,21.55762 115.62824,0 0,-22.29867 -115.62824,0 z m 2.06109,1.92453 11.64366,0 c -0.99647,0.48231 -1.92018,1.11998 -2.76571,1.92635 -2.15727,2.07371 -3.23911,4.529 -3.23911,7.36309 0,2.83479 1.08184,5.26765 3.23911,7.30665 0.87796,0.83002 1.82599,1.48517 2.84036,1.97733 l -11.71831,0 0,-18.57342 z m 21.57765,0 89.92659,0 0,18.57342 -90.01217,0 c 1.04368,-0.49764 2.02515,-1.15837 2.93322,-2.00282 2.08409,-1.95269 3.1244,-4.37757 3.1244,-7.28116 0,-2.90294 -1.06034,-5.3589 -3.18084,-7.36309 -0.85243,-0.80596 -1.78524,-1.44441 -2.7912,-1.92635 z m -4.96153,0.78474 c 2.48736,0 4.60243,0.82548 6.34893,2.47622 1.74686,1.65104 2.62006,3.66043 2.62006,6.02848 -2e-5,2.38606 -0.85887,4.3657 -2.57818,5.93927 -1.81081,1.69413 -3.93986,2.53994 -6.39081,2.53994 -2.45096,0 -4.56544,-0.83728 -6.33984,-2.51445 -1.77407,-1.67637 -2.66193,-3.66557 -2.66193,-5.96476 0,-2.29984 0.89828,-4.30247 2.69106,-6.01392 1.71894,-1.65942 3.82332,-2.49078 6.31071,-2.49078 z m 42.6819,4.35705 c -1.02819,0 -1.81676,0.21185 -2.36515,0.6409 -0.54838,0.42909 -0.82115,1.04356 -0.82115,1.84077 0,0.63625 0.19406,1.13955 0.58628,1.51486 0.39606,0.37531 1.02051,0.64975 1.87354,0.82116 l 0.85029,0.17661 c 0.51789,0.10759 0.86464,0.2282 1.036,0.36415 0.17519,0.13595 0.26037,0.33079 0.26037,0.58082 0,0.27898 -0.12547,0.49417 -0.38053,0.64454 -0.25517,0.15013 -0.62174,0.22395 -1.10155,0.22395 -0.47219,0 -0.96638,-0.068 -1.47663,-0.20392 -0.50648,-0.13944 -1.03222,-0.34423 -1.57676,-0.61541 l 0,1.74245 c 0.54459,0.18973 1.09225,0.33334 1.63684,0.4297 0.54453,0.0915 1.08337,0.14383 1.62411,0.14383 1.14624,0 1.99851,-0.2137 2.5545,-0.64272 0.55979,-0.43264 0.84118,-1.09073 0.84119,-1.97369 -10e-6,-0.67203 -0.19916,-1.19024 -0.59903,-1.55491 -0.39985,-0.36468 -1.07464,-0.63903 -2.02284,-0.81752 l -0.93587,-0.17661 c -0.44554,-0.0858 -0.75358,-0.18769 -0.92494,-0.30589 -0.16755,-0.12176 -0.2549,-0.28675 -0.2549,-0.5007 0,-0.28608 0.1274,-0.49962 0.37872,-0.63544 0.25131,-0.13595 0.63975,-0.2021 1.16527,-0.2021 0.396,0 0.81623,0.0463 1.26178,0.1493 0.44553,0.0999 0.90261,0.24745 1.37102,0.44426 l 0,-1.69511 c -0.52934,-0.13244 -1.04166,-0.22872 -1.53671,-0.29314 -0.49505,-0.0663 -0.97544,-0.10014 -1.44385,-0.10014 z m -22.60091,0.14383 0,8.004 3.64878,0 c 1.13481,0 1.98212,-0.18741 2.53811,-0.56625 0.55594,-0.37888 0.83389,-0.95574 0.8339,-1.72789 0,-0.50416 -0.12891,-0.92998 -0.38781,-1.27634 -0.259,-0.34695 -0.62572,-0.58476 -1.09791,-0.71373 0.36934,-0.13244 0.6506,-0.3349 0.84482,-0.60631 0.19422,-0.27544 0.29314,-0.60649 0.29314,-0.99595 0,-0.73999 -0.26801,-1.27746 -0.80113,-1.61318 -0.52932,-0.33571 -1.38659,-0.50435 -2.57089,-0.50435 l -3.30101,0 z m 6.82962,0 3.25003,4.63198 0,3.37202 2.19946,0 0,-3.37202 3.24821,-4.63198 -2.41067,0 -1.94092,2.85311 -1.94273,-2.85311 -2.40338,0 z m 23.39111,0 -3.15899,8.004 2.2122,0 0.54076,-1.4566 3.43939,0 0.53712,1.4566 2.21038,0 -3.15717,-8.004 -2.62369,0 z m -53.34783,0.78475 c -0.91307,0 -1.67713,0.29065 -2.28868,0.87031 -0.61159,0.57981 -0.91401,1.36254 -0.91401,2.34876 0,1.00388 0.29468,1.78997 0.88852,2.36151 0.59284,0.57096 1.38327,0.85757 2.36879,0.85757 1.27789,0 2.23435,-0.53678 2.87314,-1.60954 l -1.33825,-0.67549 c -0.27366,0.59996 -0.73073,0.89944 -1.3692,0.89944 -0.96683,0 -1.44931,-0.6159 -1.44931,-1.84623 0,-1.22997 0.48247,-1.84442 1.44931,-1.84442 0.5469,0 0.9587,0.28213 1.23264,0.84665 l 1.44932,-0.70099 c -0.58466,-1.00525 -1.55157,-1.50757 -2.90227,-1.50757 z m 6.33983,0 c -0.92975,0 -1.69678,0.29065 -2.29778,0.87031 -0.60131,0.57981 -0.90127,1.36254 -0.90127,2.34876 0,1.00388 0.29703,1.78997 0.88853,2.36151 0.59248,0.57096 1.38096,0.85757 2.36515,0.85757 1.2755,0 2.23172,-0.53678 2.86949,-1.60954 l -1.37102,-0.67549 c -0.25557,0.59996 -0.7024,0.89944 -1.34189,0.89944 -0.98623,0 -1.47845,-0.6159 -1.47845,-1.84623 0,-1.22997 0.49222,-1.84442 1.47845,-1.84442 0.52993,0 0.93104,0.28213 1.20533,0.84665 l 1.47845,-0.70099 c -0.58267,-1.00525 -1.54667,-1.50757 -2.89499,-1.50757 z m 18.98673,0.61905 1.21444,0 c 0.34652,0 0.60935,0.0756 0.78838,0.22213 0.17897,0.14363 0.27126,0.34944 0.27129,0.62452 0,0.27838 -0.0923,0.49251 -0.27129,0.63544 -0.17897,0.14245 -0.44189,0.2112 -0.78838,0.2112 l -1.21444,0 0,-1.69329 z m 29.33403,0.47157 1.16709,3.18631 -2.33601,0 1.16892,-3.18631 z m -17.19148,2.19036 0,1.56038 3.58687,0 0,-1.56038 -3.58687,0 z m -12.14255,0.43698 1.29091,0 c 0.44559,-5e-5 0.77873,0.0873 0.99959,0.26218 0.22093,0.17139 0.33137,0.43211 0.33137,0.77928 0,0.35406 -0.11406,0.61708 -0.33865,0.79203 -0.22087,0.17553 -0.55055,0.26401 -0.99231,0.26401 l -1.29091,0 0,-2.0975 z"
       id="rect3749"
       inkscape:connector-curvature="0" />
  </g>
</svg>
