<?xml version="1.0" encoding="UTF-8" standalone="no"?>
<!-- Created with Inkscape (http://www.inkscape.org/) -->

<svg
   xmlns:dc="http://purl.org/dc/elements/1.1/"
   xmlns:cc="http://creativecommons.org/ns#"
   xmlns:rdf="http://www.w3.org/1999/02/22-rdf-syntax-ns#"
   xmlns:svg="http://www.w3.org/2000/svg"
   xmlns="http://www.w3.org/2000/svg"
   xmlns:sodipodi="http://sodipodi.sourceforge.net/DTD/sodipodi-0.dtd"
   xmlns:inkscape="http://www.inkscape.org/namespaces/inkscape"
   width="55mm"
   height="55mm"
   viewBox="0 0 194.88188 194.88188"
   id="svg5057"
   version="1.1"
   inkscape:version="0.91 r13725"
   sodipodi:docname="diy.svg">
  <defs
     id="defs5059" />
  <sodipodi:namedview
     id="base"
     pagecolor="#ffffff"
     bordercolor="#666666"
     borderopacity="1.0"
     inkscape:pageopacity="0.0"
     inkscape:pageshadow="2"
     inkscape:zoom="0.95703125"
     inkscape:cx="-102.28917"
     inkscape:cy="-26.155922"
     inkscape:document-units="px"
     inkscape:current-layer="layer1"
     showgrid="false"
     fit-margin-top="0"
     fit-margin-left="0"
     fit-margin-right="0"
     fit-margin-bottom="0"
     inkscape:window-width="1598"
     inkscape:window-height="879"
     inkscape:window-x="0"
     inkscape:window-y="19"
     inkscape:window-maximized="1" />
  <metadata
     id="metadata5062">
    <rdf:RDF>
      <cc:Work
         rdf:about="">
        <dc:format>image/svg+xml</dc:format>
        <dc:type
           rdf:resource="http://purl.org/dc/dcmitype/StillImage" />
        <dc:title></dc:title>
      </cc:Work>
    </rdf:RDF>
  </metadata>
  <g
     inkscape:label="Capa 1"
     inkscape:groupmode="layer"
     id="layer1"
     transform="translate(-185.24018,-311.32441)">
    <g
       id="g77579"
       transform="matrix(1.1382305,0,0,1.1382305,-1797.7712,-1248.5781)">
      <path
         d="m 1810.1838,1505.1229 -20.1813,30.9724 c -0.5038,0.7725 -0.2849,1.8075 0.4875,2.3103 0.2824,0.1842 0.5975,0.2728 0.91,0.2728 0.545,0 1.08,-0.2657 1.4012,-0.7576 l 21.3688,-32.7961 -3.9862,0 z"
         style="fill:#00b200;fill-opacity:1;fill-rule:nonzero;stroke:none"
         id="path21206-2-6-4-8-23"
         inkscape:connector-curvature="0" />
      <path
         d="m 1881.6472,1487.7838 c 0,-1.0464 -0.3189,-2.0187 -0.8626,-2.8251 -0.545,-0.8075 -1.3174,-1.4475 -2.2237,-1.8312 -0.605,-0.2551 -1.27,-0.3976 -1.9675,-0.3976 l -97.5962,0 c -1.0475,0 -2.0188,0.3189 -2.8263,0.8639 -0.2689,0.1807 -0.5188,0.3873 -0.7475,0.6162 -0.4575,0.4574 -0.8275,1.0024 -1.0825,1.6062 -0.2562,0.6052 -0.3975,1.2699 -0.3975,1.9676 l 0,1.0286 c 0,2.239 0.5675,4.3451 1.565,6.1827 2.1975,4.0436 6.4813,6.7886 11.4062,6.7886 l 81.76,0 c 3.5825,0 6.8263,-1.4513 9.1738,-3.7988 2.3462,-2.3474 3.7988,-5.5913 3.7988,-9.1725 l 0,-1.0286 z"
         style="fill:#00b200;fill-opacity:1;fill-rule:nonzero;stroke:none"
         id="path21210-7-4-1-0-5"
         inkscape:connector-curvature="0" />
      <path
         d="m 1845.4068,1505.1229 -3.9863,0 9.4038,14.4326 -21.36,0 0,-14.4326 -3.3388,0 0,14.4326 -13.3387,0 c -0.9225,0 -1.67,0.7487 -1.67,1.67 0,0.9223 0.7475,1.67 1.67,1.67 l 13.3387,0 0,14.1112 c 0,0.9227 0.7475,1.6699 1.67,1.6699 0.9225,0 1.6688,-0.7472 1.6688,-1.6699 l 0,-14.1112 23.5362,0 9.7888,15.0236 c 0.3214,0.49 0.8562,0.7575 1.4012,0.7575 0.3125,0 0.6275,-0.089 0.91,-0.2728 0.7725,-0.5028 0.9913,-1.5378 0.4875,-2.3102 l -20.1812,-30.9724 z"
         style="fill:#00b200;fill-opacity:1;fill-rule:nonzero;stroke:none"
         id="path21214-7-8-9-5-4"
         inkscape:connector-curvature="0" />
      <path
         d="m 1873.0828,1387.3951 -22.3313,0 0,8.8962 c 0,0.9213 -0.7462,1.6689 -1.6687,1.6689 l -42.575,0 c -0.9225,0 -1.6688,-0.7476 -1.6688,-1.6689 l 0,-8.8962 -22.3312,0 c -0.9225,0 -1.6688,0.7477 -1.6688,1.6689 l 0,90.3274 93.9125,0 0,-90.3274 c 0,-0.9212 -0.7462,-1.6689 -1.6687,-1.6689"
         style="fill:#7beb7b;fill-opacity:1;fill-rule:nonzero;stroke:none"
         id="path21218-2-9-3-2-81"
         inkscape:connector-curvature="0" />
      <path
         d="m 1827.7953,1376.8006 c 1.8987,0 3.4425,1.5439 3.4425,3.4427 0,1.8975 -1.5438,3.4423 -3.4425,3.4423 -1.8988,0 -3.4425,-1.5448 -3.4425,-3.4423 0,-1.8988 1.5437,-3.4427 3.4425,-3.4427 m 6.7487,2.8025 c -0.3238,-3.4399 -3.225,-6.1413 -6.7487,-6.1413 -3.5238,0 -6.425,2.7014 -6.7488,6.1413 l -12.8687,0 0,15.019 39.235,0 0,-15.019 -12.8688,0 z"
         style="fill:#00b200;fill-opacity:1;fill-rule:nonzero;stroke:none"
         id="path21222-1-3-8-1-0"
         inkscape:connector-curvature="0" />
    </g>
  </g>
</svg>
