<?xml version="1.0" encoding="UTF-8" standalone="no"?>
<!-- Created with Inkscape (http://www.inkscape.org/) -->

<svg
   xmlns:dc="http://purl.org/dc/elements/1.1/"
   xmlns:cc="http://creativecommons.org/ns#"
   xmlns:rdf="http://www.w3.org/1999/02/22-rdf-syntax-ns#"
   xmlns:svg="http://www.w3.org/2000/svg"
   xmlns="http://www.w3.org/2000/svg"
   xmlns:sodipodi="http://sodipodi.sourceforge.net/DTD/sodipodi-0.dtd"
   xmlns:inkscape="http://www.inkscape.org/namespaces/inkscape"
   width="597.35413"
   height="410.90414"
   id="svg2"
   sodipodi:version="0.32"
   inkscape:version="0.91pre1 r13432"
   sodipodi:docname="experiment.svg"
   inkscape:output_extension="org.inkscape.output.svg.inkscape"
   version="1.1"
   viewBox="0 0 597.35412 410.90415">
  <defs
     id="defs4" />
  <sodipodi:namedview
     id="base"
     pagecolor="#ffffff"
     bordercolor="#666666"
     borderopacity="1.0"
     inkscape:pageopacity="0.0"
     inkscape:pageshadow="2"
     inkscape:zoom="0.95703125"
     inkscape:cx="274.32886"
     inkscape:cy="235.17914"
     inkscape:document-units="px"
     inkscape:current-layer="layer1"
     inkscape:window-width="1598"
     inkscape:window-height="879"
     inkscape:window-x="0"
     inkscape:window-y="19"
     showgrid="false"
     fit-margin-top="0"
     fit-margin-left="0"
     fit-margin-right="0"
     fit-margin-bottom="0"
     inkscape:window-maximized="0" />
  <metadata
     id="metadata7">
    <rdf:RDF>
      <cc:Work
         rdf:about="">
        <dc:format>image/svg+xml</dc:format>
        <dc:type
           rdf:resource="http://purl.org/dc/dcmitype/StillImage" />
        <dc:title></dc:title>
      </cc:Work>
    </rdf:RDF>
  </metadata>
  <g
     inkscape:label="Capa 1"
     inkscape:groupmode="layer"
     id="layer1"
     transform="translate(-51.889675,-299.86549)">
    <g
       id="g8849">
      <path
         id="path6469"
         d="m 200.19012,299.86549 -4.47751,89.55254 c 6.62501,138.41442 379.15586,230.12629 418.63222,-10.09805 l -6.55245,-79.45449 -407.60226,0 z"
         style="fill:#cbd8d5;fill-opacity:1;fill-rule:evenodd;stroke:none;stroke-width:1px;stroke-linecap:butt;stroke-linejoin:miter;stroke-opacity:1"
         inkscape:connector-curvature="0" />
      <path
         id="path6469-8"
         d="m 214.60429,299.86549 -4.22511,84.50594 c 6.16078,128.71557 352.58888,214.00095 389.29909,-9.39063 l -6.19449,-75.11531 -378.87949,0 z"
         style="fill:#f9005c;fill-opacity:1;fill-rule:evenodd;stroke:none;stroke-width:0.92992896px;stroke-linecap:butt;stroke-linejoin:miter;stroke-opacity:1"
         inkscape:connector-curvature="0" />
      <path
         inkscape:connector-curvature="0"
         d="m 237.21521,400.47146 c 5.29341,2.37602 10.45429,5.04821 15.73277,7.47238 8.14956,3.15933 16.37377,6.26757 24.90094,8.26956 7.35895,1.72772 13.45702,2.55639 20.9759,3.76407 20.27051,2.95032 40.75184,3.74428 61.16825,5.06117 1.4462,0.1006 2.89241,0.20121 4.33862,0.30181 3.21391,0.22915 2.88983,4.7743 -0.32407,4.54515 l 0,0 c -1.43764,-0.10502 -2.87528,-0.21004 -4.31291,-0.31506 -20.55243,-1.38055 -41.17301,-2.18245 -61.58237,-5.14836 -7.78748,-1.24585 -13.84167,-2.05878 -21.45999,-3.84706 -8.76552,-2.05755 -17.23163,-5.22951 -25.6049,-8.48935 -5.06995,-2.32431 -10.05739,-4.81559 -15.09159,-7.20661 -3.11671,-0.89049 -1.85737,-5.2982 1.25935,-4.4077 z"
         id="path6609-8"
         style="color:#000000;text-decoration:none;text-decoration-line:none;text-decoration-style:solid;text-decoration-color:#000000;clip-rule:nonzero;display:inline;overflow:visible;visibility:visible;opacity:1;isolation:auto;color-interpolation:sRGB;color-interpolation-filters:linearRGB;fill:#ffffff;fill-opacity:0.60932946;fill-rule:nonzero;stroke:none;stroke-width:0.92400002;stroke-linecap:square;stroke-linejoin:miter;stroke-miterlimit:4;stroke-dasharray:none;stroke-dashoffset:0;stroke-opacity:1;marker:none;color-rendering:auto;image-rendering:auto;shape-rendering:auto;text-rendering:auto;enable-background:accumulate" />
      <path
         id="path6465"
         d="m 102.79042,299.86549 c -7.815817,33.37365 -50.294887,259.39318 -50.294887,259.39318 -17.710458,223.78483 358.960287,171.67626 330.500587,0 l -82.53536,-259.39318 -197.67034,0 z"
         style="fill:#dbe3e2;fill-opacity:0.69387758;fill-rule:evenodd;stroke:none;stroke-width:1px;stroke-linecap:butt;stroke-linejoin:miter;stroke-opacity:1"
         inkscape:connector-curvature="0" />
      <path
         id="path6609-7"
         transform="translate(51.889671,298.02005)"
         d="m 189.85938,1.8457031 c -0.21267,1.0599137 0.27415,2.2596863 1.74414,2.6796875 5.0342,2.39101 10.02184,4.8827113 15.09179,7.2070314 8.37327,3.25983 16.83995,6.432674 25.60547,8.490234 7.61832,1.78827 13.67151,2.599853 21.45899,3.845703 20.40936,2.96591 41.03154,3.767898 61.58398,5.148438 l 4.3125,0.316406 c 3.2139,0.22916 3.53813,-4.317715 0.32422,-4.546875 l -4.33985,-0.300781 C 295.22422,23.368657 274.74317,22.57532 254.47266,19.625 246.95378,18.41731 240.85504,17.587095 233.49609,15.859375 224.96892,13.857385 216.74525,10.749184 208.5957,7.5898438 204.56372,5.7381359 200.59998,3.7442999 196.59375,1.8457031 l -6.73437,0 z"
         style="color:#000000;text-decoration:none;text-decoration-line:none;text-decoration-style:solid;text-decoration-color:#000000;clip-rule:nonzero;display:inline;overflow:visible;visibility:visible;opacity:1;isolation:auto;color-interpolation:sRGB;color-interpolation-filters:linearRGB;fill:#ffffff;fill-opacity:0.60932946;fill-rule:nonzero;stroke:none;stroke-width:0.92400002;stroke-linecap:square;stroke-linejoin:miter;stroke-miterlimit:4;stroke-dasharray:none;stroke-dashoffset:0;stroke-opacity:1;marker:none;color-rendering:auto;image-rendering:auto;shape-rendering:auto;text-rendering:auto;enable-background:accumulate"
         inkscape:connector-curvature="0" />
      <path
         sodipodi:nodetypes="ccaaaaaaaaaaaaaaaccc"
         inkscape:connector-curvature="0"
         id="path6467"
         d="m 392.17611,595.98046 1.83611,-173.51236 c 0,0 -4.0244,-2.71666 -5.50833,-4.59027 -3.82363,-4.82773 -6.84756,-10.53123 -8.26249,-16.52499 -1.19525,-5.06314 -1.50755,-10.62784 0,-15.60693 3.83685,-12.67226 11.77833,-24.67484 22.03331,-33.04997 13.82042,-11.287 32.28047,-15.80392 49.57496,-20.19721 16.11486,-4.09363 32.95413,-5.06753 49.57496,-5.50833 15.93381,-0.42258 32.01071,0.16757 47.73885,2.75417 12.52688,2.06012 24.82027,5.68148 36.7222,10.09859 12.06335,4.47703 24.36813,9.11279 34.88608,16.52499 9.19769,6.48179 17.77769,14.4089 23.86942,23.86943 1.4155,2.19831 2.15344,4.79976 2.75414,7.34444 1.34325,5.69007 1.94433,11.59757 1.8361,17.44304 -0.12015,6.49051 -2.46432,12.794 -2.75414,19.27915 -0.25994,5.81659 1.65344,11.66728 0.91804,17.44304 -0.77012,6.04853 -1.29025,13.04009 -5.50829,17.44304 -4.95574,5.17298 -20.19721,7.34444 -20.19721,7.34444 L 608.83705,621.686 c 0.30602,106.80037 -216.96696,139.28235 -216.66094,-25.70554 z"
         style="fill:#d4dedd;fill-opacity:0.61224491;fill-rule:evenodd;stroke:none;stroke-width:1px;stroke-linecap:butt;stroke-linejoin:miter;stroke-opacity:1" />
      <path
         sodipodi:nodetypes="caaaaacccc"
         inkscape:connector-curvature="0"
         id="path6486"
         d="m 63.512481,554.66799 c 0,0 6.983639,-45.60924 21.115258,-62.42772 17.266711,-20.54966 44.759311,-31.62897 70.690221,-38.55831 38.73959,-10.35211 81.59614,-13.36674 120.26518,-2.75417 25.05625,6.8766 48.0682,22.6053 66.09995,41.31248 9.79915,10.1662 15.33458,23.8397 21.11527,36.72219 3.56561,7.9461 8.26249,24.78748 8.26249,24.78748 L 267.32066,646.47348 97.48051,606.07907 Z"
         style="fill:#00ffff;fill-rule:evenodd;stroke:none;stroke-width:1px;stroke-linecap:butt;stroke-linejoin:miter;stroke-opacity:1" />
      <path
         inkscape:connector-curvature="0"
         d="m 240.98409,349.30482 c 5.2934,2.37603 10.45428,5.04821 15.73276,7.47239 8.14956,3.15933 16.37378,6.26757 24.90094,8.26956 7.35895,1.72772 13.45702,2.55639 20.9759,3.76407 20.27052,2.95032 40.75184,3.74428 61.16825,5.06117 1.44621,0.1006 2.89242,0.2012 4.33862,0.30181 3.21391,0.22915 2.88984,4.7743 -0.32407,4.54514 l 0,0 c -1.43764,-0.10501 -2.87527,-0.21003 -4.31291,-0.31505 -20.55243,-1.38055 -41.17301,-2.18245 -61.58236,-5.14837 -7.78749,-1.24585 -13.84168,-2.05878 -21.46,-3.84705 -8.76552,-2.05756 -17.23163,-5.22951 -25.6049,-8.48935 -5.06995,-2.32432 -10.05738,-4.81559 -15.09158,-7.20661 -3.11672,-0.8905 -1.85737,-5.2982 1.25935,-4.40771 z"
         id="path6609-5"
         style="color:#000000;text-decoration:none;text-decoration-line:none;text-decoration-style:solid;text-decoration-color:#000000;clip-rule:nonzero;display:inline;overflow:visible;visibility:visible;opacity:1;isolation:auto;color-interpolation:sRGB;color-interpolation-filters:linearRGB;fill:#ffffff;fill-opacity:0.60932946;fill-rule:nonzero;stroke:none;stroke-width:0.92400002;stroke-linecap:square;stroke-linejoin:miter;stroke-miterlimit:4;stroke-dasharray:none;stroke-dashoffset:0;stroke-opacity:1;marker:none;color-rendering:auto;image-rendering:auto;shape-rendering:auto;text-rendering:auto;enable-background:accumulate" />
      <path
         sodipodi:nodetypes="accaa"
         inkscape:connector-curvature="0"
         id="path6465-3"
         d="M 126.78262,593.30687 C 103.62981,585.65491 64.364934,555.15615 64.364934,555.15615 47.922966,762.91267 397.61434,709.94603 371.19304,550.56588 c 0,0 -64.33576,47.6775 -102.34681,55.528 -46.56326,9.61679 -96.91928,2.13309 -142.06361,-12.78701 z"
         style="fill:#00dcdc;fill-opacity:1;fill-rule:evenodd;stroke:none;stroke-width:0.9283762px;stroke-linecap:butt;stroke-linejoin:miter;stroke-opacity:1" />
      <path
         sodipodi:nodetypes="aaaccaca"
         inkscape:connector-curvature="0"
         id="path6518"
         d="m 401.35666,509.6833 c -3.3444,-12.59354 -0.26862,-27.37977 6.42638,-38.5583 9.52931,-15.91095 26.3188,-28.58467 44.06663,-33.96803 34.6348,-10.50559 77.90518,-3.72463 108.33047,7.34445 33.84925,15.51293 57.64945,32.69739 53.24719,69.77216 -0.75212,6.34543 -1.72053,13.21497 -5.50834,18.3611 -28.87955,39.23594 -121.18324,81.70689 -121.18324,81.70689 0,0 -73.82335,-61.14438 -85.37909,-104.65827 z"
         style="fill:#ffcc00;fill-rule:evenodd;stroke:none;stroke-width:1px;stroke-linecap:butt;stroke-linejoin:miter;stroke-opacity:1" />
      <path
         sodipodi:nodetypes="ccccc"
         inkscape:connector-curvature="0"
         id="path6467-2"
         d="m 401.50133,594.6755 0.77777,-84.05744 c 22.15831,35.63431 143.94937,73.03109 205.69274,20.50272 l -6.36249,87.29636 c 0.28264,98.64082 -200.39066,128.64118 -200.10802,-23.74164 z"
         style="fill:#f5c500;fill-opacity:1;fill-rule:evenodd;stroke:none;stroke-width:0.92400002;stroke-linecap:butt;stroke-linejoin:miter;stroke-miterlimit:4;stroke-dasharray:none;stroke-opacity:1" />
      <text
         sodipodi:linespacing="125%"
         id="text6537"
         y="372.28589"
         x="121.58916"
         style="color:#000000;font-style:normal;font-variant:normal;font-weight:normal;font-stretch:normal;font-size:19.23941612px;line-height:125%;font-family:Lato;-inkscape-font-specification:Lato;text-indent:0;text-align:start;text-decoration:none;text-decoration-line:none;letter-spacing:0px;word-spacing:0px;text-transform:none;direction:ltr;block-progression:tb;writing-mode:lr-tb;baseline-shift:baseline;text-anchor:start;display:inline;overflow:visible;visibility:visible;fill:#ffffff;fill-opacity:1;fill-rule:nonzero;stroke:none;stroke-width:1px;stroke-linecap:butt;stroke-linejoin:miter;stroke-opacity:1;marker:none;enable-background:accumulate"
         xml:space="preserve"><tspan
           style="font-style:normal;font-variant:normal;font-weight:normal;font-stretch:normal;font-size:19.239151px;line-height:125%;font-family:'Architects Daughter';-inkscape-font-specification:'Architects Daughter, Normal';text-align:start;writing-mode:lr-tb;text-anchor:start"
           y="372.28589"
           x="121.58916"
           id="tspan6539"
           sodipodi:role="line">125</tspan><tspan
           style="font-style:normal;font-variant:normal;font-weight:normal;font-stretch:normal;font-size:19.239151px;line-height:125%;font-family:'Architects Daughter';-inkscape-font-specification:'Architects Daughter, Normal';text-align:start;writing-mode:lr-tb;text-anchor:start"
           id="tspan6541"
           y="396.33484"
           x="121.58916"
           sodipodi:role="line">ml</tspan></text>
      <path
         inkscape:connector-curvature="0"
         d="m 547.26132,667.03041 c 2.78824,-0.8984 5.62622,-1.65862 8.37103,-2.68233 2.56622,-1.26266 5.15613,-2.52504 7.62686,-3.97235 1.88256,-1.29322 3.67209,-2.72462 5.46723,-4.13816 1.57162,-1.20376 2.971,-2.56216 4.20132,-4.10822 2.03019,-2.52227 5.59722,0.34885 3.56703,2.87112 l 0,0 c -1.46313,1.80185 -3.08302,3.42819 -4.9352,4.83724 -1.96259,1.5436 -3.91389,3.11579 -5.99462,4.49594 -2.70578,1.569 -5.52229,2.97245 -8.34703,4.30756 -2.79732,1.02469 -5.66808,1.83477 -8.50675,2.73881 -3.07564,1.02522 -4.52551,-3.3244 -1.44987,-4.34961 z"
         id="path6572"
         style="color:#000000;text-decoration:none;text-decoration-line:none;text-decoration-style:solid;text-decoration-color:#000000;clip-rule:nonzero;display:inline;overflow:visible;visibility:visible;opacity:1;isolation:auto;color-interpolation:sRGB;color-interpolation-filters:linearRGB;fill:#ffffff;fill-opacity:0.68513118;fill-rule:nonzero;stroke:none;stroke-width:0.92400002;stroke-linecap:square;stroke-linejoin:miter;stroke-miterlimit:4;stroke-dasharray:none;stroke-dashoffset:0;stroke-opacity:1;marker:none;color-rendering:auto;image-rendering:auto;shape-rendering:auto;text-rendering:auto;enable-background:accumulate" />
      <path
         inkscape:connector-curvature="0"
         d="m 561.03223,531.15831 c 2.78824,-0.89839 5.62622,-1.65862 8.37103,-2.68232 2.56622,-1.26267 5.15613,-2.52505 7.62686,-3.97236 1.88257,-1.29322 3.67209,-2.72461 5.46724,-4.13816 1.57162,-1.20375 2.97099,-2.56215 4.20132,-4.10821 2.03019,-2.52227 5.59722,0.34885 3.56703,2.87112 l 0,0 c -1.46314,1.80185 -3.08303,3.42819 -4.93521,4.83724 -1.96258,1.54359 -3.91389,3.11579 -5.99461,4.49593 -2.70579,1.56901 -5.52231,2.97245 -8.34704,4.30757 -2.79732,1.02469 -5.66808,1.83477 -8.50676,2.73881 -3.07563,1.02521 -4.52551,-3.3244 -1.44986,-4.34962 z"
         id="path6572-9"
         style="color:#000000;text-decoration:none;text-decoration-line:none;text-decoration-style:solid;text-decoration-color:#000000;clip-rule:nonzero;display:inline;overflow:visible;visibility:visible;opacity:1;isolation:auto;color-interpolation:sRGB;color-interpolation-filters:linearRGB;fill:#ffffff;fill-opacity:0.68513118;fill-rule:nonzero;stroke:none;stroke-width:0.92400002;stroke-linecap:square;stroke-linejoin:miter;stroke-miterlimit:4;stroke-dasharray:none;stroke-dashoffset:0;stroke-opacity:1;marker:none;color-rendering:auto;image-rendering:auto;shape-rendering:auto;text-rendering:auto;enable-background:accumulate" />
      <path
         inkscape:connector-curvature="0"
         d="m 557.5895,565.12633 c 2.78824,-0.8984 5.62623,-1.65863 8.37104,-2.68233 2.56621,-1.26266 5.15613,-2.52505 7.62686,-3.97235 1.88256,-1.29323 3.67209,-2.72462 5.46723,-4.13817 1.57162,-1.20375 2.971,-2.56215 4.20132,-4.10821 2.03019,-2.52227 5.59722,0.34885 3.56703,2.87112 l 0,0 c -1.46313,1.80185 -3.08302,3.42819 -4.9352,4.83724 -1.96259,1.5436 -3.91389,3.11579 -5.99462,4.49593 -2.70579,1.56901 -5.5223,2.97245 -8.34703,4.30757 -2.79733,1.02469 -5.66809,1.83477 -8.50676,2.73881 -3.07564,1.02521 -4.52551,-3.3244 -1.44987,-4.34961 z"
         id="path6572-1"
         style="color:#000000;text-decoration:none;text-decoration-line:none;text-decoration-style:solid;text-decoration-color:#000000;clip-rule:nonzero;display:inline;overflow:visible;visibility:visible;opacity:1;isolation:auto;color-interpolation:sRGB;color-interpolation-filters:linearRGB;fill:#ffffff;fill-opacity:0.68513118;fill-rule:nonzero;stroke:none;stroke-width:0.92400002;stroke-linecap:square;stroke-linejoin:miter;stroke-miterlimit:4;stroke-dasharray:none;stroke-dashoffset:0;stroke-opacity:1;marker:none;color-rendering:auto;image-rendering:auto;shape-rendering:auto;text-rendering:auto;enable-background:accumulate" />
      <path
         inkscape:connector-curvature="0"
         d="m 554.14678,599.09435 c 2.78824,-0.8984 5.62622,-1.65862 8.37103,-2.68233 2.56622,-1.26266 5.15613,-2.52504 7.62686,-3.97235 1.88257,-1.29322 3.67209,-2.72461 5.46724,-4.13816 1.57162,-1.20376 2.97099,-2.56216 4.20132,-4.10822 2.03019,-2.52227 5.59722,0.34885 3.56703,2.87112 l 0,0 c -1.46314,1.80185 -3.08303,3.42819 -4.93521,4.83725 -1.96258,1.54359 -3.91389,3.11578 -5.99461,4.49593 -2.70579,1.56901 -5.52231,2.97245 -8.34704,4.30757 -2.79732,1.02468 -5.66808,1.83477 -8.50676,2.73881 -3.07563,1.02521 -4.52551,-3.32441 -1.44986,-4.34962 z"
         id="path6572-91"
         style="color:#000000;text-decoration:none;text-decoration-line:none;text-decoration-style:solid;text-decoration-color:#000000;clip-rule:nonzero;display:inline;overflow:visible;visibility:visible;opacity:1;isolation:auto;color-interpolation:sRGB;color-interpolation-filters:linearRGB;fill:#ffffff;fill-opacity:0.68513118;fill-rule:nonzero;stroke:none;stroke-width:0.92400002;stroke-linecap:square;stroke-linejoin:miter;stroke-miterlimit:4;stroke-dasharray:none;stroke-dashoffset:0;stroke-opacity:1;marker:none;color-rendering:auto;image-rendering:auto;shape-rendering:auto;text-rendering:auto;enable-background:accumulate" />
      <path
         inkscape:connector-curvature="0"
         d="m 550.70405,633.06238 c 2.78824,-0.8984 5.62623,-1.65862 8.37104,-2.68233 2.56621,-1.26266 5.15613,-2.52504 7.62686,-3.97235 1.88256,-1.29322 3.67209,-2.72462 5.46723,-4.13816 1.57162,-1.20376 2.971,-2.56216 4.20132,-4.10822 2.03019,-2.52227 5.59722,0.34885 3.56703,2.87112 l 0,0 c -1.46313,1.80185 -3.08302,3.42819 -4.93521,4.83724 -1.96258,1.5436 -3.91388,3.11579 -5.99461,4.49594 -2.70579,1.56901 -5.5223,2.97245 -8.34703,4.30757 -2.79733,1.02468 -5.66809,1.83476 -8.50676,2.7388 -3.07564,1.02522 -4.52551,-3.3244 -1.44987,-4.34961 z"
         id="path6572-14"
         style="color:#000000;text-decoration:none;text-decoration-line:none;text-decoration-style:solid;text-decoration-color:#000000;clip-rule:nonzero;display:inline;overflow:visible;visibility:visible;opacity:1;isolation:auto;color-interpolation:sRGB;color-interpolation-filters:linearRGB;fill:#ffffff;fill-opacity:0.68513118;fill-rule:nonzero;stroke:none;stroke-width:0.92400002;stroke-linecap:square;stroke-linejoin:miter;stroke-miterlimit:4;stroke-dasharray:none;stroke-dashoffset:0;stroke-opacity:1;marker:none;color-rendering:auto;image-rendering:auto;shape-rendering:auto;text-rendering:auto;enable-background:accumulate" />
      <path
         id="path6644"
         d="m 105.20633,361.46699 c -1.00034,0.0519 -1.96992,0.73282 -2.14775,2.13804 -0.37096,2.94852 -0.91419,5.87139 -1.42091,8.79848 -0.61758,2.58676 -1.32843,5.15219 -1.903848,7.74887 -0.795069,3.42441 -1.297787,6.84551 -1.543462,10.35408 -0.532651,3.74663 -1.200609,7.47354 -1.63933,11.23381 -0.260138,3.14066 -0.515324,6.27352 -0.474445,9.42825 -0.130149,2.63873 -0.427073,5.26122 -1.138183,7.81561 -1.144328,4.32201 -2.25366,8.63944 -3.233756,13.00296 -1.242314,5.15839 -2.497035,10.32693 -3.193708,15.59361 -0.798554,4.58692 -1.721058,9.1519 -2.522694,13.7383 -0.779022,4.34427 -2.04067,8.62875 -2.050672,13.07578 -0.202801,2.92022 -0.655899,5.80154 -0.928263,8.71233 -0.276285,2.85408 -0.839211,5.65525 -1.335971,8.47692 -0.580042,2.73248 -1.762752,5.29362 -2.117409,8.07771 -0.397314,2.79099 -0.581831,5.61259 -0.874878,8.41625 -0.0086,3.10655 -0.02348,6.21576 -0.232976,9.31661 -0.29399,3.62334 -0.78255,7.2209 -1.672083,10.75208 -0.577712,3.43649 -1.107841,6.84544 -0.863956,10.34559 -1.86e-4,2.38952 0.0031,4.77935 0.0073,7.16887 0.0031,2.63925 0.0096,5.27852 -0.03156,7.91754 -0.06526,2.88827 -0.202851,5.77531 -0.560596,8.64437 -0.407313,3.24835 -0.904851,6.48388 -1.12848,9.75344 -0.192083,2.49924 -0.09409,5.00385 -0.217201,7.5074 -0.128637,2.01364 -0.386737,4.01141 -0.695288,6.0052 -0.239004,2.45425 -0.138175,4.92944 -0.44411,7.38121 -0.361742,2.98659 -1.038203,5.91138 -1.524051,8.87735 0,1.96069 1.6752,2.72713 3.000778,2.31641 1.90621,1.27513 3.831312,2.51986 5.663012,3.90236 2.092428,1.47316 4.314092,2.75855 6.628891,3.84652 2.576831,1.2563 5.231713,2.36039 7.915117,3.36966 1.975362,0.75659 3.905397,1.60941 5.832892,2.47779 2.95332,1.32966 4.8329,-2.84692 1.87958,-4.17658 -2.01719,-0.90756 -4.036522,-1.79858 -6.103485,-2.58942 -2.57132,-0.96184 -5.112715,-2.02397 -7.578998,-3.22891 -2.031413,-0.95035 -3.975153,-2.07889 -5.818327,-3.35752 -2.083277,-1.56597 -4.271983,-2.97662 -6.435957,-4.42654 0.439865,-2.13816 0.818703,-4.28774 1.086004,-6.45537 0.365163,-2.47325 0.176105,-4.98831 0.45503,-7.46372 0.327241,-2.051 0.57696,-4.10999 0.712278,-6.18236 0.156722,-2.47629 -0.005,-4.96208 0.208709,-7.43339 0.216034,-3.20308 0.704899,-6.37129 1.104207,-9.55322 0.378334,-3.0236 0.528861,-6.06625 0.598214,-9.11033 0.01193,-0.76429 0.0141,-1.52902 0.01938,-2.29336 2.126505,1.47169 4.261844,2.93306 6.400768,4.38771 2.356989,1.7223 5.06968,2.48561 7.91754,2.86852 2.141409,0.0171 4.115559,0.55999 6.074367,1.3566 3.00207,1.21811 4.72512,-3.02763 1.72305,-4.24574 -2.31688,-0.93817 -4.68107,-1.60158 -7.202838,-1.65389 -2.148485,-0.27046 -4.167175,-0.7922 -5.938463,-2.11256 -2.487455,-1.69007 -4.968835,-3.38964 -7.440666,-5.09999 -0.508788,-0.40703 -1.030045,-0.5786 -1.519195,-0.59093 -2.18e-4,-0.21441 1.99e-4,-0.42871 0,-0.64311 -0.0037,-2.38847 -0.005,-4.77797 -0.0073,-7.16643 -0.253546,-3.25193 0.260225,-6.39484 0.796001,-9.58478 0.923578,-3.6555 1.41143,-7.38602 1.720623,-11.13673 0.222296,-3.22011 0.239996,-6.4495 0.251179,-9.67579 0.321631,-2.58397 0.441685,-5.19625 0.827549,-7.77071 0.422376,-2.65957 1.478745,-5.13815 2.059166,-7.76587 0.537994,-2.99483 1.120694,-5.97329 1.419699,-9.00354 0.05747,-0.59901 0.124173,-1.19615 0.191717,-1.79343 1.872542,0.894 3.813089,1.64226 5.722472,2.45352 2.321546,1.04357 4.855641,1.36383 7.137316,2.49721 2.1118,1.20622 4.39478,1.81859 6.78664,2.1247 1.38937,0.18786 2.79674,0.0821 4.18021,0.29485 3.21202,0.42984 3.81995,-4.11319 0.60793,-4.54303 -1.40528,-0.17156 -2.8111,-0.17842 -4.22148,-0.29849 -1.9026,-0.22843 -3.68625,-0.72219 -5.35723,-1.70121 -2.37417,-1.12835 -4.908545,-1.63292 -7.344814,-2.58943 -2.338059,-0.99014 -4.725205,-1.88026 -6.957723,-3.10149 0.07396,-0.72571 0.140817,-1.45356 0.191718,-2.18294 0.008,-4.28062 1.231001,-8.40262 1.985147,-12.58434 0.803767,-4.59461 1.724742,-9.16736 2.525123,-13.76257 0.677277,-5.17091 1.91262,-10.24427 3.134253,-15.30724 0.970807,-4.33057 2.073336,-8.6135 3.213123,-12.90104 0.796053,-2.86233 1.138573,-5.80121 1.289863,-8.75844 -0.0429,-3.10634 0.20586,-6.18904 0.4611,-9.28142 0.44183,-3.66915 1.08602,-7.30818 1.60778,-10.96564 0.23974,-3.38019 0.70468,-6.66662 1.47309,-9.96336 0.57749,-2.58651 1.28054,-5.14254 1.89777,-7.71975 0.41895,-2.35003 0.84457,-4.70072 1.19886,-7.06208 2.00726,0.82788 4.13429,1.3187 6.13139,2.1708 1.43537,0.60849 0.70768,0.31476 2.18051,0.87851 3.02744,1.15356 4.65949,-3.12738 1.63205,-4.28093 -1.32267,-0.50131 -0.64143,-0.23003 -2.04097,-0.8227 -2.34656,-0.97117 -4.82533,-1.55568 -7.14824,-2.5955 -0.61685,-0.20562 -1.1633,-0.18815 -1.62597,-0.0315 -0.37306,-0.19048 -0.79453,-0.28012 -1.2122,-0.25846 z"
         style="color:#000000;text-decoration:none;text-decoration-line:none;text-decoration-style:solid;text-decoration-color:#000000;clip-rule:nonzero;display:inline;overflow:visible;visibility:visible;opacity:1;isolation:auto;color-interpolation:sRGB;color-interpolation-filters:linearRGB;fill:#ffffff;fill-opacity:0.75801751;fill-rule:nonzero;stroke:none;stroke-width:0.92400002;stroke-linecap:square;stroke-linejoin:miter;stroke-miterlimit:4;stroke-dasharray:none;stroke-dashoffset:0;stroke-opacity:1;marker:none;color-rendering:auto;image-rendering:auto;shape-rendering:auto;text-rendering:auto;enable-background:accumulate"
         inkscape:connector-curvature="0" />
      <text
         sodipodi:linespacing="125%"
         id="text6537-8"
         y="496.79355"
         x="122.64428"
         style="color:#000000;font-style:normal;font-variant:normal;font-weight:normal;font-stretch:normal;font-size:19.23941612px;line-height:125%;font-family:Lato;-inkscape-font-specification:Lato;text-indent:0;text-align:start;text-decoration:none;text-decoration-line:none;letter-spacing:0px;word-spacing:0px;text-transform:none;direction:ltr;block-progression:tb;writing-mode:lr-tb;baseline-shift:baseline;text-anchor:start;display:inline;overflow:visible;visibility:visible;fill:#ffffff;fill-opacity:1;fill-rule:nonzero;stroke:none;stroke-width:1px;stroke-linecap:butt;stroke-linejoin:miter;stroke-opacity:1;marker:none;enable-background:accumulate"
         xml:space="preserve"><tspan
           style="font-style:normal;font-variant:normal;font-weight:normal;font-stretch:normal;font-size:19.239151px;line-height:125%;font-family:'Architects Daughter';-inkscape-font-specification:'Architects Daughter, Normal';text-align:start;writing-mode:lr-tb;text-anchor:start"
           id="tspan6541-4"
           y="496.79355"
           x="122.64428"
           sodipodi:role="line">100</tspan></text>
      <text
         sodipodi:linespacing="125%"
         id="text6537-8-5"
         y="564.62744"
         x="113.84653"
         style="color:#000000;font-style:normal;font-variant:normal;font-weight:normal;font-stretch:normal;font-size:19.23941612px;line-height:125%;font-family:Lato;-inkscape-font-specification:Lato;text-indent:0;text-align:start;text-decoration:none;text-decoration-line:none;letter-spacing:0px;word-spacing:0px;text-transform:none;direction:ltr;block-progression:tb;writing-mode:lr-tb;baseline-shift:baseline;text-anchor:start;display:inline;overflow:visible;visibility:visible;fill:#ffffff;fill-opacity:1;fill-rule:nonzero;stroke:none;stroke-width:1px;stroke-linecap:butt;stroke-linejoin:miter;stroke-opacity:1;marker:none;enable-background:accumulate"
         xml:space="preserve"><tspan
           style="font-style:normal;font-variant:normal;font-weight:normal;font-stretch:normal;font-size:19.239151px;line-height:125%;font-family:'Architects Daughter';-inkscape-font-specification:'Architects Daughter, Normal';text-align:start;writing-mode:lr-tb;text-anchor:start"
           id="tspan6541-4-1"
           y="564.62744"
           x="113.84653"
           sodipodi:role="line">75</tspan></text>
      <text
         sodipodi:linespacing="125%"
         id="text6537-8-5-1"
         y="621.77228"
         x="114.68261"
         style="color:#000000;font-style:normal;font-variant:normal;font-weight:normal;font-stretch:normal;font-size:19.23941612px;line-height:125%;font-family:Lato;-inkscape-font-specification:Lato;text-indent:0;text-align:start;text-decoration:none;text-decoration-line:none;letter-spacing:0px;word-spacing:0px;text-transform:none;direction:ltr;block-progression:tb;writing-mode:lr-tb;baseline-shift:baseline;text-anchor:start;display:inline;overflow:visible;visibility:visible;fill:#ffffff;fill-opacity:1;fill-rule:nonzero;stroke:none;stroke-width:1px;stroke-linecap:butt;stroke-linejoin:miter;stroke-opacity:1;marker:none;enable-background:accumulate"
         xml:space="preserve"><tspan
           style="font-style:normal;font-variant:normal;font-weight:normal;font-stretch:normal;font-size:19.239151px;line-height:125%;font-family:'Architects Daughter';-inkscape-font-specification:'Architects Daughter, Normal';text-align:start;writing-mode:lr-tb;text-anchor:start"
           id="tspan6541-4-1-9"
           y="621.77228"
           x="114.68261"
           sodipodi:role="line">50</tspan></text>
      <text
         sodipodi:linespacing="125%"
         id="text6537-8-9"
         y="677.01489"
         x="524.37195"
         style="color:#000000;font-style:normal;font-variant:normal;font-weight:normal;font-stretch:normal;font-size:14.70699692px;line-height:125%;font-family:Lato;-inkscape-font-specification:Lato;text-indent:0;text-align:start;text-decoration:none;text-decoration-line:none;letter-spacing:0px;word-spacing:0px;text-transform:none;direction:ltr;block-progression:tb;writing-mode:lr-tb;baseline-shift:baseline;text-anchor:start;display:inline;overflow:visible;visibility:visible;fill:#ffffff;fill-opacity:1;fill-rule:nonzero;stroke:none;stroke-width:1px;stroke-linecap:butt;stroke-linejoin:miter;stroke-opacity:1;marker:none;enable-background:accumulate"
         xml:space="preserve"><tspan
           style="font-style:normal;font-variant:normal;font-weight:normal;font-stretch:normal;font-size:14.70679188px;line-height:125%;font-family:'Architects Daughter';-inkscape-font-specification:'Architects Daughter, Normal';text-align:start;writing-mode:lr-tb;text-anchor:start"
           id="tspan6541-4-10"
           y="677.01489"
           x="524.37195"
           sodipodi:role="line">10</tspan></text>
      <text
         sodipodi:linespacing="125%"
         id="text6537-8-9-9"
         y="643.04688"
         x="521.09698"
         style="color:#000000;font-style:normal;font-variant:normal;font-weight:normal;font-stretch:normal;font-size:14.70699692px;line-height:125%;font-family:Lato;-inkscape-font-specification:Lato;text-indent:0;text-align:start;text-decoration:none;text-decoration-line:none;letter-spacing:0px;word-spacing:0px;text-transform:none;direction:ltr;block-progression:tb;writing-mode:lr-tb;baseline-shift:baseline;text-anchor:start;display:inline;overflow:visible;visibility:visible;fill:#ffffff;fill-opacity:1;fill-rule:nonzero;stroke:none;stroke-width:1px;stroke-linecap:butt;stroke-linejoin:miter;stroke-opacity:1;marker:none;enable-background:accumulate"
         xml:space="preserve"><tspan
           style="font-style:normal;font-variant:normal;font-weight:normal;font-stretch:normal;font-size:14.70679188px;line-height:125%;font-family:'Architects Daughter';-inkscape-font-specification:'Architects Daughter, Normal';text-align:start;writing-mode:lr-tb;text-anchor:start"
           id="tspan6541-4-10-2"
           y="643.04688"
           x="521.09698"
           sodipodi:role="line">20</tspan></text>
      <text
         sodipodi:linespacing="125%"
         id="text6537-8-9-9-6"
         y="609.06738"
         x="524.45593"
         style="color:#000000;font-style:normal;font-variant:normal;font-weight:normal;font-stretch:normal;font-size:14.70699692px;line-height:125%;font-family:Lato;-inkscape-font-specification:Lato;text-indent:0;text-align:start;text-decoration:none;text-decoration-line:none;letter-spacing:0px;word-spacing:0px;text-transform:none;direction:ltr;block-progression:tb;writing-mode:lr-tb;baseline-shift:baseline;text-anchor:start;display:inline;overflow:visible;visibility:visible;fill:#ffffff;fill-opacity:1;fill-rule:nonzero;stroke:none;stroke-width:1px;stroke-linecap:butt;stroke-linejoin:miter;stroke-opacity:1;marker:none;enable-background:accumulate"
         xml:space="preserve"><tspan
           style="font-style:normal;font-variant:normal;font-weight:normal;font-stretch:normal;font-size:14.70679188px;line-height:125%;font-family:'Architects Daughter';-inkscape-font-specification:'Architects Daughter, Normal';text-align:start;writing-mode:lr-tb;text-anchor:start"
           id="tspan6541-4-10-2-0"
           y="609.06738"
           x="524.45593"
           sodipodi:role="line">30</tspan></text>
      <text
         sodipodi:linespacing="125%"
         id="text6537-8-9-9-2"
         y="574.86951"
         x="523.5379"
         style="color:#000000;font-style:normal;font-variant:normal;font-weight:normal;font-stretch:normal;font-size:14.70699692px;line-height:125%;font-family:Lato;-inkscape-font-specification:Lato;text-indent:0;text-align:start;text-decoration:none;text-decoration-line:none;letter-spacing:0px;word-spacing:0px;text-transform:none;direction:ltr;block-progression:tb;writing-mode:lr-tb;baseline-shift:baseline;text-anchor:start;display:inline;overflow:visible;visibility:visible;fill:#ffffff;fill-opacity:1;fill-rule:nonzero;stroke:none;stroke-width:1px;stroke-linecap:butt;stroke-linejoin:miter;stroke-opacity:1;marker:none;enable-background:accumulate"
         xml:space="preserve"><tspan
           style="font-style:normal;font-variant:normal;font-weight:normal;font-stretch:normal;font-size:14.70679188px;line-height:125%;font-family:'Architects Daughter';-inkscape-font-specification:'Architects Daughter, Normal';text-align:start;writing-mode:lr-tb;text-anchor:start"
           id="tspan6541-4-10-2-7"
           y="574.86951"
           x="523.5379"
           sodipodi:role="line">40</tspan></text>
      <text
         sodipodi:linespacing="125%"
         id="text6537-8-9-9-1"
         y="541.14276"
         x="524.45593"
         style="color:#000000;font-style:normal;font-variant:normal;font-weight:normal;font-stretch:normal;font-size:14.70699692px;line-height:125%;font-family:Lato;-inkscape-font-specification:Lato;text-indent:0;text-align:start;text-decoration:none;text-decoration-line:none;letter-spacing:0px;word-spacing:0px;text-transform:none;direction:ltr;block-progression:tb;writing-mode:lr-tb;baseline-shift:baseline;text-anchor:start;display:inline;overflow:visible;visibility:visible;fill:#ffffff;fill-opacity:1;fill-rule:nonzero;stroke:none;stroke-width:1px;stroke-linecap:butt;stroke-linejoin:miter;stroke-opacity:1;marker:none;enable-background:accumulate"
         xml:space="preserve"><tspan
           style="font-style:normal;font-variant:normal;font-weight:normal;font-stretch:normal;font-size:14.70679188px;line-height:125%;font-family:'Architects Daughter';-inkscape-font-specification:'Architects Daughter, Normal';text-align:start;writing-mode:lr-tb;text-anchor:start"
           id="tspan6541-4-10-2-4"
           y="541.14276"
           x="524.45593"
           sodipodi:role="line">50</tspan></text>
    </g>
  </g>
</svg>
