<?xml version="1.0" encoding="UTF-8" standalone="no"?>
<!-- Created with Inkscape (http://www.inkscape.org/) -->

<svg
   xmlns:dc="http://purl.org/dc/elements/1.1/"
   xmlns:cc="http://creativecommons.org/ns#"
   xmlns:rdf="http://www.w3.org/1999/02/22-rdf-syntax-ns#"
   xmlns:svg="http://www.w3.org/2000/svg"
   xmlns="http://www.w3.org/2000/svg"
   xmlns:sodipodi="http://sodipodi.sourceforge.net/DTD/sodipodi-0.dtd"
   xmlns:inkscape="http://www.inkscape.org/namespaces/inkscape"
   width="55mm"
   height="55mm"
   viewBox="0 0 194.88188 194.88189"
   id="svg5057"
   version="1.1"
   inkscape:version="0.91 r13725"
   sodipodi:docname="graphic.svg">
  <defs
     id="defs5059" />
  <sodipodi:namedview
     id="base"
     pagecolor="#ffffff"
     bordercolor="#666666"
     borderopacity="1.0"
     inkscape:pageopacity="0.0"
     inkscape:pageshadow="2"
     inkscape:zoom="0.46260381"
     inkscape:cx="-10.003152"
     inkscape:cy="57.11296"
     inkscape:document-units="px"
     inkscape:current-layer="layer1"
     showgrid="false"
     fit-margin-top="0"
     fit-margin-left="0"
     fit-margin-right="0"
     fit-margin-bottom="0"
     inkscape:window-width="1598"
     inkscape:window-height="879"
     inkscape:window-x="0"
     inkscape:window-y="19"
     inkscape:window-maximized="1" />
  <metadata
     id="metadata5062">
    <rdf:RDF>
      <cc:Work
         rdf:about="">
        <dc:format>image/svg+xml</dc:format>
        <dc:type
           rdf:resource="http://purl.org/dc/dcmitype/StillImage" />
        <dc:title></dc:title>
      </cc:Work>
    </rdf:RDF>
  </metadata>
  <g
     inkscape:label="Capa 1"
     inkscape:groupmode="layer"
     id="layer1"
     transform="translate(-97.946367,-196.95971)">
    <g
       id="g77574"
       transform="matrix(1.1382305,0,0,1.1382305,-1672.9314,-1362.9424)">
      <path
         id="path20906-8-4-3-7"
         d="m 1612.5974,1458.7107 -6.5996,6.5977 5.8477,5.8476 c 0.6525,0.6513 0.6525,1.7101 0,2.3614 -0.3264,0.3259 -0.7522,0.4902 -1.1797,0.4902 -0.4275,0 -0.8547,-0.1636 -1.1797,-0.4902 l -5.8496,-5.8477 -7.1758,7.1777 9.0488,9.0489 c 0.6525,0.6512 0.6525,1.71 0,2.3613 -0.3249,0.326 -0.7521,0.4883 -1.1797,0.4883 -0.4275,0 -0.8566,-0.1627 -1.1816,-0.4883 l -9.0488,-9.0488 -18.916,18.916 c -0.6525,0.6523 -0.6525,1.71 0,2.3613 l 23.8261,23.8262 c 0.325,0.326 0.7522,0.4883 1.1797,0.4883 0.4275,0 0.8547,-0.1627 1.1797,-0.4883 l 37.416,-37.4141 -26.1875,-26.1875 z m -14.2734,36.0078 c 2.4575,0 4.4512,1.9936 4.4512,4.4512 0,2.4576 -1.9937,4.4492 -4.4512,4.4492 -2.4575,0 -4.4492,-1.9916 -4.4492,-4.4492 0,-2.4576 1.9917,-4.4512 4.4492,-4.4512 z"
         style="fill:#ff679f;fill-opacity:0.99607843;fill-rule:nonzero;stroke:none"
         inkscape:connector-curvature="0" />
      <path
         d="m 1661.5569,1429.5186 c -0.4275,0 -0.855,-0.163 -1.18,-0.4886 l -9.05,-9.05 -6.4025,6.4035 26.1875,26.1865 36.5525,-36.5528 c 0.6525,-0.6523 0.6525,-1.7086 0,-2.3613 l -23.8262,-23.8259 c -0.6513,-0.6512 -1.7088,-0.6512 -2.36,0 l -8.715,8.7137 5.8487,5.8476 c 0.6513,0.6512 0.6525,1.7085 0,2.3612 -0.3263,0.326 -0.7537,0.4886 -1.1812,0.4886 -0.4275,0 -0.8538,-0.163 -1.18,-0.4886 l -5.8475,-5.8475 -7.1775,7.1763 5.8475,5.8475 c 0.6525,0.6523 0.6525,1.71 0,2.3612 -0.3264,0.326 -0.7525,0.4887 -1.18,0.4887 -0.4275,0 -0.855,-0.163 -1.18,-0.4887 l -5.8488,-5.8475 -7.1762,7.1773 9.0487,9.0489 c 0.6525,0.6524 0.6525,1.7086 0,2.3613 -0.3249,0.326 -0.7525,0.4886 -1.18,0.4886"
         style="fill:#ff679f;fill-opacity:0.99607843;fill-rule:nonzero;stroke:none"
         id="path20910-6-8-9-2"
         inkscape:connector-curvature="0" />
      <path
         d="m 1662.1572,1460.5605 c -0.6125,0.6126 -1.6051,0.6112 -2.2176,0 l -41.21,-41.2214 c -3.6337,-3.6337 -9.5862,-3.8187 -13.2412,-0.2056 -0.025,0.035 -0.052,0.05 -0.079,0.078 -0.025,0.035 -0.049,0.05 -0.073,0.074 -3.6137,3.6539 -3.4287,9.6077 0.2052,13.2414 l 12.3912,12.3913 c 0.014,0 0.035,0 0.049,0.035 l 14.495,14.4935 c 0.6125,0.6127 0.6125,1.6051 0,2.2174 -0.3061,0.3083 -0.7075,0.4589 -1.1087,0.4589 -0.4013,0 -0.8013,-0.1524 -1.1075,-0.4589 l -29.4276,-29.4098 c -1.4487,-1.4499 -3.5762,-1.9251 -5.4787,-1.2926 l -7.4362,-18.1924 11.0337,-11.0689 18.1988,7.4388 c -0.6588,1.8737 -0.2062,3.9852 1.2262,5.4177 l 43.78,43.79 c 0.6113,0.6123 0.6125,1.6047 0,2.2174 m 37.7213,25.3701 -2.3613,-2.3613 c -0.2487,1.5888 -0.9812,3.0561 -2.1412,4.2148 l -15.6675,15.6678 c -0.6113,0.6122 -1.605,0.6112 -2.2163,0 -0.6125,-0.6127 -0.6125,-1.6052 -10e-4,-2.2178 l 15.6675,-15.6674 c 0.855,-0.855 1.3263,-1.99 1.3263,-3.2 0,-1.0988 -0.4063,-2.1263 -1.12,-2.9487 l -8.5576,-8.5589 c -0.035,-0.035 -0.076,-0.057 -0.1123,-0.092 l -62.8062,-62.8076 0,0 -0.2087,-0.2091 c -0.1039,-0.1027 -0.2211,-0.1807 -0.3349,-0.2622 -0.1736,-0.2267 -0.4037,-0.4188 -0.6887,-0.535 l -42.7988,-17.4937 c -0.6225,-0.2551 -1.3362,-0.1098 -1.8112,0.365 -0.4763,0.4752 -0.6201,1.1888 -0.365,1.8113 l 17.5175,42.8549 c 0.1024,0.2516 0.271,0.4514 0.4637,0.6176 0.089,0.1276 0.175,0.2551 0.2898,0.3699 l 17.9601,17.96 0,0 53.65,53.6503 c 0.035,0.035 0.076,0.057 0.1112,0.092 l 6.4763,6.4764 c 7.6587,7.6575 20.0737,7.6575 27.7325,0 7.6575,-7.6578 7.6575,-20.0739 0,-27.7313"
         style="fill:#f9005c;fill-opacity:1;fill-rule:nonzero;stroke:none"
         id="path20918-8-7-8-49"
         inkscape:connector-curvature="0" />
    </g>
  </g>
</svg>
