<?xml version="1.0" encoding="UTF-8" standalone="no"?>
<!-- Created with Inkscape (http://www.inkscape.org/) -->

<svg
   xmlns:dc="http://purl.org/dc/elements/1.1/"
   xmlns:cc="http://creativecommons.org/ns#"
   xmlns:rdf="http://www.w3.org/1999/02/22-rdf-syntax-ns#"
   xmlns:svg="http://www.w3.org/2000/svg"
   xmlns="http://www.w3.org/2000/svg"
   xmlns:sodipodi="http://sodipodi.sourceforge.net/DTD/sodipodi-0.dtd"
   xmlns:inkscape="http://www.inkscape.org/namespaces/inkscape"
   width="64"
   height="19.203539"
   viewBox="0 0 16.933333 5.0809365"
   version="1.1"
   id="svg30749"
   inkscape:version="0.92.1 r15371"
   sodipodi:docname="guaixe.svg"
   inkscape:export-filename="/home/iune/favicon.png"
   inkscape:export-xdpi="96.000008"
   inkscape:export-ydpi="96.000008">
  <defs
     id="defs30743" />
  <sodipodi:namedview
     id="base"
     pagecolor="#ffffff"
     bordercolor="#666666"
     borderopacity="1.0"
     inkscape:pageopacity="0.0"
     inkscape:pageshadow="2"
     inkscape:zoom="3.959798"
     inkscape:cx="19.505027"
     inkscape:cy="-4.2938872"
     inkscape:document-units="mm"
     inkscape:current-layer="layer1"
     showgrid="false"
     fit-margin-top="0"
     fit-margin-left="0"
     fit-margin-right="0"
     fit-margin-bottom="0"
     inkscape:window-width="1600"
     inkscape:window-height="881"
     inkscape:window-x="0"
     inkscape:window-y="19"
     inkscape:window-maximized="0"
     units="px" />
  <metadata
     id="metadata30746">
    <rdf:RDF>
      <cc:Work
         rdf:about="">
        <dc:format>image/svg+xml</dc:format>
        <dc:type
           rdf:resource="http://purl.org/dc/dcmitype/StillImage" />
        <dc:title></dc:title>
      </cc:Work>
    </rdf:RDF>
  </metadata>
  <g
     inkscape:label="Capa 1"
     inkscape:groupmode="layer"
     id="layer1"
     transform="translate(-60.89403,-94.840869)">
    <g
       id="g244"
       transform="matrix(0.04902344,0,0,0.04902344,105.31211,92.721095)">
      <g
         id="g206">
        <g
           id="g200">
          <path
             d="m -886.248,102.569 c -0.634,0.527 -1.055,1.372 -1.055,2.109 0,1.369 1.055,2.214 3.371,2.316 l 15.179,0.738 c 14.857,0.737 20.969,6.535 20.969,16.862 0,13.173 -9.38,21.392 -30.876,21.392 -19.074,0 -27.086,-7.271 -27.086,-16.86 0,-3.689 1.476,-7.061 4.427,-9.695 -2.736,-2.108 -4.739,-5.27 -4.739,-9.589 0,-4.427 2.212,-8.749 7.9,-11.698 -4.319,-3.056 -6.952,-7.904 -6.952,-15.069 0,-11.593 7.06,-20.338 25.819,-20.338 5.584,0 11.485,0.841 16.226,3.266 l 11.065,-3.266 4.216,9.272 -6.43,5.269 c 0.424,1.687 0.635,3.689 0.635,5.797 0,12.541 -7.588,19.916 -25.609,19.916 -2.424,0 -4.744,-0.104 -7.06,-0.422 z m -0.948,20.55 c -0.947,1.161 -1.476,2.426 -1.476,3.479 0,3.372 2.74,4.847 9.591,4.847 10.748,0 13.278,-1.475 13.278,-4.004 0,-2.213 -1.265,-3.056 -6.536,-3.371 z m 2.107,-39.623 c 0,4.847 2.002,6.219 5.584,6.219 4.953,0 6.429,-1.476 6.429,-6.219 0,-4.637 -1.579,-6.218 -6.005,-6.218 -4.533,0 -6.008,1.687 -6.008,6.218 z"
             id="path190"
             inkscape:connector-curvature="0" />
          <path
             d="m -786.045,104.782 c 0,16.229 -9.273,24.661 -28.453,24.661 -19.181,0 -28.347,-8.747 -28.347,-24.661 V 63.79 h 20.23 v 40.677 c 0,5.164 2.424,7.692 8.222,7.692 5.585,0 8.008,-2.316 8.008,-7.692 V 63.79 h 20.34 z"
             id="path192"
             inkscape:connector-curvature="0" />
          <path
             d="m -741.474,123.015 c -4.216,4.006 -9.906,6.322 -16.757,6.322 -12.541,0 -20.129,-7.165 -20.129,-21.604 0,-11.802 8.536,-20.339 22.973,-20.339 4.323,0 7.798,0.527 10.854,1.372 v -2.32 c 0,-4.741 -2.74,-7.376 -10.644,-7.376 -7.271,0 -11.487,1.055 -17.598,3.268 l -1.579,-15.387 c 6.639,-2.846 14.33,-4.214 22.973,-4.214 20.338,0 26.977,8.745 26.977,26.555 v 38.992 H -740 Z m -3.058,-21.394 c -1.475,-0.42 -3.795,-0.948 -6.955,-0.948 -5.375,0 -7.902,2.214 -7.902,6.85 0,4.637 2.635,6.534 6.743,6.534 4.319,0 8.114,-2.423 8.114,-5.901 z"
             id="path194"
             inkscape:connector-curvature="0" />
          <path
             d="m -649.486,113.425 -3.16,-7.904 h -0.317 l -3.161,8.011 -6.112,14.753 h -22.341 l 18.442,-32.458 -18.125,-32.036 h 23.5 l 5.9,13.804 3.269,7.905 h 0.313 l 3.161,-7.905 5.902,-13.804 h 22.446 l -17.177,31.614 17.495,32.88 h -23.396 z"
             id="path196"
             inkscape:connector-curvature="0" />
          <path
             d="m -618.416,95.616 c 0,-20.55 9.272,-32.879 29.504,-32.879 17.177,0 27.401,9.693 27.401,30.031 0,2.951 -0.21,6.43 -0.526,9.063 h -35.304 c 0.841,7.799 5.478,10.75 14.965,10.75 5.794,0 11.486,-0.843 16.967,-2.636 l 2.213,15.599 c -5.378,2.316 -13.277,3.898 -21.711,3.898 -22.972,0.001 -33.509,-12.012 -33.509,-33.826 z m 38.356,-6.536 c -0.211,-7.375 -3.161,-10.221 -8.745,-10.221 -6.112,0 -8.326,2.424 -8.96,10.221 z"
             id="path198"
             inkscape:connector-curvature="0" />
        </g>
        <path
           d="m -702.699,59.049 c -7.588,0 -11.066,-2.108 -11.066,-7.904 0,-5.165 3.479,-7.905 11.066,-7.905 7.693,0 10.958,2.74 10.958,7.905 0,5.268 -3.265,7.904 -10.958,7.904 z"
           id="path202"
           inkscape:connector-curvature="0"
           style="fill:#fe330a" />
        <path
           d="M -713.131,128.284 V 64.423 l 20.759,-0.948 v 64.81 h -20.759 z"
           id="path204"
           inkscape:connector-curvature="0" />
      </g>
      <g
         id="g242">
        <path
           d="m -709.687,146.883 c -1.15,0 -2.139,-0.293 -2.94,-0.761 l 0.214,-1.243 c 0.814,0.495 1.684,0.762 2.712,0.762 1.417,0 2.11,-0.641 2.11,-1.71 0,-2.271 -4.956,-1.282 -4.956,-4.609 0,-1.576 1.016,-2.807 3.3,-2.807 0.976,0 1.925,0.188 2.646,0.535 l -0.187,1.188 c -0.788,-0.307 -1.549,-0.48 -2.392,-0.48 -1.509,0 -2.045,0.694 -2.045,1.483 0,2.178 4.958,1.162 4.958,4.597 0,1.883 -1.215,3.045 -3.42,3.045 z"
           id="path208"
           inkscape:connector-curvature="0"
           style="fill:#fe330a" />
        <path
           d="m -698.964,144.305 h -4.41 l -0.801,2.392 h -1.47 l 3.688,-10.021 h 1.63 l 3.701,10.021 h -1.536 z m -2.526,-5.585 -1.481,4.396 h 3.619 l -1.456,-4.396 -0.307,-1.042 h -0.04 z"
           id="path210"
           inkscape:connector-curvature="0"
           style="fill:#fe330a" />
        <path
           d="m -689.052,146.696 -3.221,-4.623 h -1.456 v 4.623 h -1.363 v -10.021 h 1.363 v 4.235 h 1.482 l 3.074,-4.235 h 1.629 l -3.46,4.743 3.661,5.277 h -1.709 z"
           id="path212"
           inkscape:connector-curvature="0"
           style="fill:#fe330a" />
        <path
           d="m -680.077,144.305 h -4.41 l -0.801,2.392 h -1.469 l 3.687,-10.021 h 1.631 l 3.701,10.021 h -1.536 z m -2.526,-5.585 -1.482,4.396 h 3.62 l -1.456,-4.396 -0.307,-1.042 h -0.04 z"
           id="path214"
           inkscape:connector-curvature="0"
           style="fill:#fe330a" />
        <path
           d="m -669.646,146.696 -4.729,-6.895 -0.588,-0.908 -0.027,0.014 0.015,1.082 v 6.707 h -1.23 v -10.021 h 1.243 l 5.077,7.576 0.026,-0.014 -0.026,-1.069 v -6.493 h 1.216 v 10.021 z"
           id="path216"
           inkscape:connector-curvature="0"
           style="fill:#fe330a" />
        <path
           d="m -660.457,144.305 h -4.408 l -0.803,2.392 h -1.47 l 3.688,-10.021 h 1.631 l 3.701,10.021 h -1.537 z m -2.525,-5.585 -1.482,4.396 h 3.62 l -1.455,-4.396 -0.309,-1.042 h -0.039 z"
           id="path218"
           inkscape:connector-curvature="0"
           style="fill:#fe330a" />
        <path
           d="m -650.545,146.696 -3.22,-4.623 h -1.456 v 4.623 h -1.364 v -10.021 h 1.364 v 4.235 h 1.482 l 3.072,-4.235 h 1.631 l -3.461,4.743 3.661,5.277 h -1.709 z"
           id="path220"
           inkscape:connector-curvature="0"
           style="fill:#fe330a" />
        <path
           d="m -643.923,146.883 c -2.966,0 -4.154,-1.536 -4.154,-5.196 0,-3.662 1.174,-5.172 4.154,-5.172 2.993,0 4.142,1.51 4.142,5.172 0,3.687 -1.149,5.196 -4.142,5.196 z m 0,-9.098 c -1.964,0 -2.712,0.827 -2.712,3.901 0,3.059 0.748,3.914 2.712,3.914 1.964,0 2.713,-0.855 2.713,-3.914 0,-3.074 -0.734,-3.901 -2.713,-3.901 z"
           id="path222"
           inkscape:connector-curvature="0"
           style="fill:#fe330a" />
        <path
           d="m -628.054,144.305 h -4.41 l -0.801,2.392 h -1.47 l 3.688,-10.021 h 1.63 l 3.701,10.021 h -1.536 z m -2.525,-5.585 -1.482,4.396 h 3.62 l -1.457,-4.396 -0.307,-1.042 h -0.04 z"
           id="path224"
           inkscape:connector-curvature="0"
           style="fill:#fe330a" />
        <path
           d="m -621.845,146.883 c -1.149,0 -2.137,-0.293 -2.939,-0.761 l 0.214,-1.243 c 0.815,0.495 1.683,0.762 2.712,0.762 1.417,0 2.111,-0.641 2.111,-1.71 0,-2.271 -4.957,-1.282 -4.957,-4.609 0,-1.576 1.016,-2.807 3.301,-2.807 0.975,0 1.924,0.188 2.645,0.535 l -0.187,1.188 c -0.788,-0.307 -1.55,-0.48 -2.392,-0.48 -1.51,0 -2.045,0.694 -2.045,1.483 0,2.178 4.958,1.162 4.958,4.597 0,1.883 -1.216,3.045 -3.421,3.045 z"
           id="path226"
           inkscape:connector-curvature="0"
           style="fill:#fe330a" />
        <path
           d="m -613.472,137.959 v 8.737 h -1.39 v -8.737 h -2.98 l 0.04,-1.283 h 7.283 l 0.025,1.283 z"
           id="path228"
           inkscape:connector-curvature="0"
           style="fill:#fe330a" />
        <path
           d="m -602.545,145.454 -0.04,1.242 h -6.388 v -10.021 h 6.16 l 0.04,1.256 h -4.836 v 2.979 h 4.142 v 1.149 h -4.142 v 3.394 h 5.064 z"
           id="path230"
           inkscape:connector-curvature="0"
           style="fill:#fe330a" />
        <path
           d="m -594.612,146.696 -3.219,-4.623 h -1.457 v 4.623 h -1.363 v -10.021 h 1.363 v 4.235 h 1.482 l 3.072,-4.235 h 1.631 l -3.46,4.743 3.661,5.277 h -1.71 z"
           id="path232"
           inkscape:connector-curvature="0"
           style="fill:#fe330a" />
        <path
           d="m -585.637,144.305 h -4.408 l -0.803,2.392 h -1.47 l 3.688,-10.021 h 1.631 l 3.701,10.021 h -1.537 z m -2.525,-5.585 -1.482,4.396 h 3.62 l -1.455,-4.396 -0.309,-1.042 h -0.039 z"
           id="path234"
           inkscape:connector-curvature="0"
           style="fill:#fe330a" />
        <path
           d="m -577.114,142.221 2.618,4.476 h -1.629 l -2.259,-4.222 h -2.017 v 4.222 h -1.364 v -10.021 h 3.395 c 2.191,0 3.22,0.922 3.22,2.859 0,1.536 -0.696,2.472 -1.964,2.686 z m -1.256,-4.357 h -2.03 v 3.527 h 1.977 c 1.282,0 1.857,-0.48 1.857,-1.804 0,-1.255 -0.548,-1.723 -1.804,-1.723 z"
           id="path236"
           inkscape:connector-curvature="0"
           style="fill:#fe330a" />
        <path
           d="m -572.763,136.676 h 1.402 v 10.021 h -1.402 z"
           id="path238"
           inkscape:connector-curvature="0"
           style="fill:#fe330a" />
        <path
           d="m -562.984,144.305 h -4.408 l -0.802,2.392 h -1.47 l 3.687,-10.021 h 1.631 l 3.701,10.021 h -1.536 z m -2.526,-5.585 -1.481,4.396 h 3.619 l -1.455,-4.396 -0.308,-1.042 h -0.04 z"
           id="path240"
           inkscape:connector-curvature="0"
           style="fill:#fe330a" />
      </g>
    </g>
  </g>
</svg>
