<?xml version="1.0" encoding="utf-8"?>
<!-- Generator: Adobe Illustrator 24.0.2, SVG Export Plug-In . SVG Version: 6.00 Build 0)  -->
<svg version="1.1"
	 id="svg30749" inkscape:export-filename="/home/iune/favicon.png" inkscape:export-xdpi="96.000008" inkscape:export-ydpi="96.000008" inkscape:version="0.92.1 r15371" sodipodi:docname="guaixe.svg" xmlns:cc="http://creativecommons.org/ns#" xmlns:dc="http://purl.org/dc/elements/1.1/" xmlns:inkscape="http://www.inkscape.org/namespaces/inkscape" xmlns:rdf="http://www.w3.org/1999/02/22-rdf-syntax-ns#" xmlns:sodipodi="http://sodipodi.sourceforge.net/DTD/sodipodi-0.dtd" xmlns:svg="http://www.w3.org/2000/svg"
	 xmlns="http://www.w3.org/2000/svg" xmlns:xlink="http://www.w3.org/1999/xlink" x="0px" y="0px" viewBox="0 0 64 19.2"
	 style="enable-background:new 0 0 64 19.2;" xml:space="preserve">
<style type="text/css">
	.st0{fill:#231F20;}
	.st1{fill:#CA6230;}
</style>
<sodipodi:namedview  bordercolor="#666666" borderopacity="1.0" fit-margin-bottom="0" fit-margin-left="0" fit-margin-right="0" fit-margin-top="0" id="base" inkscape:current-layer="layer1" inkscape:cx="19.505027" inkscape:cy="-4.2938872" inkscape:document-units="mm" inkscape:pageopacity="0.0" inkscape:pageshadow="2" inkscape:window-height="881" inkscape:window-maximized="0" inkscape:window-width="1600" inkscape:window-x="0" inkscape:window-y="19" inkscape:zoom="3.959798" pagecolor="#ffffff" showgrid="false" units="px">
	</sodipodi:namedview>
<g>
	<g>
		<g>
			<path class="st0" d="M7,9.6c0,3.8,3.1,7,7,7v-7H7z"/>
			<path class="st0" d="M0,9.6c0,3.8,3.1,7,7,7v-7v-7C3.1,2.6,0,5.8,0,9.6z"/>
		</g>
		<circle class="st1" cx="11" cy="5.5" r="2.9"/>
	</g>
	<g>
		<g>
			<path class="st0" d="M20.6,10.8c-0.3,0-0.5,0-0.8,0c0,0.1,0,0.1,0,0.2c0,0.1,0.1,0.2,0.4,0.2l2,0.1c1,0,1.7,0.3,2.2,0.6
				c0.5,0.4,0.7,0.9,0.7,1.7c0,0.9-0.4,1.7-1.1,2.2c-0.7,0.5-1.8,0.8-3.3,0.8c-0.7,0-1.2-0.1-1.7-0.2c-0.5-0.1-0.9-0.3-1.2-0.5
				c-0.3-0.2-0.5-0.5-0.7-0.7c-0.1-0.3-0.2-0.6-0.2-0.9c0-0.5,0.2-0.9,0.5-1.2c-0.2-0.2-0.3-0.3-0.5-0.6c-0.1-0.2-0.2-0.5-0.2-0.8
				c0-0.3,0.1-0.6,0.2-0.9c0.2-0.3,0.4-0.5,0.8-0.8c-0.3-0.2-0.5-0.5-0.7-0.8C17,8.9,16.9,8.5,16.9,8c0-0.4,0.1-0.8,0.2-1.1
				c0.1-0.3,0.3-0.6,0.6-0.9c0.3-0.3,0.7-0.5,1.1-0.6c0.5-0.1,1-0.2,1.7-0.2c0.4,0,0.8,0,1.2,0.1c0.4,0.1,0.7,0.2,1.1,0.3l1.5-0.4
				L25,6.7l-0.9,0.7c0,0.1,0,0.2,0,0.3c0,0.1,0,0.2,0,0.3c0,0.9-0.3,1.5-0.9,2C22.8,10.5,21.9,10.8,20.6,10.8z M19.7,13.7
				c0,0.1,0,0.1,0,0.2c0,0.2,0.1,0.3,0.2,0.3c0.2,0.1,0.4,0.1,0.8,0.1c0.3,0,0.6,0,0.8,0s0.4,0,0.5,0c0.1,0,0.2-0.1,0.2-0.1
				c0,0,0.1-0.1,0.1-0.1c0-0.1,0-0.2-0.1-0.2s-0.2,0-0.4-0.1L19.7,13.7z M20.6,7.5c-0.2,0-0.3,0-0.4,0.1c-0.1,0.1-0.1,0.2-0.1,0.5
				c0,0.2,0,0.4,0.1,0.5c0.1,0.1,0.2,0.1,0.3,0.1c0.2,0,0.4,0,0.4-0.1s0.1-0.2,0.1-0.5c0-0.2,0-0.4-0.1-0.5
				C20.9,7.5,20.8,7.5,20.6,7.5z"/>
			<path class="st0" d="M33.5,10.8c0,1.2-0.3,2-1,2.6c-0.7,0.6-1.7,0.9-3,0.9c-1.4,0-2.4-0.3-3-0.9c-0.7-0.6-1-1.4-1-2.6V5.4h3.3
				v5.4c0,0.3,0.1,0.5,0.2,0.6s0.3,0.2,0.6,0.2c0.3,0,0.5-0.1,0.6-0.2c0.1-0.1,0.2-0.3,0.2-0.6V5.4h3.2V10.8z"/>
			<path class="st0" d="M39.1,13.5c-0.3,0.2-0.6,0.4-1,0.6c-0.4,0.1-0.8,0.2-1.2,0.2c-0.9,0-1.5-0.3-2-0.8c-0.5-0.5-0.7-1.2-0.7-2.2
				c0-0.4,0.1-0.8,0.2-1.1c0.1-0.3,0.4-0.6,0.6-0.9c0.3-0.3,0.6-0.4,1-0.6c0.4-0.1,0.8-0.2,1.3-0.2c0.3,0,0.5,0,0.7,0
				c0.2,0,0.4,0,0.6,0.1V8.5c0-0.2-0.1-0.4-0.3-0.5c-0.2-0.1-0.5-0.2-1-0.2c-0.3,0-0.5,0-0.7,0c-0.2,0-0.4,0-0.6,0.1
				c-0.2,0-0.4,0.1-0.5,0.1c-0.2,0.1-0.4,0.1-0.6,0.2l-0.3-2.4c0.9-0.4,2-0.6,3.2-0.6c0.7,0,1.3,0.1,1.8,0.2
				c0.5,0.2,0.9,0.4,1.2,0.7c0.3,0.3,0.5,0.7,0.6,1.2c0.1,0.5,0.2,1,0.2,1.6v5.2h-2.5L39.1,13.5z M38.6,10.6c-0.1,0-0.2,0-0.3,0
				c-0.1,0-0.2,0-0.3,0c-0.2,0-0.4,0.1-0.5,0.2c-0.1,0.1-0.2,0.3-0.2,0.5c0,0.4,0.2,0.6,0.6,0.6c0.2,0,0.4-0.1,0.5-0.1
				c0.2-0.1,0.2-0.2,0.2-0.4V10.6z"/>
			<path class="st0" d="M46.3,3.8c0,0.4-0.1,0.7-0.4,0.9C45.7,4.9,45.2,5,44.6,5c-0.6,0-1-0.1-1.3-0.3c-0.3-0.2-0.4-0.5-0.4-0.9
				c0-0.4,0.1-0.7,0.4-0.9c0.3-0.2,0.7-0.3,1.3-0.3c0.6,0,1.1,0.1,1.3,0.3S46.3,3.4,46.3,3.8z M43,14.1V5.5l3.3-0.1v8.8H43z"/>
			<path class="st0" d="M51.9,12.5l-0.4-1.1h0l-0.9,2.7h-3.6l2.4-4.4L47,5.4h3.8l0.9,2.6h0l0.4-1.1l0.5-1.5h3.6L54,9.7l2.2,4.5h-3.7
				L51.9,12.5z"/>
			<path class="st0" d="M60.8,14.3c-1.6,0-2.8-0.4-3.6-1.2c-0.8-0.8-1.2-1.9-1.2-3.3c0-0.7,0.1-1.3,0.2-1.9s0.4-1,0.8-1.4
				c0.3-0.4,0.8-0.7,1.3-0.9c0.5-0.2,1.1-0.3,1.9-0.3c1.2,0,2.2,0.3,2.8,1c0.7,0.7,1,1.7,1,3.1c0,0.2,0,0.5,0,0.7
				c0,0.3,0,0.5-0.1,0.7h-4.5c0.1,0.3,0.3,0.6,0.5,0.7c0.3,0.1,0.7,0.2,1.2,0.2c0.4,0,0.8,0,1.1-0.1c0.4,0,0.8-0.1,1.1-0.2l0.3,2.4
				c-0.4,0.2-0.8,0.3-1.3,0.4C61.9,14.2,61.3,14.3,60.8,14.3z M61,8.7c0-0.4-0.1-0.6-0.2-0.8c-0.1-0.2-0.3-0.2-0.6-0.2
				c-0.3,0-0.5,0.1-0.6,0.2c-0.1,0.1-0.2,0.4-0.2,0.8H61z"/>
		</g>
	</g>
</g>
</svg>
