<?xml version="1.0" encoding="UTF-8" standalone="no"?>
<!-- Created with Inkscape (http://www.inkscape.org/) -->

<svg
   xmlns:dc="http://purl.org/dc/elements/1.1/"
   xmlns:cc="http://creativecommons.org/ns#"
   xmlns:rdf="http://www.w3.org/1999/02/22-rdf-syntax-ns#"
   xmlns:svg="http://www.w3.org/2000/svg"
   xmlns="http://www.w3.org/2000/svg"
   xmlns:sodipodi="http://sodipodi.sourceforge.net/DTD/sodipodi-0.dtd"
   xmlns:inkscape="http://www.inkscape.org/namespaces/inkscape"
   width="55mm"
   height="55mm"
   viewBox="0 0 194.88188 194.88188"
   id="svg5057"
   version="1.1"
   inkscape:version="0.91 r13725"
   sodipodi:docname="multimedia.svg">
  <defs
     id="defs5059" />
  <sodipodi:namedview
     id="base"
     pagecolor="#ffffff"
     bordercolor="#666666"
     borderopacity="1.0"
     inkscape:pageopacity="0.0"
     inkscape:pageshadow="2"
     inkscape:zoom="0.92520762"
     inkscape:cx="-129.20219"
     inkscape:cy="-32.067254"
     inkscape:document-units="px"
     inkscape:current-layer="layer1"
     showgrid="false"
     fit-margin-top="0"
     fit-margin-left="0"
     fit-margin-right="0"
     fit-margin-bottom="0"
     inkscape:window-width="1598"
     inkscape:window-height="879"
     inkscape:window-x="0"
     inkscape:window-y="19"
     inkscape:window-maximized="1" />
  <metadata
     id="metadata5062">
    <rdf:RDF>
      <cc:Work
         rdf:about="">
        <dc:format>image/svg+xml</dc:format>
        <dc:type
           rdf:resource="http://purl.org/dc/dcmitype/StillImage" />
        <dc:title></dc:title>
      </cc:Work>
    </rdf:RDF>
  </metadata>
  <g
     inkscape:label="Capa 1"
     inkscape:groupmode="layer"
     id="layer1"
     transform="translate(-123.23811,-214.16244)">
    <g
       id="g77586"
       transform="matrix(1.1382305,0,0,1.1382305,-2084.3853,-1328.2702)">
      <path
         d="m 2090.5809,1404.8698 c 1.5263,0 2.945,0.4624 4.1288,1.2501 l 0,-3.5678 c 0,-2.2787 -1.8525,-4.1311 -4.13,-4.1311 l -93.0213,0 0,6.4488 93.0225,0 z"
         style="fill:#f5c500;fill-opacity:1;fill-rule:nonzero;stroke:none"
         id="path20934-5-8-0-4-92"
         inkscape:connector-curvature="0" />
      <path
         d="m 1990.0878,1395.3142 -9.5637,0 c -2.2788,0 -4.1313,1.8525 -4.1313,4.1312 l 0,5.4237 17.8262,0 0,-5.4237 c 0,-2.2787 -1.8537,-4.1312 -4.1312,-4.1312"
         style="fill:#f5c500;fill-opacity:1;fill-rule:nonzero;stroke:none"
         id="path20938-6-7-3-0-3"
         inkscape:connector-curvature="0" />
      <path
         d="m 2038.2079,1430.1506 c -9.3837,0 -17.0175,7.6337 -17.0175,17.0189 0,0.9223 -0.7487,1.6685 -1.67,1.6685 -0.9225,0 -1.67,-0.7462 -1.67,-1.6685 0,-11.2252 9.1338,-20.3578 20.3575,-20.3578 0.9213,0 1.67,0.7477 1.67,1.67 0,0.9213 -0.7487,1.6689 -1.67,1.6689 m 0,-7.5561 c -13.55,0 -24.5725,11.0236 -24.5725,24.575 0,13.5499 11.0225,24.5735 24.5725,24.5735 13.5513,0 24.5738,-11.0236 24.5738,-24.5735 0,-13.5514 -11.0225,-24.575 -24.5738,-24.575"
         style="fill:#ffe167;fill-opacity:1;fill-rule:nonzero;stroke:none"
         id="path20942-6-7-0-4-66"
         inkscape:connector-curvature="0" />
      <path
         d="m 1972.7184,1478.5582 121.9912,0 0,-47.1674 -33.4924,0 c 3.0899,4.4911 4.905,9.9262 4.905,15.7787 0,15.391 -12.5225,27.9124 -27.9138,27.9124 -13.3175,0 -24.4787,-9.3774 -27.2475,-21.8736 -1.46,1.3362 -3.3962,2.16 -5.5263,2.16 -4.5212,0 -8.2,-3.679 -8.2,-8.1988 0,-4.5227 3.6788,-8.2 8.2,-8.2 2.1301,0 4.0663,0.8238 5.5263,2.16 0.7862,-3.5514 2.27,-6.8364 4.2688,-9.7387 l -44.5163,0 c -0.9212,0 -1.6687,-0.7477 -1.6687,-1.67 0,-0.9227 0.7475,-1.6689 1.6687,-1.6689 l 47.2113,0 c 5.0912,-5.4025 12.2912,-8.7963 20.2837,-8.7963 7.9988,0 15.2163,3.3874 20.3113,8.7963 l 36.1899,0 0,-15.7149 c 0,-2.2762 -1.8524,-4.1287 -4.1287,-4.1287 l -130.9037,0 c -2.2763,0 -4.1275,1.8525 -4.1275,4.1287 l 0,69.6625 c 0,2.2776 1.8512,4.13 4.1275,4.13 l 130.9037,0 c 2.2763,0 4.1287,-1.8524 4.1287,-4.13 l 0,-0.1028 -121.9912,0 c -0.9213,0 -1.67,-0.7476 -1.67,-1.67 0,-0.9212 0.7487,-1.6689 1.67,-1.6689"
         style="fill:#f5c500;fill-opacity:1;fill-rule:nonzero;stroke:none"
         id="path20946-8-0-2-6-7"
         inkscape:connector-curvature="0" />
      <path
         d="m 2000.5748,1447.1691 c 0,2.6802 2.18,4.86 4.86,4.86 2.68,0 4.86,-2.1798 4.86,-4.86 0,-2.6802 -2.18,-4.8614 -4.86,-4.8614 -2.68,0 -4.86,2.1812 -4.86,4.8614"
         style="fill:#ffe167;fill-opacity:1;fill-rule:nonzero;stroke:none"
         id="path20950-8-0-5-7-74"
         inkscape:connector-curvature="0" />
      <path
         d="m 2080.0328,1423.9746 -13.0038,0 c -0.9225,0 -1.67,-0.7476 -1.67,-1.6689 0,-0.9223 0.7475,-1.6699 1.67,-1.6699 l 13.0038,0 c 1.2963,0 2.35,-1.0549 2.35,-2.35 0,-1.2961 -1.0537,-2.3513 -2.35,-2.3513 l -13.0038,0 c -0.9225,0 -1.67,-0.7462 -1.67,-1.6686 0,-0.9226 0.7475,-1.6699 1.67,-1.6699 l 13.0038,0 c 3.1375,0 5.69,2.5522 5.69,5.6898 0,3.1362 -2.5525,5.6888 -5.69,5.6888"
         style="fill:#ffffff;fill-opacity:1;fill-rule:nonzero;stroke:none"
         id="path20954-6-2-8-2-6"
         inkscape:connector-curvature="0" />
    </g>
  </g>
</svg>
